G04 #@! TF.GenerationSoftware,KiCad,Pcbnew,5.0.0*
G04 #@! TF.CreationDate,2018-11-01T16:31:23+02:00*
G04 #@! TF.ProjectId,filter,66696C7465722E6B696361645F706362,rev?*
G04 #@! TF.SameCoordinates,Original*
G04 #@! TF.FileFunction,Soldermask,Top*
G04 #@! TF.FilePolarity,Negative*
%FSLAX46Y46*%
G04 Gerber Fmt 4.6, Leading zero omitted, Abs format (unit mm)*
G04 Created by KiCad (PCBNEW 5.0.0) date Thu Nov  1 16:31:23 2018*
%MOMM*%
%LPD*%
G01*
G04 APERTURE LIST*
%ADD10C,0.100000*%
%ADD11C,1.650000*%
%ADD12R,2.100000X2.350000*%
%ADD13C,1.200000*%
%ADD14R,1.200000X3.400000*%
%ADD15C,1.550000*%
%ADD16R,1.000000X1.250000*%
%ADD17R,2.100000X2.100000*%
%ADD18C,2.100000*%
G04 APERTURE END LIST*
D10*
G04 #@! TO.C,C2*
G36*
X75727346Y-32426589D02*
X75759380Y-32431341D01*
X75790794Y-32439210D01*
X75821286Y-32450120D01*
X75850561Y-32463966D01*
X75878338Y-32480615D01*
X75904350Y-32499907D01*
X75928345Y-32521655D01*
X75950093Y-32545650D01*
X75969385Y-32571662D01*
X75986034Y-32599439D01*
X75999880Y-32628714D01*
X76010790Y-32659206D01*
X76018659Y-32690620D01*
X76023411Y-32722654D01*
X76025000Y-32755000D01*
X76025000Y-34245000D01*
X76023411Y-34277346D01*
X76018659Y-34309380D01*
X76010790Y-34340794D01*
X75999880Y-34371286D01*
X75986034Y-34400561D01*
X75969385Y-34428338D01*
X75950093Y-34454350D01*
X75928345Y-34478345D01*
X75904350Y-34500093D01*
X75878338Y-34519385D01*
X75850561Y-34536034D01*
X75821286Y-34549880D01*
X75790794Y-34560790D01*
X75759380Y-34568659D01*
X75727346Y-34573411D01*
X75695000Y-34575000D01*
X74705000Y-34575000D01*
X74672654Y-34573411D01*
X74640620Y-34568659D01*
X74609206Y-34560790D01*
X74578714Y-34549880D01*
X74549439Y-34536034D01*
X74521662Y-34519385D01*
X74495650Y-34500093D01*
X74471655Y-34478345D01*
X74449907Y-34454350D01*
X74430615Y-34428338D01*
X74413966Y-34400561D01*
X74400120Y-34371286D01*
X74389210Y-34340794D01*
X74381341Y-34309380D01*
X74376589Y-34277346D01*
X74375000Y-34245000D01*
X74375000Y-32755000D01*
X74376589Y-32722654D01*
X74381341Y-32690620D01*
X74389210Y-32659206D01*
X74400120Y-32628714D01*
X74413966Y-32599439D01*
X74430615Y-32571662D01*
X74449907Y-32545650D01*
X74471655Y-32521655D01*
X74495650Y-32499907D01*
X74521662Y-32480615D01*
X74549439Y-32463966D01*
X74578714Y-32450120D01*
X74609206Y-32439210D01*
X74640620Y-32431341D01*
X74672654Y-32426589D01*
X74705000Y-32425000D01*
X75695000Y-32425000D01*
X75727346Y-32426589D01*
X75727346Y-32426589D01*
G37*
D11*
X75200000Y-33500000D03*
D10*
G36*
X78527346Y-32426589D02*
X78559380Y-32431341D01*
X78590794Y-32439210D01*
X78621286Y-32450120D01*
X78650561Y-32463966D01*
X78678338Y-32480615D01*
X78704350Y-32499907D01*
X78728345Y-32521655D01*
X78750093Y-32545650D01*
X78769385Y-32571662D01*
X78786034Y-32599439D01*
X78799880Y-32628714D01*
X78810790Y-32659206D01*
X78818659Y-32690620D01*
X78823411Y-32722654D01*
X78825000Y-32755000D01*
X78825000Y-34245000D01*
X78823411Y-34277346D01*
X78818659Y-34309380D01*
X78810790Y-34340794D01*
X78799880Y-34371286D01*
X78786034Y-34400561D01*
X78769385Y-34428338D01*
X78750093Y-34454350D01*
X78728345Y-34478345D01*
X78704350Y-34500093D01*
X78678338Y-34519385D01*
X78650561Y-34536034D01*
X78621286Y-34549880D01*
X78590794Y-34560790D01*
X78559380Y-34568659D01*
X78527346Y-34573411D01*
X78495000Y-34575000D01*
X77505000Y-34575000D01*
X77472654Y-34573411D01*
X77440620Y-34568659D01*
X77409206Y-34560790D01*
X77378714Y-34549880D01*
X77349439Y-34536034D01*
X77321662Y-34519385D01*
X77295650Y-34500093D01*
X77271655Y-34478345D01*
X77249907Y-34454350D01*
X77230615Y-34428338D01*
X77213966Y-34400561D01*
X77200120Y-34371286D01*
X77189210Y-34340794D01*
X77181341Y-34309380D01*
X77176589Y-34277346D01*
X77175000Y-34245000D01*
X77175000Y-32755000D01*
X77176589Y-32722654D01*
X77181341Y-32690620D01*
X77189210Y-32659206D01*
X77200120Y-32628714D01*
X77213966Y-32599439D01*
X77230615Y-32571662D01*
X77249907Y-32545650D01*
X77271655Y-32521655D01*
X77295650Y-32499907D01*
X77321662Y-32480615D01*
X77349439Y-32463966D01*
X77378714Y-32450120D01*
X77409206Y-32439210D01*
X77440620Y-32431341D01*
X77472654Y-32426589D01*
X77505000Y-32425000D01*
X78495000Y-32425000D01*
X78527346Y-32426589D01*
X78527346Y-32426589D01*
G37*
D11*
X78000000Y-33500000D03*
G04 #@! TD*
D10*
G04 #@! TO.C,C1*
G36*
X76777346Y-34926589D02*
X76809380Y-34931341D01*
X76840794Y-34939210D01*
X76871286Y-34950120D01*
X76900561Y-34963966D01*
X76928338Y-34980615D01*
X76954350Y-34999907D01*
X76978345Y-35021655D01*
X77000093Y-35045650D01*
X77019385Y-35071662D01*
X77036034Y-35099439D01*
X77049880Y-35128714D01*
X77060790Y-35159206D01*
X77068659Y-35190620D01*
X77073411Y-35222654D01*
X77075000Y-35255000D01*
X77075000Y-36745000D01*
X77073411Y-36777346D01*
X77068659Y-36809380D01*
X77060790Y-36840794D01*
X77049880Y-36871286D01*
X77036034Y-36900561D01*
X77019385Y-36928338D01*
X77000093Y-36954350D01*
X76978345Y-36978345D01*
X76954350Y-37000093D01*
X76928338Y-37019385D01*
X76900561Y-37036034D01*
X76871286Y-37049880D01*
X76840794Y-37060790D01*
X76809380Y-37068659D01*
X76777346Y-37073411D01*
X76745000Y-37075000D01*
X75755000Y-37075000D01*
X75722654Y-37073411D01*
X75690620Y-37068659D01*
X75659206Y-37060790D01*
X75628714Y-37049880D01*
X75599439Y-37036034D01*
X75571662Y-37019385D01*
X75545650Y-37000093D01*
X75521655Y-36978345D01*
X75499907Y-36954350D01*
X75480615Y-36928338D01*
X75463966Y-36900561D01*
X75450120Y-36871286D01*
X75439210Y-36840794D01*
X75431341Y-36809380D01*
X75426589Y-36777346D01*
X75425000Y-36745000D01*
X75425000Y-35255000D01*
X75426589Y-35222654D01*
X75431341Y-35190620D01*
X75439210Y-35159206D01*
X75450120Y-35128714D01*
X75463966Y-35099439D01*
X75480615Y-35071662D01*
X75499907Y-35045650D01*
X75521655Y-35021655D01*
X75545650Y-34999907D01*
X75571662Y-34980615D01*
X75599439Y-34963966D01*
X75628714Y-34950120D01*
X75659206Y-34939210D01*
X75690620Y-34931341D01*
X75722654Y-34926589D01*
X75755000Y-34925000D01*
X76745000Y-34925000D01*
X76777346Y-34926589D01*
X76777346Y-34926589D01*
G37*
D11*
X76250000Y-36000000D03*
D10*
G36*
X73977346Y-34926589D02*
X74009380Y-34931341D01*
X74040794Y-34939210D01*
X74071286Y-34950120D01*
X74100561Y-34963966D01*
X74128338Y-34980615D01*
X74154350Y-34999907D01*
X74178345Y-35021655D01*
X74200093Y-35045650D01*
X74219385Y-35071662D01*
X74236034Y-35099439D01*
X74249880Y-35128714D01*
X74260790Y-35159206D01*
X74268659Y-35190620D01*
X74273411Y-35222654D01*
X74275000Y-35255000D01*
X74275000Y-36745000D01*
X74273411Y-36777346D01*
X74268659Y-36809380D01*
X74260790Y-36840794D01*
X74249880Y-36871286D01*
X74236034Y-36900561D01*
X74219385Y-36928338D01*
X74200093Y-36954350D01*
X74178345Y-36978345D01*
X74154350Y-37000093D01*
X74128338Y-37019385D01*
X74100561Y-37036034D01*
X74071286Y-37049880D01*
X74040794Y-37060790D01*
X74009380Y-37068659D01*
X73977346Y-37073411D01*
X73945000Y-37075000D01*
X72955000Y-37075000D01*
X72922654Y-37073411D01*
X72890620Y-37068659D01*
X72859206Y-37060790D01*
X72828714Y-37049880D01*
X72799439Y-37036034D01*
X72771662Y-37019385D01*
X72745650Y-37000093D01*
X72721655Y-36978345D01*
X72699907Y-36954350D01*
X72680615Y-36928338D01*
X72663966Y-36900561D01*
X72650120Y-36871286D01*
X72639210Y-36840794D01*
X72631341Y-36809380D01*
X72626589Y-36777346D01*
X72625000Y-36745000D01*
X72625000Y-35255000D01*
X72626589Y-35222654D01*
X72631341Y-35190620D01*
X72639210Y-35159206D01*
X72650120Y-35128714D01*
X72663966Y-35099439D01*
X72680615Y-35071662D01*
X72699907Y-35045650D01*
X72721655Y-35021655D01*
X72745650Y-34999907D01*
X72771662Y-34980615D01*
X72799439Y-34963966D01*
X72828714Y-34950120D01*
X72859206Y-34939210D01*
X72890620Y-34931341D01*
X72922654Y-34926589D01*
X72955000Y-34925000D01*
X73945000Y-34925000D01*
X73977346Y-34926589D01*
X73977346Y-34926589D01*
G37*
D11*
X73450000Y-36000000D03*
G04 #@! TD*
D10*
G04 #@! TO.C,C3*
G36*
X79227346Y-34926589D02*
X79259380Y-34931341D01*
X79290794Y-34939210D01*
X79321286Y-34950120D01*
X79350561Y-34963966D01*
X79378338Y-34980615D01*
X79404350Y-34999907D01*
X79428345Y-35021655D01*
X79450093Y-35045650D01*
X79469385Y-35071662D01*
X79486034Y-35099439D01*
X79499880Y-35128714D01*
X79510790Y-35159206D01*
X79518659Y-35190620D01*
X79523411Y-35222654D01*
X79525000Y-35255000D01*
X79525000Y-36745000D01*
X79523411Y-36777346D01*
X79518659Y-36809380D01*
X79510790Y-36840794D01*
X79499880Y-36871286D01*
X79486034Y-36900561D01*
X79469385Y-36928338D01*
X79450093Y-36954350D01*
X79428345Y-36978345D01*
X79404350Y-37000093D01*
X79378338Y-37019385D01*
X79350561Y-37036034D01*
X79321286Y-37049880D01*
X79290794Y-37060790D01*
X79259380Y-37068659D01*
X79227346Y-37073411D01*
X79195000Y-37075000D01*
X78205000Y-37075000D01*
X78172654Y-37073411D01*
X78140620Y-37068659D01*
X78109206Y-37060790D01*
X78078714Y-37049880D01*
X78049439Y-37036034D01*
X78021662Y-37019385D01*
X77995650Y-37000093D01*
X77971655Y-36978345D01*
X77949907Y-36954350D01*
X77930615Y-36928338D01*
X77913966Y-36900561D01*
X77900120Y-36871286D01*
X77889210Y-36840794D01*
X77881341Y-36809380D01*
X77876589Y-36777346D01*
X77875000Y-36745000D01*
X77875000Y-35255000D01*
X77876589Y-35222654D01*
X77881341Y-35190620D01*
X77889210Y-35159206D01*
X77900120Y-35128714D01*
X77913966Y-35099439D01*
X77930615Y-35071662D01*
X77949907Y-35045650D01*
X77971655Y-35021655D01*
X77995650Y-34999907D01*
X78021662Y-34980615D01*
X78049439Y-34963966D01*
X78078714Y-34950120D01*
X78109206Y-34939210D01*
X78140620Y-34931341D01*
X78172654Y-34926589D01*
X78205000Y-34925000D01*
X79195000Y-34925000D01*
X79227346Y-34926589D01*
X79227346Y-34926589D01*
G37*
D11*
X78700000Y-36000000D03*
D10*
G36*
X82027346Y-34926589D02*
X82059380Y-34931341D01*
X82090794Y-34939210D01*
X82121286Y-34950120D01*
X82150561Y-34963966D01*
X82178338Y-34980615D01*
X82204350Y-34999907D01*
X82228345Y-35021655D01*
X82250093Y-35045650D01*
X82269385Y-35071662D01*
X82286034Y-35099439D01*
X82299880Y-35128714D01*
X82310790Y-35159206D01*
X82318659Y-35190620D01*
X82323411Y-35222654D01*
X82325000Y-35255000D01*
X82325000Y-36745000D01*
X82323411Y-36777346D01*
X82318659Y-36809380D01*
X82310790Y-36840794D01*
X82299880Y-36871286D01*
X82286034Y-36900561D01*
X82269385Y-36928338D01*
X82250093Y-36954350D01*
X82228345Y-36978345D01*
X82204350Y-37000093D01*
X82178338Y-37019385D01*
X82150561Y-37036034D01*
X82121286Y-37049880D01*
X82090794Y-37060790D01*
X82059380Y-37068659D01*
X82027346Y-37073411D01*
X81995000Y-37075000D01*
X81005000Y-37075000D01*
X80972654Y-37073411D01*
X80940620Y-37068659D01*
X80909206Y-37060790D01*
X80878714Y-37049880D01*
X80849439Y-37036034D01*
X80821662Y-37019385D01*
X80795650Y-37000093D01*
X80771655Y-36978345D01*
X80749907Y-36954350D01*
X80730615Y-36928338D01*
X80713966Y-36900561D01*
X80700120Y-36871286D01*
X80689210Y-36840794D01*
X80681341Y-36809380D01*
X80676589Y-36777346D01*
X80675000Y-36745000D01*
X80675000Y-35255000D01*
X80676589Y-35222654D01*
X80681341Y-35190620D01*
X80689210Y-35159206D01*
X80700120Y-35128714D01*
X80713966Y-35099439D01*
X80730615Y-35071662D01*
X80749907Y-35045650D01*
X80771655Y-35021655D01*
X80795650Y-34999907D01*
X80821662Y-34980615D01*
X80849439Y-34963966D01*
X80878714Y-34950120D01*
X80909206Y-34939210D01*
X80940620Y-34931341D01*
X80972654Y-34926589D01*
X81005000Y-34925000D01*
X81995000Y-34925000D01*
X82027346Y-34926589D01*
X82027346Y-34926589D01*
G37*
D11*
X81500000Y-36000000D03*
G04 #@! TD*
D10*
G04 #@! TO.C,C4*
G36*
X83527346Y-32426589D02*
X83559380Y-32431341D01*
X83590794Y-32439210D01*
X83621286Y-32450120D01*
X83650561Y-32463966D01*
X83678338Y-32480615D01*
X83704350Y-32499907D01*
X83728345Y-32521655D01*
X83750093Y-32545650D01*
X83769385Y-32571662D01*
X83786034Y-32599439D01*
X83799880Y-32628714D01*
X83810790Y-32659206D01*
X83818659Y-32690620D01*
X83823411Y-32722654D01*
X83825000Y-32755000D01*
X83825000Y-34245000D01*
X83823411Y-34277346D01*
X83818659Y-34309380D01*
X83810790Y-34340794D01*
X83799880Y-34371286D01*
X83786034Y-34400561D01*
X83769385Y-34428338D01*
X83750093Y-34454350D01*
X83728345Y-34478345D01*
X83704350Y-34500093D01*
X83678338Y-34519385D01*
X83650561Y-34536034D01*
X83621286Y-34549880D01*
X83590794Y-34560790D01*
X83559380Y-34568659D01*
X83527346Y-34573411D01*
X83495000Y-34575000D01*
X82505000Y-34575000D01*
X82472654Y-34573411D01*
X82440620Y-34568659D01*
X82409206Y-34560790D01*
X82378714Y-34549880D01*
X82349439Y-34536034D01*
X82321662Y-34519385D01*
X82295650Y-34500093D01*
X82271655Y-34478345D01*
X82249907Y-34454350D01*
X82230615Y-34428338D01*
X82213966Y-34400561D01*
X82200120Y-34371286D01*
X82189210Y-34340794D01*
X82181341Y-34309380D01*
X82176589Y-34277346D01*
X82175000Y-34245000D01*
X82175000Y-32755000D01*
X82176589Y-32722654D01*
X82181341Y-32690620D01*
X82189210Y-32659206D01*
X82200120Y-32628714D01*
X82213966Y-32599439D01*
X82230615Y-32571662D01*
X82249907Y-32545650D01*
X82271655Y-32521655D01*
X82295650Y-32499907D01*
X82321662Y-32480615D01*
X82349439Y-32463966D01*
X82378714Y-32450120D01*
X82409206Y-32439210D01*
X82440620Y-32431341D01*
X82472654Y-32426589D01*
X82505000Y-32425000D01*
X83495000Y-32425000D01*
X83527346Y-32426589D01*
X83527346Y-32426589D01*
G37*
D11*
X83000000Y-33500000D03*
D10*
G36*
X80727346Y-32426589D02*
X80759380Y-32431341D01*
X80790794Y-32439210D01*
X80821286Y-32450120D01*
X80850561Y-32463966D01*
X80878338Y-32480615D01*
X80904350Y-32499907D01*
X80928345Y-32521655D01*
X80950093Y-32545650D01*
X80969385Y-32571662D01*
X80986034Y-32599439D01*
X80999880Y-32628714D01*
X81010790Y-32659206D01*
X81018659Y-32690620D01*
X81023411Y-32722654D01*
X81025000Y-32755000D01*
X81025000Y-34245000D01*
X81023411Y-34277346D01*
X81018659Y-34309380D01*
X81010790Y-34340794D01*
X80999880Y-34371286D01*
X80986034Y-34400561D01*
X80969385Y-34428338D01*
X80950093Y-34454350D01*
X80928345Y-34478345D01*
X80904350Y-34500093D01*
X80878338Y-34519385D01*
X80850561Y-34536034D01*
X80821286Y-34549880D01*
X80790794Y-34560790D01*
X80759380Y-34568659D01*
X80727346Y-34573411D01*
X80695000Y-34575000D01*
X79705000Y-34575000D01*
X79672654Y-34573411D01*
X79640620Y-34568659D01*
X79609206Y-34560790D01*
X79578714Y-34549880D01*
X79549439Y-34536034D01*
X79521662Y-34519385D01*
X79495650Y-34500093D01*
X79471655Y-34478345D01*
X79449907Y-34454350D01*
X79430615Y-34428338D01*
X79413966Y-34400561D01*
X79400120Y-34371286D01*
X79389210Y-34340794D01*
X79381341Y-34309380D01*
X79376589Y-34277346D01*
X79375000Y-34245000D01*
X79375000Y-32755000D01*
X79376589Y-32722654D01*
X79381341Y-32690620D01*
X79389210Y-32659206D01*
X79400120Y-32628714D01*
X79413966Y-32599439D01*
X79430615Y-32571662D01*
X79449907Y-32545650D01*
X79471655Y-32521655D01*
X79495650Y-32499907D01*
X79521662Y-32480615D01*
X79549439Y-32463966D01*
X79578714Y-32450120D01*
X79609206Y-32439210D01*
X79640620Y-32431341D01*
X79672654Y-32426589D01*
X79705000Y-32425000D01*
X80695000Y-32425000D01*
X80727346Y-32426589D01*
X80727346Y-32426589D01*
G37*
D11*
X80200000Y-33500000D03*
G04 #@! TD*
D10*
G04 #@! TO.C,C5*
G36*
X84527346Y-34926589D02*
X84559380Y-34931341D01*
X84590794Y-34939210D01*
X84621286Y-34950120D01*
X84650561Y-34963966D01*
X84678338Y-34980615D01*
X84704350Y-34999907D01*
X84728345Y-35021655D01*
X84750093Y-35045650D01*
X84769385Y-35071662D01*
X84786034Y-35099439D01*
X84799880Y-35128714D01*
X84810790Y-35159206D01*
X84818659Y-35190620D01*
X84823411Y-35222654D01*
X84825000Y-35255000D01*
X84825000Y-36745000D01*
X84823411Y-36777346D01*
X84818659Y-36809380D01*
X84810790Y-36840794D01*
X84799880Y-36871286D01*
X84786034Y-36900561D01*
X84769385Y-36928338D01*
X84750093Y-36954350D01*
X84728345Y-36978345D01*
X84704350Y-37000093D01*
X84678338Y-37019385D01*
X84650561Y-37036034D01*
X84621286Y-37049880D01*
X84590794Y-37060790D01*
X84559380Y-37068659D01*
X84527346Y-37073411D01*
X84495000Y-37075000D01*
X83505000Y-37075000D01*
X83472654Y-37073411D01*
X83440620Y-37068659D01*
X83409206Y-37060790D01*
X83378714Y-37049880D01*
X83349439Y-37036034D01*
X83321662Y-37019385D01*
X83295650Y-37000093D01*
X83271655Y-36978345D01*
X83249907Y-36954350D01*
X83230615Y-36928338D01*
X83213966Y-36900561D01*
X83200120Y-36871286D01*
X83189210Y-36840794D01*
X83181341Y-36809380D01*
X83176589Y-36777346D01*
X83175000Y-36745000D01*
X83175000Y-35255000D01*
X83176589Y-35222654D01*
X83181341Y-35190620D01*
X83189210Y-35159206D01*
X83200120Y-35128714D01*
X83213966Y-35099439D01*
X83230615Y-35071662D01*
X83249907Y-35045650D01*
X83271655Y-35021655D01*
X83295650Y-34999907D01*
X83321662Y-34980615D01*
X83349439Y-34963966D01*
X83378714Y-34950120D01*
X83409206Y-34939210D01*
X83440620Y-34931341D01*
X83472654Y-34926589D01*
X83505000Y-34925000D01*
X84495000Y-34925000D01*
X84527346Y-34926589D01*
X84527346Y-34926589D01*
G37*
D11*
X84000000Y-36000000D03*
D10*
G36*
X87327346Y-34926589D02*
X87359380Y-34931341D01*
X87390794Y-34939210D01*
X87421286Y-34950120D01*
X87450561Y-34963966D01*
X87478338Y-34980615D01*
X87504350Y-34999907D01*
X87528345Y-35021655D01*
X87550093Y-35045650D01*
X87569385Y-35071662D01*
X87586034Y-35099439D01*
X87599880Y-35128714D01*
X87610790Y-35159206D01*
X87618659Y-35190620D01*
X87623411Y-35222654D01*
X87625000Y-35255000D01*
X87625000Y-36745000D01*
X87623411Y-36777346D01*
X87618659Y-36809380D01*
X87610790Y-36840794D01*
X87599880Y-36871286D01*
X87586034Y-36900561D01*
X87569385Y-36928338D01*
X87550093Y-36954350D01*
X87528345Y-36978345D01*
X87504350Y-37000093D01*
X87478338Y-37019385D01*
X87450561Y-37036034D01*
X87421286Y-37049880D01*
X87390794Y-37060790D01*
X87359380Y-37068659D01*
X87327346Y-37073411D01*
X87295000Y-37075000D01*
X86305000Y-37075000D01*
X86272654Y-37073411D01*
X86240620Y-37068659D01*
X86209206Y-37060790D01*
X86178714Y-37049880D01*
X86149439Y-37036034D01*
X86121662Y-37019385D01*
X86095650Y-37000093D01*
X86071655Y-36978345D01*
X86049907Y-36954350D01*
X86030615Y-36928338D01*
X86013966Y-36900561D01*
X86000120Y-36871286D01*
X85989210Y-36840794D01*
X85981341Y-36809380D01*
X85976589Y-36777346D01*
X85975000Y-36745000D01*
X85975000Y-35255000D01*
X85976589Y-35222654D01*
X85981341Y-35190620D01*
X85989210Y-35159206D01*
X86000120Y-35128714D01*
X86013966Y-35099439D01*
X86030615Y-35071662D01*
X86049907Y-35045650D01*
X86071655Y-35021655D01*
X86095650Y-34999907D01*
X86121662Y-34980615D01*
X86149439Y-34963966D01*
X86178714Y-34950120D01*
X86209206Y-34939210D01*
X86240620Y-34931341D01*
X86272654Y-34926589D01*
X86305000Y-34925000D01*
X87295000Y-34925000D01*
X87327346Y-34926589D01*
X87327346Y-34926589D01*
G37*
D11*
X86800000Y-36000000D03*
G04 #@! TD*
D10*
G04 #@! TO.C,C6*
G36*
X88577346Y-32426589D02*
X88609380Y-32431341D01*
X88640794Y-32439210D01*
X88671286Y-32450120D01*
X88700561Y-32463966D01*
X88728338Y-32480615D01*
X88754350Y-32499907D01*
X88778345Y-32521655D01*
X88800093Y-32545650D01*
X88819385Y-32571662D01*
X88836034Y-32599439D01*
X88849880Y-32628714D01*
X88860790Y-32659206D01*
X88868659Y-32690620D01*
X88873411Y-32722654D01*
X88875000Y-32755000D01*
X88875000Y-34245000D01*
X88873411Y-34277346D01*
X88868659Y-34309380D01*
X88860790Y-34340794D01*
X88849880Y-34371286D01*
X88836034Y-34400561D01*
X88819385Y-34428338D01*
X88800093Y-34454350D01*
X88778345Y-34478345D01*
X88754350Y-34500093D01*
X88728338Y-34519385D01*
X88700561Y-34536034D01*
X88671286Y-34549880D01*
X88640794Y-34560790D01*
X88609380Y-34568659D01*
X88577346Y-34573411D01*
X88545000Y-34575000D01*
X87555000Y-34575000D01*
X87522654Y-34573411D01*
X87490620Y-34568659D01*
X87459206Y-34560790D01*
X87428714Y-34549880D01*
X87399439Y-34536034D01*
X87371662Y-34519385D01*
X87345650Y-34500093D01*
X87321655Y-34478345D01*
X87299907Y-34454350D01*
X87280615Y-34428338D01*
X87263966Y-34400561D01*
X87250120Y-34371286D01*
X87239210Y-34340794D01*
X87231341Y-34309380D01*
X87226589Y-34277346D01*
X87225000Y-34245000D01*
X87225000Y-32755000D01*
X87226589Y-32722654D01*
X87231341Y-32690620D01*
X87239210Y-32659206D01*
X87250120Y-32628714D01*
X87263966Y-32599439D01*
X87280615Y-32571662D01*
X87299907Y-32545650D01*
X87321655Y-32521655D01*
X87345650Y-32499907D01*
X87371662Y-32480615D01*
X87399439Y-32463966D01*
X87428714Y-32450120D01*
X87459206Y-32439210D01*
X87490620Y-32431341D01*
X87522654Y-32426589D01*
X87555000Y-32425000D01*
X88545000Y-32425000D01*
X88577346Y-32426589D01*
X88577346Y-32426589D01*
G37*
D11*
X88050000Y-33500000D03*
D10*
G36*
X85777346Y-32426589D02*
X85809380Y-32431341D01*
X85840794Y-32439210D01*
X85871286Y-32450120D01*
X85900561Y-32463966D01*
X85928338Y-32480615D01*
X85954350Y-32499907D01*
X85978345Y-32521655D01*
X86000093Y-32545650D01*
X86019385Y-32571662D01*
X86036034Y-32599439D01*
X86049880Y-32628714D01*
X86060790Y-32659206D01*
X86068659Y-32690620D01*
X86073411Y-32722654D01*
X86075000Y-32755000D01*
X86075000Y-34245000D01*
X86073411Y-34277346D01*
X86068659Y-34309380D01*
X86060790Y-34340794D01*
X86049880Y-34371286D01*
X86036034Y-34400561D01*
X86019385Y-34428338D01*
X86000093Y-34454350D01*
X85978345Y-34478345D01*
X85954350Y-34500093D01*
X85928338Y-34519385D01*
X85900561Y-34536034D01*
X85871286Y-34549880D01*
X85840794Y-34560790D01*
X85809380Y-34568659D01*
X85777346Y-34573411D01*
X85745000Y-34575000D01*
X84755000Y-34575000D01*
X84722654Y-34573411D01*
X84690620Y-34568659D01*
X84659206Y-34560790D01*
X84628714Y-34549880D01*
X84599439Y-34536034D01*
X84571662Y-34519385D01*
X84545650Y-34500093D01*
X84521655Y-34478345D01*
X84499907Y-34454350D01*
X84480615Y-34428338D01*
X84463966Y-34400561D01*
X84450120Y-34371286D01*
X84439210Y-34340794D01*
X84431341Y-34309380D01*
X84426589Y-34277346D01*
X84425000Y-34245000D01*
X84425000Y-32755000D01*
X84426589Y-32722654D01*
X84431341Y-32690620D01*
X84439210Y-32659206D01*
X84450120Y-32628714D01*
X84463966Y-32599439D01*
X84480615Y-32571662D01*
X84499907Y-32545650D01*
X84521655Y-32521655D01*
X84545650Y-32499907D01*
X84571662Y-32480615D01*
X84599439Y-32463966D01*
X84628714Y-32450120D01*
X84659206Y-32439210D01*
X84690620Y-32431341D01*
X84722654Y-32426589D01*
X84755000Y-32425000D01*
X85745000Y-32425000D01*
X85777346Y-32426589D01*
X85777346Y-32426589D01*
G37*
D11*
X85250000Y-33500000D03*
G04 #@! TD*
D12*
G04 #@! TO.C,J7*
X88000000Y-27500000D03*
X85500000Y-27500000D03*
X83000000Y-27500000D03*
X80500000Y-27500000D03*
X78000000Y-27500000D03*
X75500000Y-27500000D03*
X73000000Y-27500000D03*
G04 #@! TD*
G04 #@! TO.C,J8*
X73000000Y-42500000D03*
X75500000Y-42500000D03*
X78000000Y-42500000D03*
X80500000Y-42500000D03*
X83000000Y-42500000D03*
X85500000Y-42500000D03*
X88000000Y-42500000D03*
G04 #@! TD*
D13*
G04 #@! TO.C,J5*
X64000000Y-39000000D03*
D10*
G36*
X64600000Y-40700000D02*
X63400000Y-40700000D01*
X63400000Y-37300000D01*
X64600000Y-37300000D01*
X64600000Y-40700000D01*
X64600000Y-40700000D01*
G37*
D14*
X65270000Y-39000000D03*
X66540000Y-39000000D03*
X67810000Y-39000000D03*
G04 #@! TD*
D10*
G04 #@! TO.C,R10*
G36*
X83596071Y-37876623D02*
X83628781Y-37881475D01*
X83660857Y-37889509D01*
X83691991Y-37900649D01*
X83721884Y-37914787D01*
X83750247Y-37931787D01*
X83776807Y-37951485D01*
X83801308Y-37973692D01*
X83823515Y-37998193D01*
X83843213Y-38024753D01*
X83860213Y-38053116D01*
X83874351Y-38083009D01*
X83885491Y-38114143D01*
X83893525Y-38146219D01*
X83898377Y-38178929D01*
X83900000Y-38211956D01*
X83900000Y-39088044D01*
X83898377Y-39121071D01*
X83893525Y-39153781D01*
X83885491Y-39185857D01*
X83874351Y-39216991D01*
X83860213Y-39246884D01*
X83843213Y-39275247D01*
X83823515Y-39301807D01*
X83801308Y-39326308D01*
X83776807Y-39348515D01*
X83750247Y-39368213D01*
X83721884Y-39385213D01*
X83691991Y-39399351D01*
X83660857Y-39410491D01*
X83628781Y-39418525D01*
X83596071Y-39423377D01*
X83563044Y-39425000D01*
X82436956Y-39425000D01*
X82403929Y-39423377D01*
X82371219Y-39418525D01*
X82339143Y-39410491D01*
X82308009Y-39399351D01*
X82278116Y-39385213D01*
X82249753Y-39368213D01*
X82223193Y-39348515D01*
X82198692Y-39326308D01*
X82176485Y-39301807D01*
X82156787Y-39275247D01*
X82139787Y-39246884D01*
X82125649Y-39216991D01*
X82114509Y-39185857D01*
X82106475Y-39153781D01*
X82101623Y-39121071D01*
X82100000Y-39088044D01*
X82100000Y-38211956D01*
X82101623Y-38178929D01*
X82106475Y-38146219D01*
X82114509Y-38114143D01*
X82125649Y-38083009D01*
X82139787Y-38053116D01*
X82156787Y-38024753D01*
X82176485Y-37998193D01*
X82198692Y-37973692D01*
X82223193Y-37951485D01*
X82249753Y-37931787D01*
X82278116Y-37914787D01*
X82308009Y-37900649D01*
X82339143Y-37889509D01*
X82371219Y-37881475D01*
X82403929Y-37876623D01*
X82436956Y-37875000D01*
X83563044Y-37875000D01*
X83596071Y-37876623D01*
X83596071Y-37876623D01*
G37*
D15*
X83000000Y-38650000D03*
D10*
G36*
X83596071Y-39576623D02*
X83628781Y-39581475D01*
X83660857Y-39589509D01*
X83691991Y-39600649D01*
X83721884Y-39614787D01*
X83750247Y-39631787D01*
X83776807Y-39651485D01*
X83801308Y-39673692D01*
X83823515Y-39698193D01*
X83843213Y-39724753D01*
X83860213Y-39753116D01*
X83874351Y-39783009D01*
X83885491Y-39814143D01*
X83893525Y-39846219D01*
X83898377Y-39878929D01*
X83900000Y-39911956D01*
X83900000Y-40788044D01*
X83898377Y-40821071D01*
X83893525Y-40853781D01*
X83885491Y-40885857D01*
X83874351Y-40916991D01*
X83860213Y-40946884D01*
X83843213Y-40975247D01*
X83823515Y-41001807D01*
X83801308Y-41026308D01*
X83776807Y-41048515D01*
X83750247Y-41068213D01*
X83721884Y-41085213D01*
X83691991Y-41099351D01*
X83660857Y-41110491D01*
X83628781Y-41118525D01*
X83596071Y-41123377D01*
X83563044Y-41125000D01*
X82436956Y-41125000D01*
X82403929Y-41123377D01*
X82371219Y-41118525D01*
X82339143Y-41110491D01*
X82308009Y-41099351D01*
X82278116Y-41085213D01*
X82249753Y-41068213D01*
X82223193Y-41048515D01*
X82198692Y-41026308D01*
X82176485Y-41001807D01*
X82156787Y-40975247D01*
X82139787Y-40946884D01*
X82125649Y-40916991D01*
X82114509Y-40885857D01*
X82106475Y-40853781D01*
X82101623Y-40821071D01*
X82100000Y-40788044D01*
X82100000Y-39911956D01*
X82101623Y-39878929D01*
X82106475Y-39846219D01*
X82114509Y-39814143D01*
X82125649Y-39783009D01*
X82139787Y-39753116D01*
X82156787Y-39724753D01*
X82176485Y-39698193D01*
X82198692Y-39673692D01*
X82223193Y-39651485D01*
X82249753Y-39631787D01*
X82278116Y-39614787D01*
X82308009Y-39600649D01*
X82339143Y-39589509D01*
X82371219Y-39581475D01*
X82403929Y-39576623D01*
X82436956Y-39575000D01*
X83563044Y-39575000D01*
X83596071Y-39576623D01*
X83596071Y-39576623D01*
G37*
D15*
X83000000Y-40350000D03*
G04 #@! TD*
D10*
G04 #@! TO.C,R9*
G36*
X81096071Y-39576623D02*
X81128781Y-39581475D01*
X81160857Y-39589509D01*
X81191991Y-39600649D01*
X81221884Y-39614787D01*
X81250247Y-39631787D01*
X81276807Y-39651485D01*
X81301308Y-39673692D01*
X81323515Y-39698193D01*
X81343213Y-39724753D01*
X81360213Y-39753116D01*
X81374351Y-39783009D01*
X81385491Y-39814143D01*
X81393525Y-39846219D01*
X81398377Y-39878929D01*
X81400000Y-39911956D01*
X81400000Y-40788044D01*
X81398377Y-40821071D01*
X81393525Y-40853781D01*
X81385491Y-40885857D01*
X81374351Y-40916991D01*
X81360213Y-40946884D01*
X81343213Y-40975247D01*
X81323515Y-41001807D01*
X81301308Y-41026308D01*
X81276807Y-41048515D01*
X81250247Y-41068213D01*
X81221884Y-41085213D01*
X81191991Y-41099351D01*
X81160857Y-41110491D01*
X81128781Y-41118525D01*
X81096071Y-41123377D01*
X81063044Y-41125000D01*
X79936956Y-41125000D01*
X79903929Y-41123377D01*
X79871219Y-41118525D01*
X79839143Y-41110491D01*
X79808009Y-41099351D01*
X79778116Y-41085213D01*
X79749753Y-41068213D01*
X79723193Y-41048515D01*
X79698692Y-41026308D01*
X79676485Y-41001807D01*
X79656787Y-40975247D01*
X79639787Y-40946884D01*
X79625649Y-40916991D01*
X79614509Y-40885857D01*
X79606475Y-40853781D01*
X79601623Y-40821071D01*
X79600000Y-40788044D01*
X79600000Y-39911956D01*
X79601623Y-39878929D01*
X79606475Y-39846219D01*
X79614509Y-39814143D01*
X79625649Y-39783009D01*
X79639787Y-39753116D01*
X79656787Y-39724753D01*
X79676485Y-39698193D01*
X79698692Y-39673692D01*
X79723193Y-39651485D01*
X79749753Y-39631787D01*
X79778116Y-39614787D01*
X79808009Y-39600649D01*
X79839143Y-39589509D01*
X79871219Y-39581475D01*
X79903929Y-39576623D01*
X79936956Y-39575000D01*
X81063044Y-39575000D01*
X81096071Y-39576623D01*
X81096071Y-39576623D01*
G37*
D15*
X80500000Y-40350000D03*
D10*
G36*
X81096071Y-37876623D02*
X81128781Y-37881475D01*
X81160857Y-37889509D01*
X81191991Y-37900649D01*
X81221884Y-37914787D01*
X81250247Y-37931787D01*
X81276807Y-37951485D01*
X81301308Y-37973692D01*
X81323515Y-37998193D01*
X81343213Y-38024753D01*
X81360213Y-38053116D01*
X81374351Y-38083009D01*
X81385491Y-38114143D01*
X81393525Y-38146219D01*
X81398377Y-38178929D01*
X81400000Y-38211956D01*
X81400000Y-39088044D01*
X81398377Y-39121071D01*
X81393525Y-39153781D01*
X81385491Y-39185857D01*
X81374351Y-39216991D01*
X81360213Y-39246884D01*
X81343213Y-39275247D01*
X81323515Y-39301807D01*
X81301308Y-39326308D01*
X81276807Y-39348515D01*
X81250247Y-39368213D01*
X81221884Y-39385213D01*
X81191991Y-39399351D01*
X81160857Y-39410491D01*
X81128781Y-39418525D01*
X81096071Y-39423377D01*
X81063044Y-39425000D01*
X79936956Y-39425000D01*
X79903929Y-39423377D01*
X79871219Y-39418525D01*
X79839143Y-39410491D01*
X79808009Y-39399351D01*
X79778116Y-39385213D01*
X79749753Y-39368213D01*
X79723193Y-39348515D01*
X79698692Y-39326308D01*
X79676485Y-39301807D01*
X79656787Y-39275247D01*
X79639787Y-39246884D01*
X79625649Y-39216991D01*
X79614509Y-39185857D01*
X79606475Y-39153781D01*
X79601623Y-39121071D01*
X79600000Y-39088044D01*
X79600000Y-38211956D01*
X79601623Y-38178929D01*
X79606475Y-38146219D01*
X79614509Y-38114143D01*
X79625649Y-38083009D01*
X79639787Y-38053116D01*
X79656787Y-38024753D01*
X79676485Y-37998193D01*
X79698692Y-37973692D01*
X79723193Y-37951485D01*
X79749753Y-37931787D01*
X79778116Y-37914787D01*
X79808009Y-37900649D01*
X79839143Y-37889509D01*
X79871219Y-37881475D01*
X79903929Y-37876623D01*
X79936956Y-37875000D01*
X81063044Y-37875000D01*
X81096071Y-37876623D01*
X81096071Y-37876623D01*
G37*
D15*
X80500000Y-38650000D03*
G04 #@! TD*
D10*
G04 #@! TO.C,R8*
G36*
X78596071Y-37876623D02*
X78628781Y-37881475D01*
X78660857Y-37889509D01*
X78691991Y-37900649D01*
X78721884Y-37914787D01*
X78750247Y-37931787D01*
X78776807Y-37951485D01*
X78801308Y-37973692D01*
X78823515Y-37998193D01*
X78843213Y-38024753D01*
X78860213Y-38053116D01*
X78874351Y-38083009D01*
X78885491Y-38114143D01*
X78893525Y-38146219D01*
X78898377Y-38178929D01*
X78900000Y-38211956D01*
X78900000Y-39088044D01*
X78898377Y-39121071D01*
X78893525Y-39153781D01*
X78885491Y-39185857D01*
X78874351Y-39216991D01*
X78860213Y-39246884D01*
X78843213Y-39275247D01*
X78823515Y-39301807D01*
X78801308Y-39326308D01*
X78776807Y-39348515D01*
X78750247Y-39368213D01*
X78721884Y-39385213D01*
X78691991Y-39399351D01*
X78660857Y-39410491D01*
X78628781Y-39418525D01*
X78596071Y-39423377D01*
X78563044Y-39425000D01*
X77436956Y-39425000D01*
X77403929Y-39423377D01*
X77371219Y-39418525D01*
X77339143Y-39410491D01*
X77308009Y-39399351D01*
X77278116Y-39385213D01*
X77249753Y-39368213D01*
X77223193Y-39348515D01*
X77198692Y-39326308D01*
X77176485Y-39301807D01*
X77156787Y-39275247D01*
X77139787Y-39246884D01*
X77125649Y-39216991D01*
X77114509Y-39185857D01*
X77106475Y-39153781D01*
X77101623Y-39121071D01*
X77100000Y-39088044D01*
X77100000Y-38211956D01*
X77101623Y-38178929D01*
X77106475Y-38146219D01*
X77114509Y-38114143D01*
X77125649Y-38083009D01*
X77139787Y-38053116D01*
X77156787Y-38024753D01*
X77176485Y-37998193D01*
X77198692Y-37973692D01*
X77223193Y-37951485D01*
X77249753Y-37931787D01*
X77278116Y-37914787D01*
X77308009Y-37900649D01*
X77339143Y-37889509D01*
X77371219Y-37881475D01*
X77403929Y-37876623D01*
X77436956Y-37875000D01*
X78563044Y-37875000D01*
X78596071Y-37876623D01*
X78596071Y-37876623D01*
G37*
D15*
X78000000Y-38650000D03*
D10*
G36*
X78596071Y-39576623D02*
X78628781Y-39581475D01*
X78660857Y-39589509D01*
X78691991Y-39600649D01*
X78721884Y-39614787D01*
X78750247Y-39631787D01*
X78776807Y-39651485D01*
X78801308Y-39673692D01*
X78823515Y-39698193D01*
X78843213Y-39724753D01*
X78860213Y-39753116D01*
X78874351Y-39783009D01*
X78885491Y-39814143D01*
X78893525Y-39846219D01*
X78898377Y-39878929D01*
X78900000Y-39911956D01*
X78900000Y-40788044D01*
X78898377Y-40821071D01*
X78893525Y-40853781D01*
X78885491Y-40885857D01*
X78874351Y-40916991D01*
X78860213Y-40946884D01*
X78843213Y-40975247D01*
X78823515Y-41001807D01*
X78801308Y-41026308D01*
X78776807Y-41048515D01*
X78750247Y-41068213D01*
X78721884Y-41085213D01*
X78691991Y-41099351D01*
X78660857Y-41110491D01*
X78628781Y-41118525D01*
X78596071Y-41123377D01*
X78563044Y-41125000D01*
X77436956Y-41125000D01*
X77403929Y-41123377D01*
X77371219Y-41118525D01*
X77339143Y-41110491D01*
X77308009Y-41099351D01*
X77278116Y-41085213D01*
X77249753Y-41068213D01*
X77223193Y-41048515D01*
X77198692Y-41026308D01*
X77176485Y-41001807D01*
X77156787Y-40975247D01*
X77139787Y-40946884D01*
X77125649Y-40916991D01*
X77114509Y-40885857D01*
X77106475Y-40853781D01*
X77101623Y-40821071D01*
X77100000Y-40788044D01*
X77100000Y-39911956D01*
X77101623Y-39878929D01*
X77106475Y-39846219D01*
X77114509Y-39814143D01*
X77125649Y-39783009D01*
X77139787Y-39753116D01*
X77156787Y-39724753D01*
X77176485Y-39698193D01*
X77198692Y-39673692D01*
X77223193Y-39651485D01*
X77249753Y-39631787D01*
X77278116Y-39614787D01*
X77308009Y-39600649D01*
X77339143Y-39589509D01*
X77371219Y-39581475D01*
X77403929Y-39576623D01*
X77436956Y-39575000D01*
X78563044Y-39575000D01*
X78596071Y-39576623D01*
X78596071Y-39576623D01*
G37*
D15*
X78000000Y-40350000D03*
G04 #@! TD*
D10*
G04 #@! TO.C,R7*
G36*
X76096071Y-39576623D02*
X76128781Y-39581475D01*
X76160857Y-39589509D01*
X76191991Y-39600649D01*
X76221884Y-39614787D01*
X76250247Y-39631787D01*
X76276807Y-39651485D01*
X76301308Y-39673692D01*
X76323515Y-39698193D01*
X76343213Y-39724753D01*
X76360213Y-39753116D01*
X76374351Y-39783009D01*
X76385491Y-39814143D01*
X76393525Y-39846219D01*
X76398377Y-39878929D01*
X76400000Y-39911956D01*
X76400000Y-40788044D01*
X76398377Y-40821071D01*
X76393525Y-40853781D01*
X76385491Y-40885857D01*
X76374351Y-40916991D01*
X76360213Y-40946884D01*
X76343213Y-40975247D01*
X76323515Y-41001807D01*
X76301308Y-41026308D01*
X76276807Y-41048515D01*
X76250247Y-41068213D01*
X76221884Y-41085213D01*
X76191991Y-41099351D01*
X76160857Y-41110491D01*
X76128781Y-41118525D01*
X76096071Y-41123377D01*
X76063044Y-41125000D01*
X74936956Y-41125000D01*
X74903929Y-41123377D01*
X74871219Y-41118525D01*
X74839143Y-41110491D01*
X74808009Y-41099351D01*
X74778116Y-41085213D01*
X74749753Y-41068213D01*
X74723193Y-41048515D01*
X74698692Y-41026308D01*
X74676485Y-41001807D01*
X74656787Y-40975247D01*
X74639787Y-40946884D01*
X74625649Y-40916991D01*
X74614509Y-40885857D01*
X74606475Y-40853781D01*
X74601623Y-40821071D01*
X74600000Y-40788044D01*
X74600000Y-39911956D01*
X74601623Y-39878929D01*
X74606475Y-39846219D01*
X74614509Y-39814143D01*
X74625649Y-39783009D01*
X74639787Y-39753116D01*
X74656787Y-39724753D01*
X74676485Y-39698193D01*
X74698692Y-39673692D01*
X74723193Y-39651485D01*
X74749753Y-39631787D01*
X74778116Y-39614787D01*
X74808009Y-39600649D01*
X74839143Y-39589509D01*
X74871219Y-39581475D01*
X74903929Y-39576623D01*
X74936956Y-39575000D01*
X76063044Y-39575000D01*
X76096071Y-39576623D01*
X76096071Y-39576623D01*
G37*
D15*
X75500000Y-40350000D03*
D10*
G36*
X76096071Y-37876623D02*
X76128781Y-37881475D01*
X76160857Y-37889509D01*
X76191991Y-37900649D01*
X76221884Y-37914787D01*
X76250247Y-37931787D01*
X76276807Y-37951485D01*
X76301308Y-37973692D01*
X76323515Y-37998193D01*
X76343213Y-38024753D01*
X76360213Y-38053116D01*
X76374351Y-38083009D01*
X76385491Y-38114143D01*
X76393525Y-38146219D01*
X76398377Y-38178929D01*
X76400000Y-38211956D01*
X76400000Y-39088044D01*
X76398377Y-39121071D01*
X76393525Y-39153781D01*
X76385491Y-39185857D01*
X76374351Y-39216991D01*
X76360213Y-39246884D01*
X76343213Y-39275247D01*
X76323515Y-39301807D01*
X76301308Y-39326308D01*
X76276807Y-39348515D01*
X76250247Y-39368213D01*
X76221884Y-39385213D01*
X76191991Y-39399351D01*
X76160857Y-39410491D01*
X76128781Y-39418525D01*
X76096071Y-39423377D01*
X76063044Y-39425000D01*
X74936956Y-39425000D01*
X74903929Y-39423377D01*
X74871219Y-39418525D01*
X74839143Y-39410491D01*
X74808009Y-39399351D01*
X74778116Y-39385213D01*
X74749753Y-39368213D01*
X74723193Y-39348515D01*
X74698692Y-39326308D01*
X74676485Y-39301807D01*
X74656787Y-39275247D01*
X74639787Y-39246884D01*
X74625649Y-39216991D01*
X74614509Y-39185857D01*
X74606475Y-39153781D01*
X74601623Y-39121071D01*
X74600000Y-39088044D01*
X74600000Y-38211956D01*
X74601623Y-38178929D01*
X74606475Y-38146219D01*
X74614509Y-38114143D01*
X74625649Y-38083009D01*
X74639787Y-38053116D01*
X74656787Y-38024753D01*
X74676485Y-37998193D01*
X74698692Y-37973692D01*
X74723193Y-37951485D01*
X74749753Y-37931787D01*
X74778116Y-37914787D01*
X74808009Y-37900649D01*
X74839143Y-37889509D01*
X74871219Y-37881475D01*
X74903929Y-37876623D01*
X74936956Y-37875000D01*
X76063044Y-37875000D01*
X76096071Y-37876623D01*
X76096071Y-37876623D01*
G37*
D15*
X75500000Y-38650000D03*
G04 #@! TD*
D10*
G04 #@! TO.C,R5*
G36*
X86096071Y-28876623D02*
X86128781Y-28881475D01*
X86160857Y-28889509D01*
X86191991Y-28900649D01*
X86221884Y-28914787D01*
X86250247Y-28931787D01*
X86276807Y-28951485D01*
X86301308Y-28973692D01*
X86323515Y-28998193D01*
X86343213Y-29024753D01*
X86360213Y-29053116D01*
X86374351Y-29083009D01*
X86385491Y-29114143D01*
X86393525Y-29146219D01*
X86398377Y-29178929D01*
X86400000Y-29211956D01*
X86400000Y-30088044D01*
X86398377Y-30121071D01*
X86393525Y-30153781D01*
X86385491Y-30185857D01*
X86374351Y-30216991D01*
X86360213Y-30246884D01*
X86343213Y-30275247D01*
X86323515Y-30301807D01*
X86301308Y-30326308D01*
X86276807Y-30348515D01*
X86250247Y-30368213D01*
X86221884Y-30385213D01*
X86191991Y-30399351D01*
X86160857Y-30410491D01*
X86128781Y-30418525D01*
X86096071Y-30423377D01*
X86063044Y-30425000D01*
X84936956Y-30425000D01*
X84903929Y-30423377D01*
X84871219Y-30418525D01*
X84839143Y-30410491D01*
X84808009Y-30399351D01*
X84778116Y-30385213D01*
X84749753Y-30368213D01*
X84723193Y-30348515D01*
X84698692Y-30326308D01*
X84676485Y-30301807D01*
X84656787Y-30275247D01*
X84639787Y-30246884D01*
X84625649Y-30216991D01*
X84614509Y-30185857D01*
X84606475Y-30153781D01*
X84601623Y-30121071D01*
X84600000Y-30088044D01*
X84600000Y-29211956D01*
X84601623Y-29178929D01*
X84606475Y-29146219D01*
X84614509Y-29114143D01*
X84625649Y-29083009D01*
X84639787Y-29053116D01*
X84656787Y-29024753D01*
X84676485Y-28998193D01*
X84698692Y-28973692D01*
X84723193Y-28951485D01*
X84749753Y-28931787D01*
X84778116Y-28914787D01*
X84808009Y-28900649D01*
X84839143Y-28889509D01*
X84871219Y-28881475D01*
X84903929Y-28876623D01*
X84936956Y-28875000D01*
X86063044Y-28875000D01*
X86096071Y-28876623D01*
X86096071Y-28876623D01*
G37*
D15*
X85500000Y-29650000D03*
D10*
G36*
X86096071Y-30576623D02*
X86128781Y-30581475D01*
X86160857Y-30589509D01*
X86191991Y-30600649D01*
X86221884Y-30614787D01*
X86250247Y-30631787D01*
X86276807Y-30651485D01*
X86301308Y-30673692D01*
X86323515Y-30698193D01*
X86343213Y-30724753D01*
X86360213Y-30753116D01*
X86374351Y-30783009D01*
X86385491Y-30814143D01*
X86393525Y-30846219D01*
X86398377Y-30878929D01*
X86400000Y-30911956D01*
X86400000Y-31788044D01*
X86398377Y-31821071D01*
X86393525Y-31853781D01*
X86385491Y-31885857D01*
X86374351Y-31916991D01*
X86360213Y-31946884D01*
X86343213Y-31975247D01*
X86323515Y-32001807D01*
X86301308Y-32026308D01*
X86276807Y-32048515D01*
X86250247Y-32068213D01*
X86221884Y-32085213D01*
X86191991Y-32099351D01*
X86160857Y-32110491D01*
X86128781Y-32118525D01*
X86096071Y-32123377D01*
X86063044Y-32125000D01*
X84936956Y-32125000D01*
X84903929Y-32123377D01*
X84871219Y-32118525D01*
X84839143Y-32110491D01*
X84808009Y-32099351D01*
X84778116Y-32085213D01*
X84749753Y-32068213D01*
X84723193Y-32048515D01*
X84698692Y-32026308D01*
X84676485Y-32001807D01*
X84656787Y-31975247D01*
X84639787Y-31946884D01*
X84625649Y-31916991D01*
X84614509Y-31885857D01*
X84606475Y-31853781D01*
X84601623Y-31821071D01*
X84600000Y-31788044D01*
X84600000Y-30911956D01*
X84601623Y-30878929D01*
X84606475Y-30846219D01*
X84614509Y-30814143D01*
X84625649Y-30783009D01*
X84639787Y-30753116D01*
X84656787Y-30724753D01*
X84676485Y-30698193D01*
X84698692Y-30673692D01*
X84723193Y-30651485D01*
X84749753Y-30631787D01*
X84778116Y-30614787D01*
X84808009Y-30600649D01*
X84839143Y-30589509D01*
X84871219Y-30581475D01*
X84903929Y-30576623D01*
X84936956Y-30575000D01*
X86063044Y-30575000D01*
X86096071Y-30576623D01*
X86096071Y-30576623D01*
G37*
D15*
X85500000Y-31350000D03*
G04 #@! TD*
D10*
G04 #@! TO.C,R4*
G36*
X83596071Y-30576623D02*
X83628781Y-30581475D01*
X83660857Y-30589509D01*
X83691991Y-30600649D01*
X83721884Y-30614787D01*
X83750247Y-30631787D01*
X83776807Y-30651485D01*
X83801308Y-30673692D01*
X83823515Y-30698193D01*
X83843213Y-30724753D01*
X83860213Y-30753116D01*
X83874351Y-30783009D01*
X83885491Y-30814143D01*
X83893525Y-30846219D01*
X83898377Y-30878929D01*
X83900000Y-30911956D01*
X83900000Y-31788044D01*
X83898377Y-31821071D01*
X83893525Y-31853781D01*
X83885491Y-31885857D01*
X83874351Y-31916991D01*
X83860213Y-31946884D01*
X83843213Y-31975247D01*
X83823515Y-32001807D01*
X83801308Y-32026308D01*
X83776807Y-32048515D01*
X83750247Y-32068213D01*
X83721884Y-32085213D01*
X83691991Y-32099351D01*
X83660857Y-32110491D01*
X83628781Y-32118525D01*
X83596071Y-32123377D01*
X83563044Y-32125000D01*
X82436956Y-32125000D01*
X82403929Y-32123377D01*
X82371219Y-32118525D01*
X82339143Y-32110491D01*
X82308009Y-32099351D01*
X82278116Y-32085213D01*
X82249753Y-32068213D01*
X82223193Y-32048515D01*
X82198692Y-32026308D01*
X82176485Y-32001807D01*
X82156787Y-31975247D01*
X82139787Y-31946884D01*
X82125649Y-31916991D01*
X82114509Y-31885857D01*
X82106475Y-31853781D01*
X82101623Y-31821071D01*
X82100000Y-31788044D01*
X82100000Y-30911956D01*
X82101623Y-30878929D01*
X82106475Y-30846219D01*
X82114509Y-30814143D01*
X82125649Y-30783009D01*
X82139787Y-30753116D01*
X82156787Y-30724753D01*
X82176485Y-30698193D01*
X82198692Y-30673692D01*
X82223193Y-30651485D01*
X82249753Y-30631787D01*
X82278116Y-30614787D01*
X82308009Y-30600649D01*
X82339143Y-30589509D01*
X82371219Y-30581475D01*
X82403929Y-30576623D01*
X82436956Y-30575000D01*
X83563044Y-30575000D01*
X83596071Y-30576623D01*
X83596071Y-30576623D01*
G37*
D15*
X83000000Y-31350000D03*
D10*
G36*
X83596071Y-28876623D02*
X83628781Y-28881475D01*
X83660857Y-28889509D01*
X83691991Y-28900649D01*
X83721884Y-28914787D01*
X83750247Y-28931787D01*
X83776807Y-28951485D01*
X83801308Y-28973692D01*
X83823515Y-28998193D01*
X83843213Y-29024753D01*
X83860213Y-29053116D01*
X83874351Y-29083009D01*
X83885491Y-29114143D01*
X83893525Y-29146219D01*
X83898377Y-29178929D01*
X83900000Y-29211956D01*
X83900000Y-30088044D01*
X83898377Y-30121071D01*
X83893525Y-30153781D01*
X83885491Y-30185857D01*
X83874351Y-30216991D01*
X83860213Y-30246884D01*
X83843213Y-30275247D01*
X83823515Y-30301807D01*
X83801308Y-30326308D01*
X83776807Y-30348515D01*
X83750247Y-30368213D01*
X83721884Y-30385213D01*
X83691991Y-30399351D01*
X83660857Y-30410491D01*
X83628781Y-30418525D01*
X83596071Y-30423377D01*
X83563044Y-30425000D01*
X82436956Y-30425000D01*
X82403929Y-30423377D01*
X82371219Y-30418525D01*
X82339143Y-30410491D01*
X82308009Y-30399351D01*
X82278116Y-30385213D01*
X82249753Y-30368213D01*
X82223193Y-30348515D01*
X82198692Y-30326308D01*
X82176485Y-30301807D01*
X82156787Y-30275247D01*
X82139787Y-30246884D01*
X82125649Y-30216991D01*
X82114509Y-30185857D01*
X82106475Y-30153781D01*
X82101623Y-30121071D01*
X82100000Y-30088044D01*
X82100000Y-29211956D01*
X82101623Y-29178929D01*
X82106475Y-29146219D01*
X82114509Y-29114143D01*
X82125649Y-29083009D01*
X82139787Y-29053116D01*
X82156787Y-29024753D01*
X82176485Y-28998193D01*
X82198692Y-28973692D01*
X82223193Y-28951485D01*
X82249753Y-28931787D01*
X82278116Y-28914787D01*
X82308009Y-28900649D01*
X82339143Y-28889509D01*
X82371219Y-28881475D01*
X82403929Y-28876623D01*
X82436956Y-28875000D01*
X83563044Y-28875000D01*
X83596071Y-28876623D01*
X83596071Y-28876623D01*
G37*
D15*
X83000000Y-29650000D03*
G04 #@! TD*
D10*
G04 #@! TO.C,R14*
G36*
X86096071Y-37876623D02*
X86128781Y-37881475D01*
X86160857Y-37889509D01*
X86191991Y-37900649D01*
X86221884Y-37914787D01*
X86250247Y-37931787D01*
X86276807Y-37951485D01*
X86301308Y-37973692D01*
X86323515Y-37998193D01*
X86343213Y-38024753D01*
X86360213Y-38053116D01*
X86374351Y-38083009D01*
X86385491Y-38114143D01*
X86393525Y-38146219D01*
X86398377Y-38178929D01*
X86400000Y-38211956D01*
X86400000Y-39088044D01*
X86398377Y-39121071D01*
X86393525Y-39153781D01*
X86385491Y-39185857D01*
X86374351Y-39216991D01*
X86360213Y-39246884D01*
X86343213Y-39275247D01*
X86323515Y-39301807D01*
X86301308Y-39326308D01*
X86276807Y-39348515D01*
X86250247Y-39368213D01*
X86221884Y-39385213D01*
X86191991Y-39399351D01*
X86160857Y-39410491D01*
X86128781Y-39418525D01*
X86096071Y-39423377D01*
X86063044Y-39425000D01*
X84936956Y-39425000D01*
X84903929Y-39423377D01*
X84871219Y-39418525D01*
X84839143Y-39410491D01*
X84808009Y-39399351D01*
X84778116Y-39385213D01*
X84749753Y-39368213D01*
X84723193Y-39348515D01*
X84698692Y-39326308D01*
X84676485Y-39301807D01*
X84656787Y-39275247D01*
X84639787Y-39246884D01*
X84625649Y-39216991D01*
X84614509Y-39185857D01*
X84606475Y-39153781D01*
X84601623Y-39121071D01*
X84600000Y-39088044D01*
X84600000Y-38211956D01*
X84601623Y-38178929D01*
X84606475Y-38146219D01*
X84614509Y-38114143D01*
X84625649Y-38083009D01*
X84639787Y-38053116D01*
X84656787Y-38024753D01*
X84676485Y-37998193D01*
X84698692Y-37973692D01*
X84723193Y-37951485D01*
X84749753Y-37931787D01*
X84778116Y-37914787D01*
X84808009Y-37900649D01*
X84839143Y-37889509D01*
X84871219Y-37881475D01*
X84903929Y-37876623D01*
X84936956Y-37875000D01*
X86063044Y-37875000D01*
X86096071Y-37876623D01*
X86096071Y-37876623D01*
G37*
D15*
X85500000Y-38650000D03*
D10*
G36*
X86096071Y-39576623D02*
X86128781Y-39581475D01*
X86160857Y-39589509D01*
X86191991Y-39600649D01*
X86221884Y-39614787D01*
X86250247Y-39631787D01*
X86276807Y-39651485D01*
X86301308Y-39673692D01*
X86323515Y-39698193D01*
X86343213Y-39724753D01*
X86360213Y-39753116D01*
X86374351Y-39783009D01*
X86385491Y-39814143D01*
X86393525Y-39846219D01*
X86398377Y-39878929D01*
X86400000Y-39911956D01*
X86400000Y-40788044D01*
X86398377Y-40821071D01*
X86393525Y-40853781D01*
X86385491Y-40885857D01*
X86374351Y-40916991D01*
X86360213Y-40946884D01*
X86343213Y-40975247D01*
X86323515Y-41001807D01*
X86301308Y-41026308D01*
X86276807Y-41048515D01*
X86250247Y-41068213D01*
X86221884Y-41085213D01*
X86191991Y-41099351D01*
X86160857Y-41110491D01*
X86128781Y-41118525D01*
X86096071Y-41123377D01*
X86063044Y-41125000D01*
X84936956Y-41125000D01*
X84903929Y-41123377D01*
X84871219Y-41118525D01*
X84839143Y-41110491D01*
X84808009Y-41099351D01*
X84778116Y-41085213D01*
X84749753Y-41068213D01*
X84723193Y-41048515D01*
X84698692Y-41026308D01*
X84676485Y-41001807D01*
X84656787Y-40975247D01*
X84639787Y-40946884D01*
X84625649Y-40916991D01*
X84614509Y-40885857D01*
X84606475Y-40853781D01*
X84601623Y-40821071D01*
X84600000Y-40788044D01*
X84600000Y-39911956D01*
X84601623Y-39878929D01*
X84606475Y-39846219D01*
X84614509Y-39814143D01*
X84625649Y-39783009D01*
X84639787Y-39753116D01*
X84656787Y-39724753D01*
X84676485Y-39698193D01*
X84698692Y-39673692D01*
X84723193Y-39651485D01*
X84749753Y-39631787D01*
X84778116Y-39614787D01*
X84808009Y-39600649D01*
X84839143Y-39589509D01*
X84871219Y-39581475D01*
X84903929Y-39576623D01*
X84936956Y-39575000D01*
X86063044Y-39575000D01*
X86096071Y-39576623D01*
X86096071Y-39576623D01*
G37*
D15*
X85500000Y-40350000D03*
G04 #@! TD*
D10*
G04 #@! TO.C,R2*
G36*
X78596071Y-30576623D02*
X78628781Y-30581475D01*
X78660857Y-30589509D01*
X78691991Y-30600649D01*
X78721884Y-30614787D01*
X78750247Y-30631787D01*
X78776807Y-30651485D01*
X78801308Y-30673692D01*
X78823515Y-30698193D01*
X78843213Y-30724753D01*
X78860213Y-30753116D01*
X78874351Y-30783009D01*
X78885491Y-30814143D01*
X78893525Y-30846219D01*
X78898377Y-30878929D01*
X78900000Y-30911956D01*
X78900000Y-31788044D01*
X78898377Y-31821071D01*
X78893525Y-31853781D01*
X78885491Y-31885857D01*
X78874351Y-31916991D01*
X78860213Y-31946884D01*
X78843213Y-31975247D01*
X78823515Y-32001807D01*
X78801308Y-32026308D01*
X78776807Y-32048515D01*
X78750247Y-32068213D01*
X78721884Y-32085213D01*
X78691991Y-32099351D01*
X78660857Y-32110491D01*
X78628781Y-32118525D01*
X78596071Y-32123377D01*
X78563044Y-32125000D01*
X77436956Y-32125000D01*
X77403929Y-32123377D01*
X77371219Y-32118525D01*
X77339143Y-32110491D01*
X77308009Y-32099351D01*
X77278116Y-32085213D01*
X77249753Y-32068213D01*
X77223193Y-32048515D01*
X77198692Y-32026308D01*
X77176485Y-32001807D01*
X77156787Y-31975247D01*
X77139787Y-31946884D01*
X77125649Y-31916991D01*
X77114509Y-31885857D01*
X77106475Y-31853781D01*
X77101623Y-31821071D01*
X77100000Y-31788044D01*
X77100000Y-30911956D01*
X77101623Y-30878929D01*
X77106475Y-30846219D01*
X77114509Y-30814143D01*
X77125649Y-30783009D01*
X77139787Y-30753116D01*
X77156787Y-30724753D01*
X77176485Y-30698193D01*
X77198692Y-30673692D01*
X77223193Y-30651485D01*
X77249753Y-30631787D01*
X77278116Y-30614787D01*
X77308009Y-30600649D01*
X77339143Y-30589509D01*
X77371219Y-30581475D01*
X77403929Y-30576623D01*
X77436956Y-30575000D01*
X78563044Y-30575000D01*
X78596071Y-30576623D01*
X78596071Y-30576623D01*
G37*
D15*
X78000000Y-31350000D03*
D10*
G36*
X78596071Y-28876623D02*
X78628781Y-28881475D01*
X78660857Y-28889509D01*
X78691991Y-28900649D01*
X78721884Y-28914787D01*
X78750247Y-28931787D01*
X78776807Y-28951485D01*
X78801308Y-28973692D01*
X78823515Y-28998193D01*
X78843213Y-29024753D01*
X78860213Y-29053116D01*
X78874351Y-29083009D01*
X78885491Y-29114143D01*
X78893525Y-29146219D01*
X78898377Y-29178929D01*
X78900000Y-29211956D01*
X78900000Y-30088044D01*
X78898377Y-30121071D01*
X78893525Y-30153781D01*
X78885491Y-30185857D01*
X78874351Y-30216991D01*
X78860213Y-30246884D01*
X78843213Y-30275247D01*
X78823515Y-30301807D01*
X78801308Y-30326308D01*
X78776807Y-30348515D01*
X78750247Y-30368213D01*
X78721884Y-30385213D01*
X78691991Y-30399351D01*
X78660857Y-30410491D01*
X78628781Y-30418525D01*
X78596071Y-30423377D01*
X78563044Y-30425000D01*
X77436956Y-30425000D01*
X77403929Y-30423377D01*
X77371219Y-30418525D01*
X77339143Y-30410491D01*
X77308009Y-30399351D01*
X77278116Y-30385213D01*
X77249753Y-30368213D01*
X77223193Y-30348515D01*
X77198692Y-30326308D01*
X77176485Y-30301807D01*
X77156787Y-30275247D01*
X77139787Y-30246884D01*
X77125649Y-30216991D01*
X77114509Y-30185857D01*
X77106475Y-30153781D01*
X77101623Y-30121071D01*
X77100000Y-30088044D01*
X77100000Y-29211956D01*
X77101623Y-29178929D01*
X77106475Y-29146219D01*
X77114509Y-29114143D01*
X77125649Y-29083009D01*
X77139787Y-29053116D01*
X77156787Y-29024753D01*
X77176485Y-28998193D01*
X77198692Y-28973692D01*
X77223193Y-28951485D01*
X77249753Y-28931787D01*
X77278116Y-28914787D01*
X77308009Y-28900649D01*
X77339143Y-28889509D01*
X77371219Y-28881475D01*
X77403929Y-28876623D01*
X77436956Y-28875000D01*
X78563044Y-28875000D01*
X78596071Y-28876623D01*
X78596071Y-28876623D01*
G37*
D15*
X78000000Y-29650000D03*
G04 #@! TD*
D10*
G04 #@! TO.C,R6*
G36*
X88596071Y-28876623D02*
X88628781Y-28881475D01*
X88660857Y-28889509D01*
X88691991Y-28900649D01*
X88721884Y-28914787D01*
X88750247Y-28931787D01*
X88776807Y-28951485D01*
X88801308Y-28973692D01*
X88823515Y-28998193D01*
X88843213Y-29024753D01*
X88860213Y-29053116D01*
X88874351Y-29083009D01*
X88885491Y-29114143D01*
X88893525Y-29146219D01*
X88898377Y-29178929D01*
X88900000Y-29211956D01*
X88900000Y-30088044D01*
X88898377Y-30121071D01*
X88893525Y-30153781D01*
X88885491Y-30185857D01*
X88874351Y-30216991D01*
X88860213Y-30246884D01*
X88843213Y-30275247D01*
X88823515Y-30301807D01*
X88801308Y-30326308D01*
X88776807Y-30348515D01*
X88750247Y-30368213D01*
X88721884Y-30385213D01*
X88691991Y-30399351D01*
X88660857Y-30410491D01*
X88628781Y-30418525D01*
X88596071Y-30423377D01*
X88563044Y-30425000D01*
X87436956Y-30425000D01*
X87403929Y-30423377D01*
X87371219Y-30418525D01*
X87339143Y-30410491D01*
X87308009Y-30399351D01*
X87278116Y-30385213D01*
X87249753Y-30368213D01*
X87223193Y-30348515D01*
X87198692Y-30326308D01*
X87176485Y-30301807D01*
X87156787Y-30275247D01*
X87139787Y-30246884D01*
X87125649Y-30216991D01*
X87114509Y-30185857D01*
X87106475Y-30153781D01*
X87101623Y-30121071D01*
X87100000Y-30088044D01*
X87100000Y-29211956D01*
X87101623Y-29178929D01*
X87106475Y-29146219D01*
X87114509Y-29114143D01*
X87125649Y-29083009D01*
X87139787Y-29053116D01*
X87156787Y-29024753D01*
X87176485Y-28998193D01*
X87198692Y-28973692D01*
X87223193Y-28951485D01*
X87249753Y-28931787D01*
X87278116Y-28914787D01*
X87308009Y-28900649D01*
X87339143Y-28889509D01*
X87371219Y-28881475D01*
X87403929Y-28876623D01*
X87436956Y-28875000D01*
X88563044Y-28875000D01*
X88596071Y-28876623D01*
X88596071Y-28876623D01*
G37*
D15*
X88000000Y-29650000D03*
D10*
G36*
X88596071Y-30576623D02*
X88628781Y-30581475D01*
X88660857Y-30589509D01*
X88691991Y-30600649D01*
X88721884Y-30614787D01*
X88750247Y-30631787D01*
X88776807Y-30651485D01*
X88801308Y-30673692D01*
X88823515Y-30698193D01*
X88843213Y-30724753D01*
X88860213Y-30753116D01*
X88874351Y-30783009D01*
X88885491Y-30814143D01*
X88893525Y-30846219D01*
X88898377Y-30878929D01*
X88900000Y-30911956D01*
X88900000Y-31788044D01*
X88898377Y-31821071D01*
X88893525Y-31853781D01*
X88885491Y-31885857D01*
X88874351Y-31916991D01*
X88860213Y-31946884D01*
X88843213Y-31975247D01*
X88823515Y-32001807D01*
X88801308Y-32026308D01*
X88776807Y-32048515D01*
X88750247Y-32068213D01*
X88721884Y-32085213D01*
X88691991Y-32099351D01*
X88660857Y-32110491D01*
X88628781Y-32118525D01*
X88596071Y-32123377D01*
X88563044Y-32125000D01*
X87436956Y-32125000D01*
X87403929Y-32123377D01*
X87371219Y-32118525D01*
X87339143Y-32110491D01*
X87308009Y-32099351D01*
X87278116Y-32085213D01*
X87249753Y-32068213D01*
X87223193Y-32048515D01*
X87198692Y-32026308D01*
X87176485Y-32001807D01*
X87156787Y-31975247D01*
X87139787Y-31946884D01*
X87125649Y-31916991D01*
X87114509Y-31885857D01*
X87106475Y-31853781D01*
X87101623Y-31821071D01*
X87100000Y-31788044D01*
X87100000Y-30911956D01*
X87101623Y-30878929D01*
X87106475Y-30846219D01*
X87114509Y-30814143D01*
X87125649Y-30783009D01*
X87139787Y-30753116D01*
X87156787Y-30724753D01*
X87176485Y-30698193D01*
X87198692Y-30673692D01*
X87223193Y-30651485D01*
X87249753Y-30631787D01*
X87278116Y-30614787D01*
X87308009Y-30600649D01*
X87339143Y-30589509D01*
X87371219Y-30581475D01*
X87403929Y-30576623D01*
X87436956Y-30575000D01*
X88563044Y-30575000D01*
X88596071Y-30576623D01*
X88596071Y-30576623D01*
G37*
D15*
X88000000Y-31350000D03*
G04 #@! TD*
D10*
G04 #@! TO.C,R15*
G36*
X88596071Y-39576623D02*
X88628781Y-39581475D01*
X88660857Y-39589509D01*
X88691991Y-39600649D01*
X88721884Y-39614787D01*
X88750247Y-39631787D01*
X88776807Y-39651485D01*
X88801308Y-39673692D01*
X88823515Y-39698193D01*
X88843213Y-39724753D01*
X88860213Y-39753116D01*
X88874351Y-39783009D01*
X88885491Y-39814143D01*
X88893525Y-39846219D01*
X88898377Y-39878929D01*
X88900000Y-39911956D01*
X88900000Y-40788044D01*
X88898377Y-40821071D01*
X88893525Y-40853781D01*
X88885491Y-40885857D01*
X88874351Y-40916991D01*
X88860213Y-40946884D01*
X88843213Y-40975247D01*
X88823515Y-41001807D01*
X88801308Y-41026308D01*
X88776807Y-41048515D01*
X88750247Y-41068213D01*
X88721884Y-41085213D01*
X88691991Y-41099351D01*
X88660857Y-41110491D01*
X88628781Y-41118525D01*
X88596071Y-41123377D01*
X88563044Y-41125000D01*
X87436956Y-41125000D01*
X87403929Y-41123377D01*
X87371219Y-41118525D01*
X87339143Y-41110491D01*
X87308009Y-41099351D01*
X87278116Y-41085213D01*
X87249753Y-41068213D01*
X87223193Y-41048515D01*
X87198692Y-41026308D01*
X87176485Y-41001807D01*
X87156787Y-40975247D01*
X87139787Y-40946884D01*
X87125649Y-40916991D01*
X87114509Y-40885857D01*
X87106475Y-40853781D01*
X87101623Y-40821071D01*
X87100000Y-40788044D01*
X87100000Y-39911956D01*
X87101623Y-39878929D01*
X87106475Y-39846219D01*
X87114509Y-39814143D01*
X87125649Y-39783009D01*
X87139787Y-39753116D01*
X87156787Y-39724753D01*
X87176485Y-39698193D01*
X87198692Y-39673692D01*
X87223193Y-39651485D01*
X87249753Y-39631787D01*
X87278116Y-39614787D01*
X87308009Y-39600649D01*
X87339143Y-39589509D01*
X87371219Y-39581475D01*
X87403929Y-39576623D01*
X87436956Y-39575000D01*
X88563044Y-39575000D01*
X88596071Y-39576623D01*
X88596071Y-39576623D01*
G37*
D15*
X88000000Y-40350000D03*
D10*
G36*
X88596071Y-37876623D02*
X88628781Y-37881475D01*
X88660857Y-37889509D01*
X88691991Y-37900649D01*
X88721884Y-37914787D01*
X88750247Y-37931787D01*
X88776807Y-37951485D01*
X88801308Y-37973692D01*
X88823515Y-37998193D01*
X88843213Y-38024753D01*
X88860213Y-38053116D01*
X88874351Y-38083009D01*
X88885491Y-38114143D01*
X88893525Y-38146219D01*
X88898377Y-38178929D01*
X88900000Y-38211956D01*
X88900000Y-39088044D01*
X88898377Y-39121071D01*
X88893525Y-39153781D01*
X88885491Y-39185857D01*
X88874351Y-39216991D01*
X88860213Y-39246884D01*
X88843213Y-39275247D01*
X88823515Y-39301807D01*
X88801308Y-39326308D01*
X88776807Y-39348515D01*
X88750247Y-39368213D01*
X88721884Y-39385213D01*
X88691991Y-39399351D01*
X88660857Y-39410491D01*
X88628781Y-39418525D01*
X88596071Y-39423377D01*
X88563044Y-39425000D01*
X87436956Y-39425000D01*
X87403929Y-39423377D01*
X87371219Y-39418525D01*
X87339143Y-39410491D01*
X87308009Y-39399351D01*
X87278116Y-39385213D01*
X87249753Y-39368213D01*
X87223193Y-39348515D01*
X87198692Y-39326308D01*
X87176485Y-39301807D01*
X87156787Y-39275247D01*
X87139787Y-39246884D01*
X87125649Y-39216991D01*
X87114509Y-39185857D01*
X87106475Y-39153781D01*
X87101623Y-39121071D01*
X87100000Y-39088044D01*
X87100000Y-38211956D01*
X87101623Y-38178929D01*
X87106475Y-38146219D01*
X87114509Y-38114143D01*
X87125649Y-38083009D01*
X87139787Y-38053116D01*
X87156787Y-38024753D01*
X87176485Y-37998193D01*
X87198692Y-37973692D01*
X87223193Y-37951485D01*
X87249753Y-37931787D01*
X87278116Y-37914787D01*
X87308009Y-37900649D01*
X87339143Y-37889509D01*
X87371219Y-37881475D01*
X87403929Y-37876623D01*
X87436956Y-37875000D01*
X88563044Y-37875000D01*
X88596071Y-37876623D01*
X88596071Y-37876623D01*
G37*
D15*
X88000000Y-38650000D03*
G04 #@! TD*
D10*
G04 #@! TO.C,R1*
G36*
X76096071Y-28876623D02*
X76128781Y-28881475D01*
X76160857Y-28889509D01*
X76191991Y-28900649D01*
X76221884Y-28914787D01*
X76250247Y-28931787D01*
X76276807Y-28951485D01*
X76301308Y-28973692D01*
X76323515Y-28998193D01*
X76343213Y-29024753D01*
X76360213Y-29053116D01*
X76374351Y-29083009D01*
X76385491Y-29114143D01*
X76393525Y-29146219D01*
X76398377Y-29178929D01*
X76400000Y-29211956D01*
X76400000Y-30088044D01*
X76398377Y-30121071D01*
X76393525Y-30153781D01*
X76385491Y-30185857D01*
X76374351Y-30216991D01*
X76360213Y-30246884D01*
X76343213Y-30275247D01*
X76323515Y-30301807D01*
X76301308Y-30326308D01*
X76276807Y-30348515D01*
X76250247Y-30368213D01*
X76221884Y-30385213D01*
X76191991Y-30399351D01*
X76160857Y-30410491D01*
X76128781Y-30418525D01*
X76096071Y-30423377D01*
X76063044Y-30425000D01*
X74936956Y-30425000D01*
X74903929Y-30423377D01*
X74871219Y-30418525D01*
X74839143Y-30410491D01*
X74808009Y-30399351D01*
X74778116Y-30385213D01*
X74749753Y-30368213D01*
X74723193Y-30348515D01*
X74698692Y-30326308D01*
X74676485Y-30301807D01*
X74656787Y-30275247D01*
X74639787Y-30246884D01*
X74625649Y-30216991D01*
X74614509Y-30185857D01*
X74606475Y-30153781D01*
X74601623Y-30121071D01*
X74600000Y-30088044D01*
X74600000Y-29211956D01*
X74601623Y-29178929D01*
X74606475Y-29146219D01*
X74614509Y-29114143D01*
X74625649Y-29083009D01*
X74639787Y-29053116D01*
X74656787Y-29024753D01*
X74676485Y-28998193D01*
X74698692Y-28973692D01*
X74723193Y-28951485D01*
X74749753Y-28931787D01*
X74778116Y-28914787D01*
X74808009Y-28900649D01*
X74839143Y-28889509D01*
X74871219Y-28881475D01*
X74903929Y-28876623D01*
X74936956Y-28875000D01*
X76063044Y-28875000D01*
X76096071Y-28876623D01*
X76096071Y-28876623D01*
G37*
D15*
X75500000Y-29650000D03*
D10*
G36*
X76096071Y-30576623D02*
X76128781Y-30581475D01*
X76160857Y-30589509D01*
X76191991Y-30600649D01*
X76221884Y-30614787D01*
X76250247Y-30631787D01*
X76276807Y-30651485D01*
X76301308Y-30673692D01*
X76323515Y-30698193D01*
X76343213Y-30724753D01*
X76360213Y-30753116D01*
X76374351Y-30783009D01*
X76385491Y-30814143D01*
X76393525Y-30846219D01*
X76398377Y-30878929D01*
X76400000Y-30911956D01*
X76400000Y-31788044D01*
X76398377Y-31821071D01*
X76393525Y-31853781D01*
X76385491Y-31885857D01*
X76374351Y-31916991D01*
X76360213Y-31946884D01*
X76343213Y-31975247D01*
X76323515Y-32001807D01*
X76301308Y-32026308D01*
X76276807Y-32048515D01*
X76250247Y-32068213D01*
X76221884Y-32085213D01*
X76191991Y-32099351D01*
X76160857Y-32110491D01*
X76128781Y-32118525D01*
X76096071Y-32123377D01*
X76063044Y-32125000D01*
X74936956Y-32125000D01*
X74903929Y-32123377D01*
X74871219Y-32118525D01*
X74839143Y-32110491D01*
X74808009Y-32099351D01*
X74778116Y-32085213D01*
X74749753Y-32068213D01*
X74723193Y-32048515D01*
X74698692Y-32026308D01*
X74676485Y-32001807D01*
X74656787Y-31975247D01*
X74639787Y-31946884D01*
X74625649Y-31916991D01*
X74614509Y-31885857D01*
X74606475Y-31853781D01*
X74601623Y-31821071D01*
X74600000Y-31788044D01*
X74600000Y-30911956D01*
X74601623Y-30878929D01*
X74606475Y-30846219D01*
X74614509Y-30814143D01*
X74625649Y-30783009D01*
X74639787Y-30753116D01*
X74656787Y-30724753D01*
X74676485Y-30698193D01*
X74698692Y-30673692D01*
X74723193Y-30651485D01*
X74749753Y-30631787D01*
X74778116Y-30614787D01*
X74808009Y-30600649D01*
X74839143Y-30589509D01*
X74871219Y-30581475D01*
X74903929Y-30576623D01*
X74936956Y-30575000D01*
X76063044Y-30575000D01*
X76096071Y-30576623D01*
X76096071Y-30576623D01*
G37*
D15*
X75500000Y-31350000D03*
G04 #@! TD*
D10*
G04 #@! TO.C,R3*
G36*
X81096071Y-30576623D02*
X81128781Y-30581475D01*
X81160857Y-30589509D01*
X81191991Y-30600649D01*
X81221884Y-30614787D01*
X81250247Y-30631787D01*
X81276807Y-30651485D01*
X81301308Y-30673692D01*
X81323515Y-30698193D01*
X81343213Y-30724753D01*
X81360213Y-30753116D01*
X81374351Y-30783009D01*
X81385491Y-30814143D01*
X81393525Y-30846219D01*
X81398377Y-30878929D01*
X81400000Y-30911956D01*
X81400000Y-31788044D01*
X81398377Y-31821071D01*
X81393525Y-31853781D01*
X81385491Y-31885857D01*
X81374351Y-31916991D01*
X81360213Y-31946884D01*
X81343213Y-31975247D01*
X81323515Y-32001807D01*
X81301308Y-32026308D01*
X81276807Y-32048515D01*
X81250247Y-32068213D01*
X81221884Y-32085213D01*
X81191991Y-32099351D01*
X81160857Y-32110491D01*
X81128781Y-32118525D01*
X81096071Y-32123377D01*
X81063044Y-32125000D01*
X79936956Y-32125000D01*
X79903929Y-32123377D01*
X79871219Y-32118525D01*
X79839143Y-32110491D01*
X79808009Y-32099351D01*
X79778116Y-32085213D01*
X79749753Y-32068213D01*
X79723193Y-32048515D01*
X79698692Y-32026308D01*
X79676485Y-32001807D01*
X79656787Y-31975247D01*
X79639787Y-31946884D01*
X79625649Y-31916991D01*
X79614509Y-31885857D01*
X79606475Y-31853781D01*
X79601623Y-31821071D01*
X79600000Y-31788044D01*
X79600000Y-30911956D01*
X79601623Y-30878929D01*
X79606475Y-30846219D01*
X79614509Y-30814143D01*
X79625649Y-30783009D01*
X79639787Y-30753116D01*
X79656787Y-30724753D01*
X79676485Y-30698193D01*
X79698692Y-30673692D01*
X79723193Y-30651485D01*
X79749753Y-30631787D01*
X79778116Y-30614787D01*
X79808009Y-30600649D01*
X79839143Y-30589509D01*
X79871219Y-30581475D01*
X79903929Y-30576623D01*
X79936956Y-30575000D01*
X81063044Y-30575000D01*
X81096071Y-30576623D01*
X81096071Y-30576623D01*
G37*
D15*
X80500000Y-31350000D03*
D10*
G36*
X81096071Y-28876623D02*
X81128781Y-28881475D01*
X81160857Y-28889509D01*
X81191991Y-28900649D01*
X81221884Y-28914787D01*
X81250247Y-28931787D01*
X81276807Y-28951485D01*
X81301308Y-28973692D01*
X81323515Y-28998193D01*
X81343213Y-29024753D01*
X81360213Y-29053116D01*
X81374351Y-29083009D01*
X81385491Y-29114143D01*
X81393525Y-29146219D01*
X81398377Y-29178929D01*
X81400000Y-29211956D01*
X81400000Y-30088044D01*
X81398377Y-30121071D01*
X81393525Y-30153781D01*
X81385491Y-30185857D01*
X81374351Y-30216991D01*
X81360213Y-30246884D01*
X81343213Y-30275247D01*
X81323515Y-30301807D01*
X81301308Y-30326308D01*
X81276807Y-30348515D01*
X81250247Y-30368213D01*
X81221884Y-30385213D01*
X81191991Y-30399351D01*
X81160857Y-30410491D01*
X81128781Y-30418525D01*
X81096071Y-30423377D01*
X81063044Y-30425000D01*
X79936956Y-30425000D01*
X79903929Y-30423377D01*
X79871219Y-30418525D01*
X79839143Y-30410491D01*
X79808009Y-30399351D01*
X79778116Y-30385213D01*
X79749753Y-30368213D01*
X79723193Y-30348515D01*
X79698692Y-30326308D01*
X79676485Y-30301807D01*
X79656787Y-30275247D01*
X79639787Y-30246884D01*
X79625649Y-30216991D01*
X79614509Y-30185857D01*
X79606475Y-30153781D01*
X79601623Y-30121071D01*
X79600000Y-30088044D01*
X79600000Y-29211956D01*
X79601623Y-29178929D01*
X79606475Y-29146219D01*
X79614509Y-29114143D01*
X79625649Y-29083009D01*
X79639787Y-29053116D01*
X79656787Y-29024753D01*
X79676485Y-28998193D01*
X79698692Y-28973692D01*
X79723193Y-28951485D01*
X79749753Y-28931787D01*
X79778116Y-28914787D01*
X79808009Y-28900649D01*
X79839143Y-28889509D01*
X79871219Y-28881475D01*
X79903929Y-28876623D01*
X79936956Y-28875000D01*
X81063044Y-28875000D01*
X81096071Y-28876623D01*
X81096071Y-28876623D01*
G37*
D15*
X80500000Y-29650000D03*
G04 #@! TD*
D14*
G04 #@! TO.C,J3*
X64000000Y-31000000D03*
X65270000Y-31000000D03*
X66540000Y-31000000D03*
X67810000Y-31000000D03*
G04 #@! TD*
D16*
G04 #@! TO.C,J4*
X67500000Y-27000000D03*
X66500000Y-27000000D03*
X65500000Y-27000000D03*
X64500000Y-27000000D03*
G04 #@! TD*
G04 #@! TO.C,J6*
X64500000Y-35000000D03*
X65500000Y-35000000D03*
X66500000Y-35000000D03*
X67500000Y-35000000D03*
G04 #@! TD*
D17*
G04 #@! TO.C,J2*
X46000000Y-42500000D03*
X48540000Y-42500000D03*
D18*
X51080000Y-42500000D03*
D10*
G36*
X52130000Y-43550000D02*
X50030000Y-43550000D01*
X50030000Y-41450000D01*
X52130000Y-41450000D01*
X52130000Y-43550000D01*
X52130000Y-43550000D01*
G37*
D17*
X53620000Y-42500000D03*
X56160000Y-42500000D03*
G04 #@! TD*
G04 #@! TO.C,J1*
X56040000Y-27500000D03*
X53500000Y-27500000D03*
X50960000Y-27500000D03*
X48420000Y-27500000D03*
X45880000Y-27500000D03*
G04 #@! TD*
D10*
G04 #@! TO.C,R12*
G36*
X43596071Y-33376623D02*
X43628781Y-33381475D01*
X43660857Y-33389509D01*
X43691991Y-33400649D01*
X43721884Y-33414787D01*
X43750247Y-33431787D01*
X43776807Y-33451485D01*
X43801308Y-33473692D01*
X43823515Y-33498193D01*
X43843213Y-33524753D01*
X43860213Y-33553116D01*
X43874351Y-33583009D01*
X43885491Y-33614143D01*
X43893525Y-33646219D01*
X43898377Y-33678929D01*
X43900000Y-33711956D01*
X43900000Y-34588044D01*
X43898377Y-34621071D01*
X43893525Y-34653781D01*
X43885491Y-34685857D01*
X43874351Y-34716991D01*
X43860213Y-34746884D01*
X43843213Y-34775247D01*
X43823515Y-34801807D01*
X43801308Y-34826308D01*
X43776807Y-34848515D01*
X43750247Y-34868213D01*
X43721884Y-34885213D01*
X43691991Y-34899351D01*
X43660857Y-34910491D01*
X43628781Y-34918525D01*
X43596071Y-34923377D01*
X43563044Y-34925000D01*
X42436956Y-34925000D01*
X42403929Y-34923377D01*
X42371219Y-34918525D01*
X42339143Y-34910491D01*
X42308009Y-34899351D01*
X42278116Y-34885213D01*
X42249753Y-34868213D01*
X42223193Y-34848515D01*
X42198692Y-34826308D01*
X42176485Y-34801807D01*
X42156787Y-34775247D01*
X42139787Y-34746884D01*
X42125649Y-34716991D01*
X42114509Y-34685857D01*
X42106475Y-34653781D01*
X42101623Y-34621071D01*
X42100000Y-34588044D01*
X42100000Y-33711956D01*
X42101623Y-33678929D01*
X42106475Y-33646219D01*
X42114509Y-33614143D01*
X42125649Y-33583009D01*
X42139787Y-33553116D01*
X42156787Y-33524753D01*
X42176485Y-33498193D01*
X42198692Y-33473692D01*
X42223193Y-33451485D01*
X42249753Y-33431787D01*
X42278116Y-33414787D01*
X42308009Y-33400649D01*
X42339143Y-33389509D01*
X42371219Y-33381475D01*
X42403929Y-33376623D01*
X42436956Y-33375000D01*
X43563044Y-33375000D01*
X43596071Y-33376623D01*
X43596071Y-33376623D01*
G37*
D15*
X43000000Y-34150000D03*
D10*
G36*
X43596071Y-35076623D02*
X43628781Y-35081475D01*
X43660857Y-35089509D01*
X43691991Y-35100649D01*
X43721884Y-35114787D01*
X43750247Y-35131787D01*
X43776807Y-35151485D01*
X43801308Y-35173692D01*
X43823515Y-35198193D01*
X43843213Y-35224753D01*
X43860213Y-35253116D01*
X43874351Y-35283009D01*
X43885491Y-35314143D01*
X43893525Y-35346219D01*
X43898377Y-35378929D01*
X43900000Y-35411956D01*
X43900000Y-36288044D01*
X43898377Y-36321071D01*
X43893525Y-36353781D01*
X43885491Y-36385857D01*
X43874351Y-36416991D01*
X43860213Y-36446884D01*
X43843213Y-36475247D01*
X43823515Y-36501807D01*
X43801308Y-36526308D01*
X43776807Y-36548515D01*
X43750247Y-36568213D01*
X43721884Y-36585213D01*
X43691991Y-36599351D01*
X43660857Y-36610491D01*
X43628781Y-36618525D01*
X43596071Y-36623377D01*
X43563044Y-36625000D01*
X42436956Y-36625000D01*
X42403929Y-36623377D01*
X42371219Y-36618525D01*
X42339143Y-36610491D01*
X42308009Y-36599351D01*
X42278116Y-36585213D01*
X42249753Y-36568213D01*
X42223193Y-36548515D01*
X42198692Y-36526308D01*
X42176485Y-36501807D01*
X42156787Y-36475247D01*
X42139787Y-36446884D01*
X42125649Y-36416991D01*
X42114509Y-36385857D01*
X42106475Y-36353781D01*
X42101623Y-36321071D01*
X42100000Y-36288044D01*
X42100000Y-35411956D01*
X42101623Y-35378929D01*
X42106475Y-35346219D01*
X42114509Y-35314143D01*
X42125649Y-35283009D01*
X42139787Y-35253116D01*
X42156787Y-35224753D01*
X42176485Y-35198193D01*
X42198692Y-35173692D01*
X42223193Y-35151485D01*
X42249753Y-35131787D01*
X42278116Y-35114787D01*
X42308009Y-35100649D01*
X42339143Y-35089509D01*
X42371219Y-35081475D01*
X42403929Y-35076623D01*
X42436956Y-35075000D01*
X43563044Y-35075000D01*
X43596071Y-35076623D01*
X43596071Y-35076623D01*
G37*
D15*
X43000000Y-35850000D03*
G04 #@! TD*
D10*
G04 #@! TO.C,R42*
G36*
X60596071Y-35076623D02*
X60628781Y-35081475D01*
X60660857Y-35089509D01*
X60691991Y-35100649D01*
X60721884Y-35114787D01*
X60750247Y-35131787D01*
X60776807Y-35151485D01*
X60801308Y-35173692D01*
X60823515Y-35198193D01*
X60843213Y-35224753D01*
X60860213Y-35253116D01*
X60874351Y-35283009D01*
X60885491Y-35314143D01*
X60893525Y-35346219D01*
X60898377Y-35378929D01*
X60900000Y-35411956D01*
X60900000Y-36288044D01*
X60898377Y-36321071D01*
X60893525Y-36353781D01*
X60885491Y-36385857D01*
X60874351Y-36416991D01*
X60860213Y-36446884D01*
X60843213Y-36475247D01*
X60823515Y-36501807D01*
X60801308Y-36526308D01*
X60776807Y-36548515D01*
X60750247Y-36568213D01*
X60721884Y-36585213D01*
X60691991Y-36599351D01*
X60660857Y-36610491D01*
X60628781Y-36618525D01*
X60596071Y-36623377D01*
X60563044Y-36625000D01*
X59436956Y-36625000D01*
X59403929Y-36623377D01*
X59371219Y-36618525D01*
X59339143Y-36610491D01*
X59308009Y-36599351D01*
X59278116Y-36585213D01*
X59249753Y-36568213D01*
X59223193Y-36548515D01*
X59198692Y-36526308D01*
X59176485Y-36501807D01*
X59156787Y-36475247D01*
X59139787Y-36446884D01*
X59125649Y-36416991D01*
X59114509Y-36385857D01*
X59106475Y-36353781D01*
X59101623Y-36321071D01*
X59100000Y-36288044D01*
X59100000Y-35411956D01*
X59101623Y-35378929D01*
X59106475Y-35346219D01*
X59114509Y-35314143D01*
X59125649Y-35283009D01*
X59139787Y-35253116D01*
X59156787Y-35224753D01*
X59176485Y-35198193D01*
X59198692Y-35173692D01*
X59223193Y-35151485D01*
X59249753Y-35131787D01*
X59278116Y-35114787D01*
X59308009Y-35100649D01*
X59339143Y-35089509D01*
X59371219Y-35081475D01*
X59403929Y-35076623D01*
X59436956Y-35075000D01*
X60563044Y-35075000D01*
X60596071Y-35076623D01*
X60596071Y-35076623D01*
G37*
D15*
X60000000Y-35850000D03*
D10*
G36*
X60596071Y-33376623D02*
X60628781Y-33381475D01*
X60660857Y-33389509D01*
X60691991Y-33400649D01*
X60721884Y-33414787D01*
X60750247Y-33431787D01*
X60776807Y-33451485D01*
X60801308Y-33473692D01*
X60823515Y-33498193D01*
X60843213Y-33524753D01*
X60860213Y-33553116D01*
X60874351Y-33583009D01*
X60885491Y-33614143D01*
X60893525Y-33646219D01*
X60898377Y-33678929D01*
X60900000Y-33711956D01*
X60900000Y-34588044D01*
X60898377Y-34621071D01*
X60893525Y-34653781D01*
X60885491Y-34685857D01*
X60874351Y-34716991D01*
X60860213Y-34746884D01*
X60843213Y-34775247D01*
X60823515Y-34801807D01*
X60801308Y-34826308D01*
X60776807Y-34848515D01*
X60750247Y-34868213D01*
X60721884Y-34885213D01*
X60691991Y-34899351D01*
X60660857Y-34910491D01*
X60628781Y-34918525D01*
X60596071Y-34923377D01*
X60563044Y-34925000D01*
X59436956Y-34925000D01*
X59403929Y-34923377D01*
X59371219Y-34918525D01*
X59339143Y-34910491D01*
X59308009Y-34899351D01*
X59278116Y-34885213D01*
X59249753Y-34868213D01*
X59223193Y-34848515D01*
X59198692Y-34826308D01*
X59176485Y-34801807D01*
X59156787Y-34775247D01*
X59139787Y-34746884D01*
X59125649Y-34716991D01*
X59114509Y-34685857D01*
X59106475Y-34653781D01*
X59101623Y-34621071D01*
X59100000Y-34588044D01*
X59100000Y-33711956D01*
X59101623Y-33678929D01*
X59106475Y-33646219D01*
X59114509Y-33614143D01*
X59125649Y-33583009D01*
X59139787Y-33553116D01*
X59156787Y-33524753D01*
X59176485Y-33498193D01*
X59198692Y-33473692D01*
X59223193Y-33451485D01*
X59249753Y-33431787D01*
X59278116Y-33414787D01*
X59308009Y-33400649D01*
X59339143Y-33389509D01*
X59371219Y-33381475D01*
X59403929Y-33376623D01*
X59436956Y-33375000D01*
X60563044Y-33375000D01*
X60596071Y-33376623D01*
X60596071Y-33376623D01*
G37*
D15*
X60000000Y-34150000D03*
G04 #@! TD*
D10*
G04 #@! TO.C,R32*
G36*
X53096071Y-33376623D02*
X53128781Y-33381475D01*
X53160857Y-33389509D01*
X53191991Y-33400649D01*
X53221884Y-33414787D01*
X53250247Y-33431787D01*
X53276807Y-33451485D01*
X53301308Y-33473692D01*
X53323515Y-33498193D01*
X53343213Y-33524753D01*
X53360213Y-33553116D01*
X53374351Y-33583009D01*
X53385491Y-33614143D01*
X53393525Y-33646219D01*
X53398377Y-33678929D01*
X53400000Y-33711956D01*
X53400000Y-34588044D01*
X53398377Y-34621071D01*
X53393525Y-34653781D01*
X53385491Y-34685857D01*
X53374351Y-34716991D01*
X53360213Y-34746884D01*
X53343213Y-34775247D01*
X53323515Y-34801807D01*
X53301308Y-34826308D01*
X53276807Y-34848515D01*
X53250247Y-34868213D01*
X53221884Y-34885213D01*
X53191991Y-34899351D01*
X53160857Y-34910491D01*
X53128781Y-34918525D01*
X53096071Y-34923377D01*
X53063044Y-34925000D01*
X51936956Y-34925000D01*
X51903929Y-34923377D01*
X51871219Y-34918525D01*
X51839143Y-34910491D01*
X51808009Y-34899351D01*
X51778116Y-34885213D01*
X51749753Y-34868213D01*
X51723193Y-34848515D01*
X51698692Y-34826308D01*
X51676485Y-34801807D01*
X51656787Y-34775247D01*
X51639787Y-34746884D01*
X51625649Y-34716991D01*
X51614509Y-34685857D01*
X51606475Y-34653781D01*
X51601623Y-34621071D01*
X51600000Y-34588044D01*
X51600000Y-33711956D01*
X51601623Y-33678929D01*
X51606475Y-33646219D01*
X51614509Y-33614143D01*
X51625649Y-33583009D01*
X51639787Y-33553116D01*
X51656787Y-33524753D01*
X51676485Y-33498193D01*
X51698692Y-33473692D01*
X51723193Y-33451485D01*
X51749753Y-33431787D01*
X51778116Y-33414787D01*
X51808009Y-33400649D01*
X51839143Y-33389509D01*
X51871219Y-33381475D01*
X51903929Y-33376623D01*
X51936956Y-33375000D01*
X53063044Y-33375000D01*
X53096071Y-33376623D01*
X53096071Y-33376623D01*
G37*
D15*
X52500000Y-34150000D03*
D10*
G36*
X53096071Y-35076623D02*
X53128781Y-35081475D01*
X53160857Y-35089509D01*
X53191991Y-35100649D01*
X53221884Y-35114787D01*
X53250247Y-35131787D01*
X53276807Y-35151485D01*
X53301308Y-35173692D01*
X53323515Y-35198193D01*
X53343213Y-35224753D01*
X53360213Y-35253116D01*
X53374351Y-35283009D01*
X53385491Y-35314143D01*
X53393525Y-35346219D01*
X53398377Y-35378929D01*
X53400000Y-35411956D01*
X53400000Y-36288044D01*
X53398377Y-36321071D01*
X53393525Y-36353781D01*
X53385491Y-36385857D01*
X53374351Y-36416991D01*
X53360213Y-36446884D01*
X53343213Y-36475247D01*
X53323515Y-36501807D01*
X53301308Y-36526308D01*
X53276807Y-36548515D01*
X53250247Y-36568213D01*
X53221884Y-36585213D01*
X53191991Y-36599351D01*
X53160857Y-36610491D01*
X53128781Y-36618525D01*
X53096071Y-36623377D01*
X53063044Y-36625000D01*
X51936956Y-36625000D01*
X51903929Y-36623377D01*
X51871219Y-36618525D01*
X51839143Y-36610491D01*
X51808009Y-36599351D01*
X51778116Y-36585213D01*
X51749753Y-36568213D01*
X51723193Y-36548515D01*
X51698692Y-36526308D01*
X51676485Y-36501807D01*
X51656787Y-36475247D01*
X51639787Y-36446884D01*
X51625649Y-36416991D01*
X51614509Y-36385857D01*
X51606475Y-36353781D01*
X51601623Y-36321071D01*
X51600000Y-36288044D01*
X51600000Y-35411956D01*
X51601623Y-35378929D01*
X51606475Y-35346219D01*
X51614509Y-35314143D01*
X51625649Y-35283009D01*
X51639787Y-35253116D01*
X51656787Y-35224753D01*
X51676485Y-35198193D01*
X51698692Y-35173692D01*
X51723193Y-35151485D01*
X51749753Y-35131787D01*
X51778116Y-35114787D01*
X51808009Y-35100649D01*
X51839143Y-35089509D01*
X51871219Y-35081475D01*
X51903929Y-35076623D01*
X51936956Y-35075000D01*
X53063044Y-35075000D01*
X53096071Y-35076623D01*
X53096071Y-35076623D01*
G37*
D15*
X52500000Y-35850000D03*
G04 #@! TD*
D10*
G04 #@! TO.C,R22*
G36*
X51096071Y-35076623D02*
X51128781Y-35081475D01*
X51160857Y-35089509D01*
X51191991Y-35100649D01*
X51221884Y-35114787D01*
X51250247Y-35131787D01*
X51276807Y-35151485D01*
X51301308Y-35173692D01*
X51323515Y-35198193D01*
X51343213Y-35224753D01*
X51360213Y-35253116D01*
X51374351Y-35283009D01*
X51385491Y-35314143D01*
X51393525Y-35346219D01*
X51398377Y-35378929D01*
X51400000Y-35411956D01*
X51400000Y-36288044D01*
X51398377Y-36321071D01*
X51393525Y-36353781D01*
X51385491Y-36385857D01*
X51374351Y-36416991D01*
X51360213Y-36446884D01*
X51343213Y-36475247D01*
X51323515Y-36501807D01*
X51301308Y-36526308D01*
X51276807Y-36548515D01*
X51250247Y-36568213D01*
X51221884Y-36585213D01*
X51191991Y-36599351D01*
X51160857Y-36610491D01*
X51128781Y-36618525D01*
X51096071Y-36623377D01*
X51063044Y-36625000D01*
X49936956Y-36625000D01*
X49903929Y-36623377D01*
X49871219Y-36618525D01*
X49839143Y-36610491D01*
X49808009Y-36599351D01*
X49778116Y-36585213D01*
X49749753Y-36568213D01*
X49723193Y-36548515D01*
X49698692Y-36526308D01*
X49676485Y-36501807D01*
X49656787Y-36475247D01*
X49639787Y-36446884D01*
X49625649Y-36416991D01*
X49614509Y-36385857D01*
X49606475Y-36353781D01*
X49601623Y-36321071D01*
X49600000Y-36288044D01*
X49600000Y-35411956D01*
X49601623Y-35378929D01*
X49606475Y-35346219D01*
X49614509Y-35314143D01*
X49625649Y-35283009D01*
X49639787Y-35253116D01*
X49656787Y-35224753D01*
X49676485Y-35198193D01*
X49698692Y-35173692D01*
X49723193Y-35151485D01*
X49749753Y-35131787D01*
X49778116Y-35114787D01*
X49808009Y-35100649D01*
X49839143Y-35089509D01*
X49871219Y-35081475D01*
X49903929Y-35076623D01*
X49936956Y-35075000D01*
X51063044Y-35075000D01*
X51096071Y-35076623D01*
X51096071Y-35076623D01*
G37*
D15*
X50500000Y-35850000D03*
D10*
G36*
X51096071Y-33376623D02*
X51128781Y-33381475D01*
X51160857Y-33389509D01*
X51191991Y-33400649D01*
X51221884Y-33414787D01*
X51250247Y-33431787D01*
X51276807Y-33451485D01*
X51301308Y-33473692D01*
X51323515Y-33498193D01*
X51343213Y-33524753D01*
X51360213Y-33553116D01*
X51374351Y-33583009D01*
X51385491Y-33614143D01*
X51393525Y-33646219D01*
X51398377Y-33678929D01*
X51400000Y-33711956D01*
X51400000Y-34588044D01*
X51398377Y-34621071D01*
X51393525Y-34653781D01*
X51385491Y-34685857D01*
X51374351Y-34716991D01*
X51360213Y-34746884D01*
X51343213Y-34775247D01*
X51323515Y-34801807D01*
X51301308Y-34826308D01*
X51276807Y-34848515D01*
X51250247Y-34868213D01*
X51221884Y-34885213D01*
X51191991Y-34899351D01*
X51160857Y-34910491D01*
X51128781Y-34918525D01*
X51096071Y-34923377D01*
X51063044Y-34925000D01*
X49936956Y-34925000D01*
X49903929Y-34923377D01*
X49871219Y-34918525D01*
X49839143Y-34910491D01*
X49808009Y-34899351D01*
X49778116Y-34885213D01*
X49749753Y-34868213D01*
X49723193Y-34848515D01*
X49698692Y-34826308D01*
X49676485Y-34801807D01*
X49656787Y-34775247D01*
X49639787Y-34746884D01*
X49625649Y-34716991D01*
X49614509Y-34685857D01*
X49606475Y-34653781D01*
X49601623Y-34621071D01*
X49600000Y-34588044D01*
X49600000Y-33711956D01*
X49601623Y-33678929D01*
X49606475Y-33646219D01*
X49614509Y-33614143D01*
X49625649Y-33583009D01*
X49639787Y-33553116D01*
X49656787Y-33524753D01*
X49676485Y-33498193D01*
X49698692Y-33473692D01*
X49723193Y-33451485D01*
X49749753Y-33431787D01*
X49778116Y-33414787D01*
X49808009Y-33400649D01*
X49839143Y-33389509D01*
X49871219Y-33381475D01*
X49903929Y-33376623D01*
X49936956Y-33375000D01*
X51063044Y-33375000D01*
X51096071Y-33376623D01*
X51096071Y-33376623D01*
G37*
D15*
X50500000Y-34150000D03*
G04 #@! TD*
D10*
G04 #@! TO.C,C12*
G36*
X46277346Y-35876589D02*
X46309380Y-35881341D01*
X46340794Y-35889210D01*
X46371286Y-35900120D01*
X46400561Y-35913966D01*
X46428338Y-35930615D01*
X46454350Y-35949907D01*
X46478345Y-35971655D01*
X46500093Y-35995650D01*
X46519385Y-36021662D01*
X46536034Y-36049439D01*
X46549880Y-36078714D01*
X46560790Y-36109206D01*
X46568659Y-36140620D01*
X46573411Y-36172654D01*
X46575000Y-36205000D01*
X46575000Y-37195000D01*
X46573411Y-37227346D01*
X46568659Y-37259380D01*
X46560790Y-37290794D01*
X46549880Y-37321286D01*
X46536034Y-37350561D01*
X46519385Y-37378338D01*
X46500093Y-37404350D01*
X46478345Y-37428345D01*
X46454350Y-37450093D01*
X46428338Y-37469385D01*
X46400561Y-37486034D01*
X46371286Y-37499880D01*
X46340794Y-37510790D01*
X46309380Y-37518659D01*
X46277346Y-37523411D01*
X46245000Y-37525000D01*
X44755000Y-37525000D01*
X44722654Y-37523411D01*
X44690620Y-37518659D01*
X44659206Y-37510790D01*
X44628714Y-37499880D01*
X44599439Y-37486034D01*
X44571662Y-37469385D01*
X44545650Y-37450093D01*
X44521655Y-37428345D01*
X44499907Y-37404350D01*
X44480615Y-37378338D01*
X44463966Y-37350561D01*
X44450120Y-37321286D01*
X44439210Y-37290794D01*
X44431341Y-37259380D01*
X44426589Y-37227346D01*
X44425000Y-37195000D01*
X44425000Y-36205000D01*
X44426589Y-36172654D01*
X44431341Y-36140620D01*
X44439210Y-36109206D01*
X44450120Y-36078714D01*
X44463966Y-36049439D01*
X44480615Y-36021662D01*
X44499907Y-35995650D01*
X44521655Y-35971655D01*
X44545650Y-35949907D01*
X44571662Y-35930615D01*
X44599439Y-35913966D01*
X44628714Y-35900120D01*
X44659206Y-35889210D01*
X44690620Y-35881341D01*
X44722654Y-35876589D01*
X44755000Y-35875000D01*
X46245000Y-35875000D01*
X46277346Y-35876589D01*
X46277346Y-35876589D01*
G37*
D11*
X45500000Y-36700000D03*
D10*
G36*
X46277346Y-38676589D02*
X46309380Y-38681341D01*
X46340794Y-38689210D01*
X46371286Y-38700120D01*
X46400561Y-38713966D01*
X46428338Y-38730615D01*
X46454350Y-38749907D01*
X46478345Y-38771655D01*
X46500093Y-38795650D01*
X46519385Y-38821662D01*
X46536034Y-38849439D01*
X46549880Y-38878714D01*
X46560790Y-38909206D01*
X46568659Y-38940620D01*
X46573411Y-38972654D01*
X46575000Y-39005000D01*
X46575000Y-39995000D01*
X46573411Y-40027346D01*
X46568659Y-40059380D01*
X46560790Y-40090794D01*
X46549880Y-40121286D01*
X46536034Y-40150561D01*
X46519385Y-40178338D01*
X46500093Y-40204350D01*
X46478345Y-40228345D01*
X46454350Y-40250093D01*
X46428338Y-40269385D01*
X46400561Y-40286034D01*
X46371286Y-40299880D01*
X46340794Y-40310790D01*
X46309380Y-40318659D01*
X46277346Y-40323411D01*
X46245000Y-40325000D01*
X44755000Y-40325000D01*
X44722654Y-40323411D01*
X44690620Y-40318659D01*
X44659206Y-40310790D01*
X44628714Y-40299880D01*
X44599439Y-40286034D01*
X44571662Y-40269385D01*
X44545650Y-40250093D01*
X44521655Y-40228345D01*
X44499907Y-40204350D01*
X44480615Y-40178338D01*
X44463966Y-40150561D01*
X44450120Y-40121286D01*
X44439210Y-40090794D01*
X44431341Y-40059380D01*
X44426589Y-40027346D01*
X44425000Y-39995000D01*
X44425000Y-39005000D01*
X44426589Y-38972654D01*
X44431341Y-38940620D01*
X44439210Y-38909206D01*
X44450120Y-38878714D01*
X44463966Y-38849439D01*
X44480615Y-38821662D01*
X44499907Y-38795650D01*
X44521655Y-38771655D01*
X44545650Y-38749907D01*
X44571662Y-38730615D01*
X44599439Y-38713966D01*
X44628714Y-38700120D01*
X44659206Y-38689210D01*
X44690620Y-38681341D01*
X44722654Y-38676589D01*
X44755000Y-38675000D01*
X46245000Y-38675000D01*
X46277346Y-38676589D01*
X46277346Y-38676589D01*
G37*
D11*
X45500000Y-39500000D03*
G04 #@! TD*
D10*
G04 #@! TO.C,C32*
G36*
X55777346Y-38676589D02*
X55809380Y-38681341D01*
X55840794Y-38689210D01*
X55871286Y-38700120D01*
X55900561Y-38713966D01*
X55928338Y-38730615D01*
X55954350Y-38749907D01*
X55978345Y-38771655D01*
X56000093Y-38795650D01*
X56019385Y-38821662D01*
X56036034Y-38849439D01*
X56049880Y-38878714D01*
X56060790Y-38909206D01*
X56068659Y-38940620D01*
X56073411Y-38972654D01*
X56075000Y-39005000D01*
X56075000Y-39995000D01*
X56073411Y-40027346D01*
X56068659Y-40059380D01*
X56060790Y-40090794D01*
X56049880Y-40121286D01*
X56036034Y-40150561D01*
X56019385Y-40178338D01*
X56000093Y-40204350D01*
X55978345Y-40228345D01*
X55954350Y-40250093D01*
X55928338Y-40269385D01*
X55900561Y-40286034D01*
X55871286Y-40299880D01*
X55840794Y-40310790D01*
X55809380Y-40318659D01*
X55777346Y-40323411D01*
X55745000Y-40325000D01*
X54255000Y-40325000D01*
X54222654Y-40323411D01*
X54190620Y-40318659D01*
X54159206Y-40310790D01*
X54128714Y-40299880D01*
X54099439Y-40286034D01*
X54071662Y-40269385D01*
X54045650Y-40250093D01*
X54021655Y-40228345D01*
X53999907Y-40204350D01*
X53980615Y-40178338D01*
X53963966Y-40150561D01*
X53950120Y-40121286D01*
X53939210Y-40090794D01*
X53931341Y-40059380D01*
X53926589Y-40027346D01*
X53925000Y-39995000D01*
X53925000Y-39005000D01*
X53926589Y-38972654D01*
X53931341Y-38940620D01*
X53939210Y-38909206D01*
X53950120Y-38878714D01*
X53963966Y-38849439D01*
X53980615Y-38821662D01*
X53999907Y-38795650D01*
X54021655Y-38771655D01*
X54045650Y-38749907D01*
X54071662Y-38730615D01*
X54099439Y-38713966D01*
X54128714Y-38700120D01*
X54159206Y-38689210D01*
X54190620Y-38681341D01*
X54222654Y-38676589D01*
X54255000Y-38675000D01*
X55745000Y-38675000D01*
X55777346Y-38676589D01*
X55777346Y-38676589D01*
G37*
D11*
X55000000Y-39500000D03*
D10*
G36*
X55777346Y-35876589D02*
X55809380Y-35881341D01*
X55840794Y-35889210D01*
X55871286Y-35900120D01*
X55900561Y-35913966D01*
X55928338Y-35930615D01*
X55954350Y-35949907D01*
X55978345Y-35971655D01*
X56000093Y-35995650D01*
X56019385Y-36021662D01*
X56036034Y-36049439D01*
X56049880Y-36078714D01*
X56060790Y-36109206D01*
X56068659Y-36140620D01*
X56073411Y-36172654D01*
X56075000Y-36205000D01*
X56075000Y-37195000D01*
X56073411Y-37227346D01*
X56068659Y-37259380D01*
X56060790Y-37290794D01*
X56049880Y-37321286D01*
X56036034Y-37350561D01*
X56019385Y-37378338D01*
X56000093Y-37404350D01*
X55978345Y-37428345D01*
X55954350Y-37450093D01*
X55928338Y-37469385D01*
X55900561Y-37486034D01*
X55871286Y-37499880D01*
X55840794Y-37510790D01*
X55809380Y-37518659D01*
X55777346Y-37523411D01*
X55745000Y-37525000D01*
X54255000Y-37525000D01*
X54222654Y-37523411D01*
X54190620Y-37518659D01*
X54159206Y-37510790D01*
X54128714Y-37499880D01*
X54099439Y-37486034D01*
X54071662Y-37469385D01*
X54045650Y-37450093D01*
X54021655Y-37428345D01*
X53999907Y-37404350D01*
X53980615Y-37378338D01*
X53963966Y-37350561D01*
X53950120Y-37321286D01*
X53939210Y-37290794D01*
X53931341Y-37259380D01*
X53926589Y-37227346D01*
X53925000Y-37195000D01*
X53925000Y-36205000D01*
X53926589Y-36172654D01*
X53931341Y-36140620D01*
X53939210Y-36109206D01*
X53950120Y-36078714D01*
X53963966Y-36049439D01*
X53980615Y-36021662D01*
X53999907Y-35995650D01*
X54021655Y-35971655D01*
X54045650Y-35949907D01*
X54071662Y-35930615D01*
X54099439Y-35913966D01*
X54128714Y-35900120D01*
X54159206Y-35889210D01*
X54190620Y-35881341D01*
X54222654Y-35876589D01*
X54255000Y-35875000D01*
X55745000Y-35875000D01*
X55777346Y-35876589D01*
X55777346Y-35876589D01*
G37*
D11*
X55000000Y-36700000D03*
G04 #@! TD*
D10*
G04 #@! TO.C,C22*
G36*
X48777346Y-35876589D02*
X48809380Y-35881341D01*
X48840794Y-35889210D01*
X48871286Y-35900120D01*
X48900561Y-35913966D01*
X48928338Y-35930615D01*
X48954350Y-35949907D01*
X48978345Y-35971655D01*
X49000093Y-35995650D01*
X49019385Y-36021662D01*
X49036034Y-36049439D01*
X49049880Y-36078714D01*
X49060790Y-36109206D01*
X49068659Y-36140620D01*
X49073411Y-36172654D01*
X49075000Y-36205000D01*
X49075000Y-37195000D01*
X49073411Y-37227346D01*
X49068659Y-37259380D01*
X49060790Y-37290794D01*
X49049880Y-37321286D01*
X49036034Y-37350561D01*
X49019385Y-37378338D01*
X49000093Y-37404350D01*
X48978345Y-37428345D01*
X48954350Y-37450093D01*
X48928338Y-37469385D01*
X48900561Y-37486034D01*
X48871286Y-37499880D01*
X48840794Y-37510790D01*
X48809380Y-37518659D01*
X48777346Y-37523411D01*
X48745000Y-37525000D01*
X47255000Y-37525000D01*
X47222654Y-37523411D01*
X47190620Y-37518659D01*
X47159206Y-37510790D01*
X47128714Y-37499880D01*
X47099439Y-37486034D01*
X47071662Y-37469385D01*
X47045650Y-37450093D01*
X47021655Y-37428345D01*
X46999907Y-37404350D01*
X46980615Y-37378338D01*
X46963966Y-37350561D01*
X46950120Y-37321286D01*
X46939210Y-37290794D01*
X46931341Y-37259380D01*
X46926589Y-37227346D01*
X46925000Y-37195000D01*
X46925000Y-36205000D01*
X46926589Y-36172654D01*
X46931341Y-36140620D01*
X46939210Y-36109206D01*
X46950120Y-36078714D01*
X46963966Y-36049439D01*
X46980615Y-36021662D01*
X46999907Y-35995650D01*
X47021655Y-35971655D01*
X47045650Y-35949907D01*
X47071662Y-35930615D01*
X47099439Y-35913966D01*
X47128714Y-35900120D01*
X47159206Y-35889210D01*
X47190620Y-35881341D01*
X47222654Y-35876589D01*
X47255000Y-35875000D01*
X48745000Y-35875000D01*
X48777346Y-35876589D01*
X48777346Y-35876589D01*
G37*
D11*
X48000000Y-36700000D03*
D10*
G36*
X48777346Y-38676589D02*
X48809380Y-38681341D01*
X48840794Y-38689210D01*
X48871286Y-38700120D01*
X48900561Y-38713966D01*
X48928338Y-38730615D01*
X48954350Y-38749907D01*
X48978345Y-38771655D01*
X49000093Y-38795650D01*
X49019385Y-38821662D01*
X49036034Y-38849439D01*
X49049880Y-38878714D01*
X49060790Y-38909206D01*
X49068659Y-38940620D01*
X49073411Y-38972654D01*
X49075000Y-39005000D01*
X49075000Y-39995000D01*
X49073411Y-40027346D01*
X49068659Y-40059380D01*
X49060790Y-40090794D01*
X49049880Y-40121286D01*
X49036034Y-40150561D01*
X49019385Y-40178338D01*
X49000093Y-40204350D01*
X48978345Y-40228345D01*
X48954350Y-40250093D01*
X48928338Y-40269385D01*
X48900561Y-40286034D01*
X48871286Y-40299880D01*
X48840794Y-40310790D01*
X48809380Y-40318659D01*
X48777346Y-40323411D01*
X48745000Y-40325000D01*
X47255000Y-40325000D01*
X47222654Y-40323411D01*
X47190620Y-40318659D01*
X47159206Y-40310790D01*
X47128714Y-40299880D01*
X47099439Y-40286034D01*
X47071662Y-40269385D01*
X47045650Y-40250093D01*
X47021655Y-40228345D01*
X46999907Y-40204350D01*
X46980615Y-40178338D01*
X46963966Y-40150561D01*
X46950120Y-40121286D01*
X46939210Y-40090794D01*
X46931341Y-40059380D01*
X46926589Y-40027346D01*
X46925000Y-39995000D01*
X46925000Y-39005000D01*
X46926589Y-38972654D01*
X46931341Y-38940620D01*
X46939210Y-38909206D01*
X46950120Y-38878714D01*
X46963966Y-38849439D01*
X46980615Y-38821662D01*
X46999907Y-38795650D01*
X47021655Y-38771655D01*
X47045650Y-38749907D01*
X47071662Y-38730615D01*
X47099439Y-38713966D01*
X47128714Y-38700120D01*
X47159206Y-38689210D01*
X47190620Y-38681341D01*
X47222654Y-38676589D01*
X47255000Y-38675000D01*
X48745000Y-38675000D01*
X48777346Y-38676589D01*
X48777346Y-38676589D01*
G37*
D11*
X48000000Y-39500000D03*
G04 #@! TD*
D10*
G04 #@! TO.C,C42*
G36*
X58277346Y-38676589D02*
X58309380Y-38681341D01*
X58340794Y-38689210D01*
X58371286Y-38700120D01*
X58400561Y-38713966D01*
X58428338Y-38730615D01*
X58454350Y-38749907D01*
X58478345Y-38771655D01*
X58500093Y-38795650D01*
X58519385Y-38821662D01*
X58536034Y-38849439D01*
X58549880Y-38878714D01*
X58560790Y-38909206D01*
X58568659Y-38940620D01*
X58573411Y-38972654D01*
X58575000Y-39005000D01*
X58575000Y-39995000D01*
X58573411Y-40027346D01*
X58568659Y-40059380D01*
X58560790Y-40090794D01*
X58549880Y-40121286D01*
X58536034Y-40150561D01*
X58519385Y-40178338D01*
X58500093Y-40204350D01*
X58478345Y-40228345D01*
X58454350Y-40250093D01*
X58428338Y-40269385D01*
X58400561Y-40286034D01*
X58371286Y-40299880D01*
X58340794Y-40310790D01*
X58309380Y-40318659D01*
X58277346Y-40323411D01*
X58245000Y-40325000D01*
X56755000Y-40325000D01*
X56722654Y-40323411D01*
X56690620Y-40318659D01*
X56659206Y-40310790D01*
X56628714Y-40299880D01*
X56599439Y-40286034D01*
X56571662Y-40269385D01*
X56545650Y-40250093D01*
X56521655Y-40228345D01*
X56499907Y-40204350D01*
X56480615Y-40178338D01*
X56463966Y-40150561D01*
X56450120Y-40121286D01*
X56439210Y-40090794D01*
X56431341Y-40059380D01*
X56426589Y-40027346D01*
X56425000Y-39995000D01*
X56425000Y-39005000D01*
X56426589Y-38972654D01*
X56431341Y-38940620D01*
X56439210Y-38909206D01*
X56450120Y-38878714D01*
X56463966Y-38849439D01*
X56480615Y-38821662D01*
X56499907Y-38795650D01*
X56521655Y-38771655D01*
X56545650Y-38749907D01*
X56571662Y-38730615D01*
X56599439Y-38713966D01*
X56628714Y-38700120D01*
X56659206Y-38689210D01*
X56690620Y-38681341D01*
X56722654Y-38676589D01*
X56755000Y-38675000D01*
X58245000Y-38675000D01*
X58277346Y-38676589D01*
X58277346Y-38676589D01*
G37*
D11*
X57500000Y-39500000D03*
D10*
G36*
X58277346Y-35876589D02*
X58309380Y-35881341D01*
X58340794Y-35889210D01*
X58371286Y-35900120D01*
X58400561Y-35913966D01*
X58428338Y-35930615D01*
X58454350Y-35949907D01*
X58478345Y-35971655D01*
X58500093Y-35995650D01*
X58519385Y-36021662D01*
X58536034Y-36049439D01*
X58549880Y-36078714D01*
X58560790Y-36109206D01*
X58568659Y-36140620D01*
X58573411Y-36172654D01*
X58575000Y-36205000D01*
X58575000Y-37195000D01*
X58573411Y-37227346D01*
X58568659Y-37259380D01*
X58560790Y-37290794D01*
X58549880Y-37321286D01*
X58536034Y-37350561D01*
X58519385Y-37378338D01*
X58500093Y-37404350D01*
X58478345Y-37428345D01*
X58454350Y-37450093D01*
X58428338Y-37469385D01*
X58400561Y-37486034D01*
X58371286Y-37499880D01*
X58340794Y-37510790D01*
X58309380Y-37518659D01*
X58277346Y-37523411D01*
X58245000Y-37525000D01*
X56755000Y-37525000D01*
X56722654Y-37523411D01*
X56690620Y-37518659D01*
X56659206Y-37510790D01*
X56628714Y-37499880D01*
X56599439Y-37486034D01*
X56571662Y-37469385D01*
X56545650Y-37450093D01*
X56521655Y-37428345D01*
X56499907Y-37404350D01*
X56480615Y-37378338D01*
X56463966Y-37350561D01*
X56450120Y-37321286D01*
X56439210Y-37290794D01*
X56431341Y-37259380D01*
X56426589Y-37227346D01*
X56425000Y-37195000D01*
X56425000Y-36205000D01*
X56426589Y-36172654D01*
X56431341Y-36140620D01*
X56439210Y-36109206D01*
X56450120Y-36078714D01*
X56463966Y-36049439D01*
X56480615Y-36021662D01*
X56499907Y-35995650D01*
X56521655Y-35971655D01*
X56545650Y-35949907D01*
X56571662Y-35930615D01*
X56599439Y-35913966D01*
X56628714Y-35900120D01*
X56659206Y-35889210D01*
X56690620Y-35881341D01*
X56722654Y-35876589D01*
X56755000Y-35875000D01*
X58245000Y-35875000D01*
X58277346Y-35876589D01*
X58277346Y-35876589D01*
G37*
D11*
X57500000Y-36700000D03*
G04 #@! TD*
D10*
G04 #@! TO.C,R43*
G36*
X60596071Y-37226623D02*
X60628781Y-37231475D01*
X60660857Y-37239509D01*
X60691991Y-37250649D01*
X60721884Y-37264787D01*
X60750247Y-37281787D01*
X60776807Y-37301485D01*
X60801308Y-37323692D01*
X60823515Y-37348193D01*
X60843213Y-37374753D01*
X60860213Y-37403116D01*
X60874351Y-37433009D01*
X60885491Y-37464143D01*
X60893525Y-37496219D01*
X60898377Y-37528929D01*
X60900000Y-37561956D01*
X60900000Y-38438044D01*
X60898377Y-38471071D01*
X60893525Y-38503781D01*
X60885491Y-38535857D01*
X60874351Y-38566991D01*
X60860213Y-38596884D01*
X60843213Y-38625247D01*
X60823515Y-38651807D01*
X60801308Y-38676308D01*
X60776807Y-38698515D01*
X60750247Y-38718213D01*
X60721884Y-38735213D01*
X60691991Y-38749351D01*
X60660857Y-38760491D01*
X60628781Y-38768525D01*
X60596071Y-38773377D01*
X60563044Y-38775000D01*
X59436956Y-38775000D01*
X59403929Y-38773377D01*
X59371219Y-38768525D01*
X59339143Y-38760491D01*
X59308009Y-38749351D01*
X59278116Y-38735213D01*
X59249753Y-38718213D01*
X59223193Y-38698515D01*
X59198692Y-38676308D01*
X59176485Y-38651807D01*
X59156787Y-38625247D01*
X59139787Y-38596884D01*
X59125649Y-38566991D01*
X59114509Y-38535857D01*
X59106475Y-38503781D01*
X59101623Y-38471071D01*
X59100000Y-38438044D01*
X59100000Y-37561956D01*
X59101623Y-37528929D01*
X59106475Y-37496219D01*
X59114509Y-37464143D01*
X59125649Y-37433009D01*
X59139787Y-37403116D01*
X59156787Y-37374753D01*
X59176485Y-37348193D01*
X59198692Y-37323692D01*
X59223193Y-37301485D01*
X59249753Y-37281787D01*
X59278116Y-37264787D01*
X59308009Y-37250649D01*
X59339143Y-37239509D01*
X59371219Y-37231475D01*
X59403929Y-37226623D01*
X59436956Y-37225000D01*
X60563044Y-37225000D01*
X60596071Y-37226623D01*
X60596071Y-37226623D01*
G37*
D15*
X60000000Y-38000000D03*
D10*
G36*
X60596071Y-38926623D02*
X60628781Y-38931475D01*
X60660857Y-38939509D01*
X60691991Y-38950649D01*
X60721884Y-38964787D01*
X60750247Y-38981787D01*
X60776807Y-39001485D01*
X60801308Y-39023692D01*
X60823515Y-39048193D01*
X60843213Y-39074753D01*
X60860213Y-39103116D01*
X60874351Y-39133009D01*
X60885491Y-39164143D01*
X60893525Y-39196219D01*
X60898377Y-39228929D01*
X60900000Y-39261956D01*
X60900000Y-40138044D01*
X60898377Y-40171071D01*
X60893525Y-40203781D01*
X60885491Y-40235857D01*
X60874351Y-40266991D01*
X60860213Y-40296884D01*
X60843213Y-40325247D01*
X60823515Y-40351807D01*
X60801308Y-40376308D01*
X60776807Y-40398515D01*
X60750247Y-40418213D01*
X60721884Y-40435213D01*
X60691991Y-40449351D01*
X60660857Y-40460491D01*
X60628781Y-40468525D01*
X60596071Y-40473377D01*
X60563044Y-40475000D01*
X59436956Y-40475000D01*
X59403929Y-40473377D01*
X59371219Y-40468525D01*
X59339143Y-40460491D01*
X59308009Y-40449351D01*
X59278116Y-40435213D01*
X59249753Y-40418213D01*
X59223193Y-40398515D01*
X59198692Y-40376308D01*
X59176485Y-40351807D01*
X59156787Y-40325247D01*
X59139787Y-40296884D01*
X59125649Y-40266991D01*
X59114509Y-40235857D01*
X59106475Y-40203781D01*
X59101623Y-40171071D01*
X59100000Y-40138044D01*
X59100000Y-39261956D01*
X59101623Y-39228929D01*
X59106475Y-39196219D01*
X59114509Y-39164143D01*
X59125649Y-39133009D01*
X59139787Y-39103116D01*
X59156787Y-39074753D01*
X59176485Y-39048193D01*
X59198692Y-39023692D01*
X59223193Y-39001485D01*
X59249753Y-38981787D01*
X59278116Y-38964787D01*
X59308009Y-38950649D01*
X59339143Y-38939509D01*
X59371219Y-38931475D01*
X59403929Y-38926623D01*
X59436956Y-38925000D01*
X60563044Y-38925000D01*
X60596071Y-38926623D01*
X60596071Y-38926623D01*
G37*
D15*
X60000000Y-39700000D03*
G04 #@! TD*
D10*
G04 #@! TO.C,R13*
G36*
X43596071Y-38926623D02*
X43628781Y-38931475D01*
X43660857Y-38939509D01*
X43691991Y-38950649D01*
X43721884Y-38964787D01*
X43750247Y-38981787D01*
X43776807Y-39001485D01*
X43801308Y-39023692D01*
X43823515Y-39048193D01*
X43843213Y-39074753D01*
X43860213Y-39103116D01*
X43874351Y-39133009D01*
X43885491Y-39164143D01*
X43893525Y-39196219D01*
X43898377Y-39228929D01*
X43900000Y-39261956D01*
X43900000Y-40138044D01*
X43898377Y-40171071D01*
X43893525Y-40203781D01*
X43885491Y-40235857D01*
X43874351Y-40266991D01*
X43860213Y-40296884D01*
X43843213Y-40325247D01*
X43823515Y-40351807D01*
X43801308Y-40376308D01*
X43776807Y-40398515D01*
X43750247Y-40418213D01*
X43721884Y-40435213D01*
X43691991Y-40449351D01*
X43660857Y-40460491D01*
X43628781Y-40468525D01*
X43596071Y-40473377D01*
X43563044Y-40475000D01*
X42436956Y-40475000D01*
X42403929Y-40473377D01*
X42371219Y-40468525D01*
X42339143Y-40460491D01*
X42308009Y-40449351D01*
X42278116Y-40435213D01*
X42249753Y-40418213D01*
X42223193Y-40398515D01*
X42198692Y-40376308D01*
X42176485Y-40351807D01*
X42156787Y-40325247D01*
X42139787Y-40296884D01*
X42125649Y-40266991D01*
X42114509Y-40235857D01*
X42106475Y-40203781D01*
X42101623Y-40171071D01*
X42100000Y-40138044D01*
X42100000Y-39261956D01*
X42101623Y-39228929D01*
X42106475Y-39196219D01*
X42114509Y-39164143D01*
X42125649Y-39133009D01*
X42139787Y-39103116D01*
X42156787Y-39074753D01*
X42176485Y-39048193D01*
X42198692Y-39023692D01*
X42223193Y-39001485D01*
X42249753Y-38981787D01*
X42278116Y-38964787D01*
X42308009Y-38950649D01*
X42339143Y-38939509D01*
X42371219Y-38931475D01*
X42403929Y-38926623D01*
X42436956Y-38925000D01*
X43563044Y-38925000D01*
X43596071Y-38926623D01*
X43596071Y-38926623D01*
G37*
D15*
X43000000Y-39700000D03*
D10*
G36*
X43596071Y-37226623D02*
X43628781Y-37231475D01*
X43660857Y-37239509D01*
X43691991Y-37250649D01*
X43721884Y-37264787D01*
X43750247Y-37281787D01*
X43776807Y-37301485D01*
X43801308Y-37323692D01*
X43823515Y-37348193D01*
X43843213Y-37374753D01*
X43860213Y-37403116D01*
X43874351Y-37433009D01*
X43885491Y-37464143D01*
X43893525Y-37496219D01*
X43898377Y-37528929D01*
X43900000Y-37561956D01*
X43900000Y-38438044D01*
X43898377Y-38471071D01*
X43893525Y-38503781D01*
X43885491Y-38535857D01*
X43874351Y-38566991D01*
X43860213Y-38596884D01*
X43843213Y-38625247D01*
X43823515Y-38651807D01*
X43801308Y-38676308D01*
X43776807Y-38698515D01*
X43750247Y-38718213D01*
X43721884Y-38735213D01*
X43691991Y-38749351D01*
X43660857Y-38760491D01*
X43628781Y-38768525D01*
X43596071Y-38773377D01*
X43563044Y-38775000D01*
X42436956Y-38775000D01*
X42403929Y-38773377D01*
X42371219Y-38768525D01*
X42339143Y-38760491D01*
X42308009Y-38749351D01*
X42278116Y-38735213D01*
X42249753Y-38718213D01*
X42223193Y-38698515D01*
X42198692Y-38676308D01*
X42176485Y-38651807D01*
X42156787Y-38625247D01*
X42139787Y-38596884D01*
X42125649Y-38566991D01*
X42114509Y-38535857D01*
X42106475Y-38503781D01*
X42101623Y-38471071D01*
X42100000Y-38438044D01*
X42100000Y-37561956D01*
X42101623Y-37528929D01*
X42106475Y-37496219D01*
X42114509Y-37464143D01*
X42125649Y-37433009D01*
X42139787Y-37403116D01*
X42156787Y-37374753D01*
X42176485Y-37348193D01*
X42198692Y-37323692D01*
X42223193Y-37301485D01*
X42249753Y-37281787D01*
X42278116Y-37264787D01*
X42308009Y-37250649D01*
X42339143Y-37239509D01*
X42371219Y-37231475D01*
X42403929Y-37226623D01*
X42436956Y-37225000D01*
X43563044Y-37225000D01*
X43596071Y-37226623D01*
X43596071Y-37226623D01*
G37*
D15*
X43000000Y-38000000D03*
G04 #@! TD*
D10*
G04 #@! TO.C,R23*
G36*
X51096071Y-37226623D02*
X51128781Y-37231475D01*
X51160857Y-37239509D01*
X51191991Y-37250649D01*
X51221884Y-37264787D01*
X51250247Y-37281787D01*
X51276807Y-37301485D01*
X51301308Y-37323692D01*
X51323515Y-37348193D01*
X51343213Y-37374753D01*
X51360213Y-37403116D01*
X51374351Y-37433009D01*
X51385491Y-37464143D01*
X51393525Y-37496219D01*
X51398377Y-37528929D01*
X51400000Y-37561956D01*
X51400000Y-38438044D01*
X51398377Y-38471071D01*
X51393525Y-38503781D01*
X51385491Y-38535857D01*
X51374351Y-38566991D01*
X51360213Y-38596884D01*
X51343213Y-38625247D01*
X51323515Y-38651807D01*
X51301308Y-38676308D01*
X51276807Y-38698515D01*
X51250247Y-38718213D01*
X51221884Y-38735213D01*
X51191991Y-38749351D01*
X51160857Y-38760491D01*
X51128781Y-38768525D01*
X51096071Y-38773377D01*
X51063044Y-38775000D01*
X49936956Y-38775000D01*
X49903929Y-38773377D01*
X49871219Y-38768525D01*
X49839143Y-38760491D01*
X49808009Y-38749351D01*
X49778116Y-38735213D01*
X49749753Y-38718213D01*
X49723193Y-38698515D01*
X49698692Y-38676308D01*
X49676485Y-38651807D01*
X49656787Y-38625247D01*
X49639787Y-38596884D01*
X49625649Y-38566991D01*
X49614509Y-38535857D01*
X49606475Y-38503781D01*
X49601623Y-38471071D01*
X49600000Y-38438044D01*
X49600000Y-37561956D01*
X49601623Y-37528929D01*
X49606475Y-37496219D01*
X49614509Y-37464143D01*
X49625649Y-37433009D01*
X49639787Y-37403116D01*
X49656787Y-37374753D01*
X49676485Y-37348193D01*
X49698692Y-37323692D01*
X49723193Y-37301485D01*
X49749753Y-37281787D01*
X49778116Y-37264787D01*
X49808009Y-37250649D01*
X49839143Y-37239509D01*
X49871219Y-37231475D01*
X49903929Y-37226623D01*
X49936956Y-37225000D01*
X51063044Y-37225000D01*
X51096071Y-37226623D01*
X51096071Y-37226623D01*
G37*
D15*
X50500000Y-38000000D03*
D10*
G36*
X51096071Y-38926623D02*
X51128781Y-38931475D01*
X51160857Y-38939509D01*
X51191991Y-38950649D01*
X51221884Y-38964787D01*
X51250247Y-38981787D01*
X51276807Y-39001485D01*
X51301308Y-39023692D01*
X51323515Y-39048193D01*
X51343213Y-39074753D01*
X51360213Y-39103116D01*
X51374351Y-39133009D01*
X51385491Y-39164143D01*
X51393525Y-39196219D01*
X51398377Y-39228929D01*
X51400000Y-39261956D01*
X51400000Y-40138044D01*
X51398377Y-40171071D01*
X51393525Y-40203781D01*
X51385491Y-40235857D01*
X51374351Y-40266991D01*
X51360213Y-40296884D01*
X51343213Y-40325247D01*
X51323515Y-40351807D01*
X51301308Y-40376308D01*
X51276807Y-40398515D01*
X51250247Y-40418213D01*
X51221884Y-40435213D01*
X51191991Y-40449351D01*
X51160857Y-40460491D01*
X51128781Y-40468525D01*
X51096071Y-40473377D01*
X51063044Y-40475000D01*
X49936956Y-40475000D01*
X49903929Y-40473377D01*
X49871219Y-40468525D01*
X49839143Y-40460491D01*
X49808009Y-40449351D01*
X49778116Y-40435213D01*
X49749753Y-40418213D01*
X49723193Y-40398515D01*
X49698692Y-40376308D01*
X49676485Y-40351807D01*
X49656787Y-40325247D01*
X49639787Y-40296884D01*
X49625649Y-40266991D01*
X49614509Y-40235857D01*
X49606475Y-40203781D01*
X49601623Y-40171071D01*
X49600000Y-40138044D01*
X49600000Y-39261956D01*
X49601623Y-39228929D01*
X49606475Y-39196219D01*
X49614509Y-39164143D01*
X49625649Y-39133009D01*
X49639787Y-39103116D01*
X49656787Y-39074753D01*
X49676485Y-39048193D01*
X49698692Y-39023692D01*
X49723193Y-39001485D01*
X49749753Y-38981787D01*
X49778116Y-38964787D01*
X49808009Y-38950649D01*
X49839143Y-38939509D01*
X49871219Y-38931475D01*
X49903929Y-38926623D01*
X49936956Y-38925000D01*
X51063044Y-38925000D01*
X51096071Y-38926623D01*
X51096071Y-38926623D01*
G37*
D15*
X50500000Y-39700000D03*
G04 #@! TD*
D10*
G04 #@! TO.C,R33*
G36*
X53096071Y-38926623D02*
X53128781Y-38931475D01*
X53160857Y-38939509D01*
X53191991Y-38950649D01*
X53221884Y-38964787D01*
X53250247Y-38981787D01*
X53276807Y-39001485D01*
X53301308Y-39023692D01*
X53323515Y-39048193D01*
X53343213Y-39074753D01*
X53360213Y-39103116D01*
X53374351Y-39133009D01*
X53385491Y-39164143D01*
X53393525Y-39196219D01*
X53398377Y-39228929D01*
X53400000Y-39261956D01*
X53400000Y-40138044D01*
X53398377Y-40171071D01*
X53393525Y-40203781D01*
X53385491Y-40235857D01*
X53374351Y-40266991D01*
X53360213Y-40296884D01*
X53343213Y-40325247D01*
X53323515Y-40351807D01*
X53301308Y-40376308D01*
X53276807Y-40398515D01*
X53250247Y-40418213D01*
X53221884Y-40435213D01*
X53191991Y-40449351D01*
X53160857Y-40460491D01*
X53128781Y-40468525D01*
X53096071Y-40473377D01*
X53063044Y-40475000D01*
X51936956Y-40475000D01*
X51903929Y-40473377D01*
X51871219Y-40468525D01*
X51839143Y-40460491D01*
X51808009Y-40449351D01*
X51778116Y-40435213D01*
X51749753Y-40418213D01*
X51723193Y-40398515D01*
X51698692Y-40376308D01*
X51676485Y-40351807D01*
X51656787Y-40325247D01*
X51639787Y-40296884D01*
X51625649Y-40266991D01*
X51614509Y-40235857D01*
X51606475Y-40203781D01*
X51601623Y-40171071D01*
X51600000Y-40138044D01*
X51600000Y-39261956D01*
X51601623Y-39228929D01*
X51606475Y-39196219D01*
X51614509Y-39164143D01*
X51625649Y-39133009D01*
X51639787Y-39103116D01*
X51656787Y-39074753D01*
X51676485Y-39048193D01*
X51698692Y-39023692D01*
X51723193Y-39001485D01*
X51749753Y-38981787D01*
X51778116Y-38964787D01*
X51808009Y-38950649D01*
X51839143Y-38939509D01*
X51871219Y-38931475D01*
X51903929Y-38926623D01*
X51936956Y-38925000D01*
X53063044Y-38925000D01*
X53096071Y-38926623D01*
X53096071Y-38926623D01*
G37*
D15*
X52500000Y-39700000D03*
D10*
G36*
X53096071Y-37226623D02*
X53128781Y-37231475D01*
X53160857Y-37239509D01*
X53191991Y-37250649D01*
X53221884Y-37264787D01*
X53250247Y-37281787D01*
X53276807Y-37301485D01*
X53301308Y-37323692D01*
X53323515Y-37348193D01*
X53343213Y-37374753D01*
X53360213Y-37403116D01*
X53374351Y-37433009D01*
X53385491Y-37464143D01*
X53393525Y-37496219D01*
X53398377Y-37528929D01*
X53400000Y-37561956D01*
X53400000Y-38438044D01*
X53398377Y-38471071D01*
X53393525Y-38503781D01*
X53385491Y-38535857D01*
X53374351Y-38566991D01*
X53360213Y-38596884D01*
X53343213Y-38625247D01*
X53323515Y-38651807D01*
X53301308Y-38676308D01*
X53276807Y-38698515D01*
X53250247Y-38718213D01*
X53221884Y-38735213D01*
X53191991Y-38749351D01*
X53160857Y-38760491D01*
X53128781Y-38768525D01*
X53096071Y-38773377D01*
X53063044Y-38775000D01*
X51936956Y-38775000D01*
X51903929Y-38773377D01*
X51871219Y-38768525D01*
X51839143Y-38760491D01*
X51808009Y-38749351D01*
X51778116Y-38735213D01*
X51749753Y-38718213D01*
X51723193Y-38698515D01*
X51698692Y-38676308D01*
X51676485Y-38651807D01*
X51656787Y-38625247D01*
X51639787Y-38596884D01*
X51625649Y-38566991D01*
X51614509Y-38535857D01*
X51606475Y-38503781D01*
X51601623Y-38471071D01*
X51600000Y-38438044D01*
X51600000Y-37561956D01*
X51601623Y-37528929D01*
X51606475Y-37496219D01*
X51614509Y-37464143D01*
X51625649Y-37433009D01*
X51639787Y-37403116D01*
X51656787Y-37374753D01*
X51676485Y-37348193D01*
X51698692Y-37323692D01*
X51723193Y-37301485D01*
X51749753Y-37281787D01*
X51778116Y-37264787D01*
X51808009Y-37250649D01*
X51839143Y-37239509D01*
X51871219Y-37231475D01*
X51903929Y-37226623D01*
X51936956Y-37225000D01*
X53063044Y-37225000D01*
X53096071Y-37226623D01*
X53096071Y-37226623D01*
G37*
D15*
X52500000Y-38000000D03*
G04 #@! TD*
D10*
G04 #@! TO.C,C41*
G36*
X58277346Y-32476589D02*
X58309380Y-32481341D01*
X58340794Y-32489210D01*
X58371286Y-32500120D01*
X58400561Y-32513966D01*
X58428338Y-32530615D01*
X58454350Y-32549907D01*
X58478345Y-32571655D01*
X58500093Y-32595650D01*
X58519385Y-32621662D01*
X58536034Y-32649439D01*
X58549880Y-32678714D01*
X58560790Y-32709206D01*
X58568659Y-32740620D01*
X58573411Y-32772654D01*
X58575000Y-32805000D01*
X58575000Y-33795000D01*
X58573411Y-33827346D01*
X58568659Y-33859380D01*
X58560790Y-33890794D01*
X58549880Y-33921286D01*
X58536034Y-33950561D01*
X58519385Y-33978338D01*
X58500093Y-34004350D01*
X58478345Y-34028345D01*
X58454350Y-34050093D01*
X58428338Y-34069385D01*
X58400561Y-34086034D01*
X58371286Y-34099880D01*
X58340794Y-34110790D01*
X58309380Y-34118659D01*
X58277346Y-34123411D01*
X58245000Y-34125000D01*
X56755000Y-34125000D01*
X56722654Y-34123411D01*
X56690620Y-34118659D01*
X56659206Y-34110790D01*
X56628714Y-34099880D01*
X56599439Y-34086034D01*
X56571662Y-34069385D01*
X56545650Y-34050093D01*
X56521655Y-34028345D01*
X56499907Y-34004350D01*
X56480615Y-33978338D01*
X56463966Y-33950561D01*
X56450120Y-33921286D01*
X56439210Y-33890794D01*
X56431341Y-33859380D01*
X56426589Y-33827346D01*
X56425000Y-33795000D01*
X56425000Y-32805000D01*
X56426589Y-32772654D01*
X56431341Y-32740620D01*
X56439210Y-32709206D01*
X56450120Y-32678714D01*
X56463966Y-32649439D01*
X56480615Y-32621662D01*
X56499907Y-32595650D01*
X56521655Y-32571655D01*
X56545650Y-32549907D01*
X56571662Y-32530615D01*
X56599439Y-32513966D01*
X56628714Y-32500120D01*
X56659206Y-32489210D01*
X56690620Y-32481341D01*
X56722654Y-32476589D01*
X56755000Y-32475000D01*
X58245000Y-32475000D01*
X58277346Y-32476589D01*
X58277346Y-32476589D01*
G37*
D11*
X57500000Y-33300000D03*
D10*
G36*
X58277346Y-29676589D02*
X58309380Y-29681341D01*
X58340794Y-29689210D01*
X58371286Y-29700120D01*
X58400561Y-29713966D01*
X58428338Y-29730615D01*
X58454350Y-29749907D01*
X58478345Y-29771655D01*
X58500093Y-29795650D01*
X58519385Y-29821662D01*
X58536034Y-29849439D01*
X58549880Y-29878714D01*
X58560790Y-29909206D01*
X58568659Y-29940620D01*
X58573411Y-29972654D01*
X58575000Y-30005000D01*
X58575000Y-30995000D01*
X58573411Y-31027346D01*
X58568659Y-31059380D01*
X58560790Y-31090794D01*
X58549880Y-31121286D01*
X58536034Y-31150561D01*
X58519385Y-31178338D01*
X58500093Y-31204350D01*
X58478345Y-31228345D01*
X58454350Y-31250093D01*
X58428338Y-31269385D01*
X58400561Y-31286034D01*
X58371286Y-31299880D01*
X58340794Y-31310790D01*
X58309380Y-31318659D01*
X58277346Y-31323411D01*
X58245000Y-31325000D01*
X56755000Y-31325000D01*
X56722654Y-31323411D01*
X56690620Y-31318659D01*
X56659206Y-31310790D01*
X56628714Y-31299880D01*
X56599439Y-31286034D01*
X56571662Y-31269385D01*
X56545650Y-31250093D01*
X56521655Y-31228345D01*
X56499907Y-31204350D01*
X56480615Y-31178338D01*
X56463966Y-31150561D01*
X56450120Y-31121286D01*
X56439210Y-31090794D01*
X56431341Y-31059380D01*
X56426589Y-31027346D01*
X56425000Y-30995000D01*
X56425000Y-30005000D01*
X56426589Y-29972654D01*
X56431341Y-29940620D01*
X56439210Y-29909206D01*
X56450120Y-29878714D01*
X56463966Y-29849439D01*
X56480615Y-29821662D01*
X56499907Y-29795650D01*
X56521655Y-29771655D01*
X56545650Y-29749907D01*
X56571662Y-29730615D01*
X56599439Y-29713966D01*
X56628714Y-29700120D01*
X56659206Y-29689210D01*
X56690620Y-29681341D01*
X56722654Y-29676589D01*
X56755000Y-29675000D01*
X58245000Y-29675000D01*
X58277346Y-29676589D01*
X58277346Y-29676589D01*
G37*
D11*
X57500000Y-30500000D03*
G04 #@! TD*
D10*
G04 #@! TO.C,C31*
G36*
X55777346Y-29676589D02*
X55809380Y-29681341D01*
X55840794Y-29689210D01*
X55871286Y-29700120D01*
X55900561Y-29713966D01*
X55928338Y-29730615D01*
X55954350Y-29749907D01*
X55978345Y-29771655D01*
X56000093Y-29795650D01*
X56019385Y-29821662D01*
X56036034Y-29849439D01*
X56049880Y-29878714D01*
X56060790Y-29909206D01*
X56068659Y-29940620D01*
X56073411Y-29972654D01*
X56075000Y-30005000D01*
X56075000Y-30995000D01*
X56073411Y-31027346D01*
X56068659Y-31059380D01*
X56060790Y-31090794D01*
X56049880Y-31121286D01*
X56036034Y-31150561D01*
X56019385Y-31178338D01*
X56000093Y-31204350D01*
X55978345Y-31228345D01*
X55954350Y-31250093D01*
X55928338Y-31269385D01*
X55900561Y-31286034D01*
X55871286Y-31299880D01*
X55840794Y-31310790D01*
X55809380Y-31318659D01*
X55777346Y-31323411D01*
X55745000Y-31325000D01*
X54255000Y-31325000D01*
X54222654Y-31323411D01*
X54190620Y-31318659D01*
X54159206Y-31310790D01*
X54128714Y-31299880D01*
X54099439Y-31286034D01*
X54071662Y-31269385D01*
X54045650Y-31250093D01*
X54021655Y-31228345D01*
X53999907Y-31204350D01*
X53980615Y-31178338D01*
X53963966Y-31150561D01*
X53950120Y-31121286D01*
X53939210Y-31090794D01*
X53931341Y-31059380D01*
X53926589Y-31027346D01*
X53925000Y-30995000D01*
X53925000Y-30005000D01*
X53926589Y-29972654D01*
X53931341Y-29940620D01*
X53939210Y-29909206D01*
X53950120Y-29878714D01*
X53963966Y-29849439D01*
X53980615Y-29821662D01*
X53999907Y-29795650D01*
X54021655Y-29771655D01*
X54045650Y-29749907D01*
X54071662Y-29730615D01*
X54099439Y-29713966D01*
X54128714Y-29700120D01*
X54159206Y-29689210D01*
X54190620Y-29681341D01*
X54222654Y-29676589D01*
X54255000Y-29675000D01*
X55745000Y-29675000D01*
X55777346Y-29676589D01*
X55777346Y-29676589D01*
G37*
D11*
X55000000Y-30500000D03*
D10*
G36*
X55777346Y-32476589D02*
X55809380Y-32481341D01*
X55840794Y-32489210D01*
X55871286Y-32500120D01*
X55900561Y-32513966D01*
X55928338Y-32530615D01*
X55954350Y-32549907D01*
X55978345Y-32571655D01*
X56000093Y-32595650D01*
X56019385Y-32621662D01*
X56036034Y-32649439D01*
X56049880Y-32678714D01*
X56060790Y-32709206D01*
X56068659Y-32740620D01*
X56073411Y-32772654D01*
X56075000Y-32805000D01*
X56075000Y-33795000D01*
X56073411Y-33827346D01*
X56068659Y-33859380D01*
X56060790Y-33890794D01*
X56049880Y-33921286D01*
X56036034Y-33950561D01*
X56019385Y-33978338D01*
X56000093Y-34004350D01*
X55978345Y-34028345D01*
X55954350Y-34050093D01*
X55928338Y-34069385D01*
X55900561Y-34086034D01*
X55871286Y-34099880D01*
X55840794Y-34110790D01*
X55809380Y-34118659D01*
X55777346Y-34123411D01*
X55745000Y-34125000D01*
X54255000Y-34125000D01*
X54222654Y-34123411D01*
X54190620Y-34118659D01*
X54159206Y-34110790D01*
X54128714Y-34099880D01*
X54099439Y-34086034D01*
X54071662Y-34069385D01*
X54045650Y-34050093D01*
X54021655Y-34028345D01*
X53999907Y-34004350D01*
X53980615Y-33978338D01*
X53963966Y-33950561D01*
X53950120Y-33921286D01*
X53939210Y-33890794D01*
X53931341Y-33859380D01*
X53926589Y-33827346D01*
X53925000Y-33795000D01*
X53925000Y-32805000D01*
X53926589Y-32772654D01*
X53931341Y-32740620D01*
X53939210Y-32709206D01*
X53950120Y-32678714D01*
X53963966Y-32649439D01*
X53980615Y-32621662D01*
X53999907Y-32595650D01*
X54021655Y-32571655D01*
X54045650Y-32549907D01*
X54071662Y-32530615D01*
X54099439Y-32513966D01*
X54128714Y-32500120D01*
X54159206Y-32489210D01*
X54190620Y-32481341D01*
X54222654Y-32476589D01*
X54255000Y-32475000D01*
X55745000Y-32475000D01*
X55777346Y-32476589D01*
X55777346Y-32476589D01*
G37*
D11*
X55000000Y-33300000D03*
G04 #@! TD*
D10*
G04 #@! TO.C,C21*
G36*
X48777346Y-32476589D02*
X48809380Y-32481341D01*
X48840794Y-32489210D01*
X48871286Y-32500120D01*
X48900561Y-32513966D01*
X48928338Y-32530615D01*
X48954350Y-32549907D01*
X48978345Y-32571655D01*
X49000093Y-32595650D01*
X49019385Y-32621662D01*
X49036034Y-32649439D01*
X49049880Y-32678714D01*
X49060790Y-32709206D01*
X49068659Y-32740620D01*
X49073411Y-32772654D01*
X49075000Y-32805000D01*
X49075000Y-33795000D01*
X49073411Y-33827346D01*
X49068659Y-33859380D01*
X49060790Y-33890794D01*
X49049880Y-33921286D01*
X49036034Y-33950561D01*
X49019385Y-33978338D01*
X49000093Y-34004350D01*
X48978345Y-34028345D01*
X48954350Y-34050093D01*
X48928338Y-34069385D01*
X48900561Y-34086034D01*
X48871286Y-34099880D01*
X48840794Y-34110790D01*
X48809380Y-34118659D01*
X48777346Y-34123411D01*
X48745000Y-34125000D01*
X47255000Y-34125000D01*
X47222654Y-34123411D01*
X47190620Y-34118659D01*
X47159206Y-34110790D01*
X47128714Y-34099880D01*
X47099439Y-34086034D01*
X47071662Y-34069385D01*
X47045650Y-34050093D01*
X47021655Y-34028345D01*
X46999907Y-34004350D01*
X46980615Y-33978338D01*
X46963966Y-33950561D01*
X46950120Y-33921286D01*
X46939210Y-33890794D01*
X46931341Y-33859380D01*
X46926589Y-33827346D01*
X46925000Y-33795000D01*
X46925000Y-32805000D01*
X46926589Y-32772654D01*
X46931341Y-32740620D01*
X46939210Y-32709206D01*
X46950120Y-32678714D01*
X46963966Y-32649439D01*
X46980615Y-32621662D01*
X46999907Y-32595650D01*
X47021655Y-32571655D01*
X47045650Y-32549907D01*
X47071662Y-32530615D01*
X47099439Y-32513966D01*
X47128714Y-32500120D01*
X47159206Y-32489210D01*
X47190620Y-32481341D01*
X47222654Y-32476589D01*
X47255000Y-32475000D01*
X48745000Y-32475000D01*
X48777346Y-32476589D01*
X48777346Y-32476589D01*
G37*
D11*
X48000000Y-33300000D03*
D10*
G36*
X48777346Y-29676589D02*
X48809380Y-29681341D01*
X48840794Y-29689210D01*
X48871286Y-29700120D01*
X48900561Y-29713966D01*
X48928338Y-29730615D01*
X48954350Y-29749907D01*
X48978345Y-29771655D01*
X49000093Y-29795650D01*
X49019385Y-29821662D01*
X49036034Y-29849439D01*
X49049880Y-29878714D01*
X49060790Y-29909206D01*
X49068659Y-29940620D01*
X49073411Y-29972654D01*
X49075000Y-30005000D01*
X49075000Y-30995000D01*
X49073411Y-31027346D01*
X49068659Y-31059380D01*
X49060790Y-31090794D01*
X49049880Y-31121286D01*
X49036034Y-31150561D01*
X49019385Y-31178338D01*
X49000093Y-31204350D01*
X48978345Y-31228345D01*
X48954350Y-31250093D01*
X48928338Y-31269385D01*
X48900561Y-31286034D01*
X48871286Y-31299880D01*
X48840794Y-31310790D01*
X48809380Y-31318659D01*
X48777346Y-31323411D01*
X48745000Y-31325000D01*
X47255000Y-31325000D01*
X47222654Y-31323411D01*
X47190620Y-31318659D01*
X47159206Y-31310790D01*
X47128714Y-31299880D01*
X47099439Y-31286034D01*
X47071662Y-31269385D01*
X47045650Y-31250093D01*
X47021655Y-31228345D01*
X46999907Y-31204350D01*
X46980615Y-31178338D01*
X46963966Y-31150561D01*
X46950120Y-31121286D01*
X46939210Y-31090794D01*
X46931341Y-31059380D01*
X46926589Y-31027346D01*
X46925000Y-30995000D01*
X46925000Y-30005000D01*
X46926589Y-29972654D01*
X46931341Y-29940620D01*
X46939210Y-29909206D01*
X46950120Y-29878714D01*
X46963966Y-29849439D01*
X46980615Y-29821662D01*
X46999907Y-29795650D01*
X47021655Y-29771655D01*
X47045650Y-29749907D01*
X47071662Y-29730615D01*
X47099439Y-29713966D01*
X47128714Y-29700120D01*
X47159206Y-29689210D01*
X47190620Y-29681341D01*
X47222654Y-29676589D01*
X47255000Y-29675000D01*
X48745000Y-29675000D01*
X48777346Y-29676589D01*
X48777346Y-29676589D01*
G37*
D11*
X48000000Y-30500000D03*
G04 #@! TD*
D10*
G04 #@! TO.C,R11*
G36*
X43596071Y-31226623D02*
X43628781Y-31231475D01*
X43660857Y-31239509D01*
X43691991Y-31250649D01*
X43721884Y-31264787D01*
X43750247Y-31281787D01*
X43776807Y-31301485D01*
X43801308Y-31323692D01*
X43823515Y-31348193D01*
X43843213Y-31374753D01*
X43860213Y-31403116D01*
X43874351Y-31433009D01*
X43885491Y-31464143D01*
X43893525Y-31496219D01*
X43898377Y-31528929D01*
X43900000Y-31561956D01*
X43900000Y-32438044D01*
X43898377Y-32471071D01*
X43893525Y-32503781D01*
X43885491Y-32535857D01*
X43874351Y-32566991D01*
X43860213Y-32596884D01*
X43843213Y-32625247D01*
X43823515Y-32651807D01*
X43801308Y-32676308D01*
X43776807Y-32698515D01*
X43750247Y-32718213D01*
X43721884Y-32735213D01*
X43691991Y-32749351D01*
X43660857Y-32760491D01*
X43628781Y-32768525D01*
X43596071Y-32773377D01*
X43563044Y-32775000D01*
X42436956Y-32775000D01*
X42403929Y-32773377D01*
X42371219Y-32768525D01*
X42339143Y-32760491D01*
X42308009Y-32749351D01*
X42278116Y-32735213D01*
X42249753Y-32718213D01*
X42223193Y-32698515D01*
X42198692Y-32676308D01*
X42176485Y-32651807D01*
X42156787Y-32625247D01*
X42139787Y-32596884D01*
X42125649Y-32566991D01*
X42114509Y-32535857D01*
X42106475Y-32503781D01*
X42101623Y-32471071D01*
X42100000Y-32438044D01*
X42100000Y-31561956D01*
X42101623Y-31528929D01*
X42106475Y-31496219D01*
X42114509Y-31464143D01*
X42125649Y-31433009D01*
X42139787Y-31403116D01*
X42156787Y-31374753D01*
X42176485Y-31348193D01*
X42198692Y-31323692D01*
X42223193Y-31301485D01*
X42249753Y-31281787D01*
X42278116Y-31264787D01*
X42308009Y-31250649D01*
X42339143Y-31239509D01*
X42371219Y-31231475D01*
X42403929Y-31226623D01*
X42436956Y-31225000D01*
X43563044Y-31225000D01*
X43596071Y-31226623D01*
X43596071Y-31226623D01*
G37*
D15*
X43000000Y-32000000D03*
D10*
G36*
X43596071Y-29526623D02*
X43628781Y-29531475D01*
X43660857Y-29539509D01*
X43691991Y-29550649D01*
X43721884Y-29564787D01*
X43750247Y-29581787D01*
X43776807Y-29601485D01*
X43801308Y-29623692D01*
X43823515Y-29648193D01*
X43843213Y-29674753D01*
X43860213Y-29703116D01*
X43874351Y-29733009D01*
X43885491Y-29764143D01*
X43893525Y-29796219D01*
X43898377Y-29828929D01*
X43900000Y-29861956D01*
X43900000Y-30738044D01*
X43898377Y-30771071D01*
X43893525Y-30803781D01*
X43885491Y-30835857D01*
X43874351Y-30866991D01*
X43860213Y-30896884D01*
X43843213Y-30925247D01*
X43823515Y-30951807D01*
X43801308Y-30976308D01*
X43776807Y-30998515D01*
X43750247Y-31018213D01*
X43721884Y-31035213D01*
X43691991Y-31049351D01*
X43660857Y-31060491D01*
X43628781Y-31068525D01*
X43596071Y-31073377D01*
X43563044Y-31075000D01*
X42436956Y-31075000D01*
X42403929Y-31073377D01*
X42371219Y-31068525D01*
X42339143Y-31060491D01*
X42308009Y-31049351D01*
X42278116Y-31035213D01*
X42249753Y-31018213D01*
X42223193Y-30998515D01*
X42198692Y-30976308D01*
X42176485Y-30951807D01*
X42156787Y-30925247D01*
X42139787Y-30896884D01*
X42125649Y-30866991D01*
X42114509Y-30835857D01*
X42106475Y-30803781D01*
X42101623Y-30771071D01*
X42100000Y-30738044D01*
X42100000Y-29861956D01*
X42101623Y-29828929D01*
X42106475Y-29796219D01*
X42114509Y-29764143D01*
X42125649Y-29733009D01*
X42139787Y-29703116D01*
X42156787Y-29674753D01*
X42176485Y-29648193D01*
X42198692Y-29623692D01*
X42223193Y-29601485D01*
X42249753Y-29581787D01*
X42278116Y-29564787D01*
X42308009Y-29550649D01*
X42339143Y-29539509D01*
X42371219Y-29531475D01*
X42403929Y-29526623D01*
X42436956Y-29525000D01*
X43563044Y-29525000D01*
X43596071Y-29526623D01*
X43596071Y-29526623D01*
G37*
D15*
X43000000Y-30300000D03*
G04 #@! TD*
D10*
G04 #@! TO.C,R21*
G36*
X51096071Y-31226623D02*
X51128781Y-31231475D01*
X51160857Y-31239509D01*
X51191991Y-31250649D01*
X51221884Y-31264787D01*
X51250247Y-31281787D01*
X51276807Y-31301485D01*
X51301308Y-31323692D01*
X51323515Y-31348193D01*
X51343213Y-31374753D01*
X51360213Y-31403116D01*
X51374351Y-31433009D01*
X51385491Y-31464143D01*
X51393525Y-31496219D01*
X51398377Y-31528929D01*
X51400000Y-31561956D01*
X51400000Y-32438044D01*
X51398377Y-32471071D01*
X51393525Y-32503781D01*
X51385491Y-32535857D01*
X51374351Y-32566991D01*
X51360213Y-32596884D01*
X51343213Y-32625247D01*
X51323515Y-32651807D01*
X51301308Y-32676308D01*
X51276807Y-32698515D01*
X51250247Y-32718213D01*
X51221884Y-32735213D01*
X51191991Y-32749351D01*
X51160857Y-32760491D01*
X51128781Y-32768525D01*
X51096071Y-32773377D01*
X51063044Y-32775000D01*
X49936956Y-32775000D01*
X49903929Y-32773377D01*
X49871219Y-32768525D01*
X49839143Y-32760491D01*
X49808009Y-32749351D01*
X49778116Y-32735213D01*
X49749753Y-32718213D01*
X49723193Y-32698515D01*
X49698692Y-32676308D01*
X49676485Y-32651807D01*
X49656787Y-32625247D01*
X49639787Y-32596884D01*
X49625649Y-32566991D01*
X49614509Y-32535857D01*
X49606475Y-32503781D01*
X49601623Y-32471071D01*
X49600000Y-32438044D01*
X49600000Y-31561956D01*
X49601623Y-31528929D01*
X49606475Y-31496219D01*
X49614509Y-31464143D01*
X49625649Y-31433009D01*
X49639787Y-31403116D01*
X49656787Y-31374753D01*
X49676485Y-31348193D01*
X49698692Y-31323692D01*
X49723193Y-31301485D01*
X49749753Y-31281787D01*
X49778116Y-31264787D01*
X49808009Y-31250649D01*
X49839143Y-31239509D01*
X49871219Y-31231475D01*
X49903929Y-31226623D01*
X49936956Y-31225000D01*
X51063044Y-31225000D01*
X51096071Y-31226623D01*
X51096071Y-31226623D01*
G37*
D15*
X50500000Y-32000000D03*
D10*
G36*
X51096071Y-29526623D02*
X51128781Y-29531475D01*
X51160857Y-29539509D01*
X51191991Y-29550649D01*
X51221884Y-29564787D01*
X51250247Y-29581787D01*
X51276807Y-29601485D01*
X51301308Y-29623692D01*
X51323515Y-29648193D01*
X51343213Y-29674753D01*
X51360213Y-29703116D01*
X51374351Y-29733009D01*
X51385491Y-29764143D01*
X51393525Y-29796219D01*
X51398377Y-29828929D01*
X51400000Y-29861956D01*
X51400000Y-30738044D01*
X51398377Y-30771071D01*
X51393525Y-30803781D01*
X51385491Y-30835857D01*
X51374351Y-30866991D01*
X51360213Y-30896884D01*
X51343213Y-30925247D01*
X51323515Y-30951807D01*
X51301308Y-30976308D01*
X51276807Y-30998515D01*
X51250247Y-31018213D01*
X51221884Y-31035213D01*
X51191991Y-31049351D01*
X51160857Y-31060491D01*
X51128781Y-31068525D01*
X51096071Y-31073377D01*
X51063044Y-31075000D01*
X49936956Y-31075000D01*
X49903929Y-31073377D01*
X49871219Y-31068525D01*
X49839143Y-31060491D01*
X49808009Y-31049351D01*
X49778116Y-31035213D01*
X49749753Y-31018213D01*
X49723193Y-30998515D01*
X49698692Y-30976308D01*
X49676485Y-30951807D01*
X49656787Y-30925247D01*
X49639787Y-30896884D01*
X49625649Y-30866991D01*
X49614509Y-30835857D01*
X49606475Y-30803781D01*
X49601623Y-30771071D01*
X49600000Y-30738044D01*
X49600000Y-29861956D01*
X49601623Y-29828929D01*
X49606475Y-29796219D01*
X49614509Y-29764143D01*
X49625649Y-29733009D01*
X49639787Y-29703116D01*
X49656787Y-29674753D01*
X49676485Y-29648193D01*
X49698692Y-29623692D01*
X49723193Y-29601485D01*
X49749753Y-29581787D01*
X49778116Y-29564787D01*
X49808009Y-29550649D01*
X49839143Y-29539509D01*
X49871219Y-29531475D01*
X49903929Y-29526623D01*
X49936956Y-29525000D01*
X51063044Y-29525000D01*
X51096071Y-29526623D01*
X51096071Y-29526623D01*
G37*
D15*
X50500000Y-30300000D03*
G04 #@! TD*
D10*
G04 #@! TO.C,R31*
G36*
X53096071Y-31226623D02*
X53128781Y-31231475D01*
X53160857Y-31239509D01*
X53191991Y-31250649D01*
X53221884Y-31264787D01*
X53250247Y-31281787D01*
X53276807Y-31301485D01*
X53301308Y-31323692D01*
X53323515Y-31348193D01*
X53343213Y-31374753D01*
X53360213Y-31403116D01*
X53374351Y-31433009D01*
X53385491Y-31464143D01*
X53393525Y-31496219D01*
X53398377Y-31528929D01*
X53400000Y-31561956D01*
X53400000Y-32438044D01*
X53398377Y-32471071D01*
X53393525Y-32503781D01*
X53385491Y-32535857D01*
X53374351Y-32566991D01*
X53360213Y-32596884D01*
X53343213Y-32625247D01*
X53323515Y-32651807D01*
X53301308Y-32676308D01*
X53276807Y-32698515D01*
X53250247Y-32718213D01*
X53221884Y-32735213D01*
X53191991Y-32749351D01*
X53160857Y-32760491D01*
X53128781Y-32768525D01*
X53096071Y-32773377D01*
X53063044Y-32775000D01*
X51936956Y-32775000D01*
X51903929Y-32773377D01*
X51871219Y-32768525D01*
X51839143Y-32760491D01*
X51808009Y-32749351D01*
X51778116Y-32735213D01*
X51749753Y-32718213D01*
X51723193Y-32698515D01*
X51698692Y-32676308D01*
X51676485Y-32651807D01*
X51656787Y-32625247D01*
X51639787Y-32596884D01*
X51625649Y-32566991D01*
X51614509Y-32535857D01*
X51606475Y-32503781D01*
X51601623Y-32471071D01*
X51600000Y-32438044D01*
X51600000Y-31561956D01*
X51601623Y-31528929D01*
X51606475Y-31496219D01*
X51614509Y-31464143D01*
X51625649Y-31433009D01*
X51639787Y-31403116D01*
X51656787Y-31374753D01*
X51676485Y-31348193D01*
X51698692Y-31323692D01*
X51723193Y-31301485D01*
X51749753Y-31281787D01*
X51778116Y-31264787D01*
X51808009Y-31250649D01*
X51839143Y-31239509D01*
X51871219Y-31231475D01*
X51903929Y-31226623D01*
X51936956Y-31225000D01*
X53063044Y-31225000D01*
X53096071Y-31226623D01*
X53096071Y-31226623D01*
G37*
D15*
X52500000Y-32000000D03*
D10*
G36*
X53096071Y-29526623D02*
X53128781Y-29531475D01*
X53160857Y-29539509D01*
X53191991Y-29550649D01*
X53221884Y-29564787D01*
X53250247Y-29581787D01*
X53276807Y-29601485D01*
X53301308Y-29623692D01*
X53323515Y-29648193D01*
X53343213Y-29674753D01*
X53360213Y-29703116D01*
X53374351Y-29733009D01*
X53385491Y-29764143D01*
X53393525Y-29796219D01*
X53398377Y-29828929D01*
X53400000Y-29861956D01*
X53400000Y-30738044D01*
X53398377Y-30771071D01*
X53393525Y-30803781D01*
X53385491Y-30835857D01*
X53374351Y-30866991D01*
X53360213Y-30896884D01*
X53343213Y-30925247D01*
X53323515Y-30951807D01*
X53301308Y-30976308D01*
X53276807Y-30998515D01*
X53250247Y-31018213D01*
X53221884Y-31035213D01*
X53191991Y-31049351D01*
X53160857Y-31060491D01*
X53128781Y-31068525D01*
X53096071Y-31073377D01*
X53063044Y-31075000D01*
X51936956Y-31075000D01*
X51903929Y-31073377D01*
X51871219Y-31068525D01*
X51839143Y-31060491D01*
X51808009Y-31049351D01*
X51778116Y-31035213D01*
X51749753Y-31018213D01*
X51723193Y-30998515D01*
X51698692Y-30976308D01*
X51676485Y-30951807D01*
X51656787Y-30925247D01*
X51639787Y-30896884D01*
X51625649Y-30866991D01*
X51614509Y-30835857D01*
X51606475Y-30803781D01*
X51601623Y-30771071D01*
X51600000Y-30738044D01*
X51600000Y-29861956D01*
X51601623Y-29828929D01*
X51606475Y-29796219D01*
X51614509Y-29764143D01*
X51625649Y-29733009D01*
X51639787Y-29703116D01*
X51656787Y-29674753D01*
X51676485Y-29648193D01*
X51698692Y-29623692D01*
X51723193Y-29601485D01*
X51749753Y-29581787D01*
X51778116Y-29564787D01*
X51808009Y-29550649D01*
X51839143Y-29539509D01*
X51871219Y-29531475D01*
X51903929Y-29526623D01*
X51936956Y-29525000D01*
X53063044Y-29525000D01*
X53096071Y-29526623D01*
X53096071Y-29526623D01*
G37*
D15*
X52500000Y-30300000D03*
G04 #@! TD*
D10*
G04 #@! TO.C,R41*
G36*
X60596071Y-31226623D02*
X60628781Y-31231475D01*
X60660857Y-31239509D01*
X60691991Y-31250649D01*
X60721884Y-31264787D01*
X60750247Y-31281787D01*
X60776807Y-31301485D01*
X60801308Y-31323692D01*
X60823515Y-31348193D01*
X60843213Y-31374753D01*
X60860213Y-31403116D01*
X60874351Y-31433009D01*
X60885491Y-31464143D01*
X60893525Y-31496219D01*
X60898377Y-31528929D01*
X60900000Y-31561956D01*
X60900000Y-32438044D01*
X60898377Y-32471071D01*
X60893525Y-32503781D01*
X60885491Y-32535857D01*
X60874351Y-32566991D01*
X60860213Y-32596884D01*
X60843213Y-32625247D01*
X60823515Y-32651807D01*
X60801308Y-32676308D01*
X60776807Y-32698515D01*
X60750247Y-32718213D01*
X60721884Y-32735213D01*
X60691991Y-32749351D01*
X60660857Y-32760491D01*
X60628781Y-32768525D01*
X60596071Y-32773377D01*
X60563044Y-32775000D01*
X59436956Y-32775000D01*
X59403929Y-32773377D01*
X59371219Y-32768525D01*
X59339143Y-32760491D01*
X59308009Y-32749351D01*
X59278116Y-32735213D01*
X59249753Y-32718213D01*
X59223193Y-32698515D01*
X59198692Y-32676308D01*
X59176485Y-32651807D01*
X59156787Y-32625247D01*
X59139787Y-32596884D01*
X59125649Y-32566991D01*
X59114509Y-32535857D01*
X59106475Y-32503781D01*
X59101623Y-32471071D01*
X59100000Y-32438044D01*
X59100000Y-31561956D01*
X59101623Y-31528929D01*
X59106475Y-31496219D01*
X59114509Y-31464143D01*
X59125649Y-31433009D01*
X59139787Y-31403116D01*
X59156787Y-31374753D01*
X59176485Y-31348193D01*
X59198692Y-31323692D01*
X59223193Y-31301485D01*
X59249753Y-31281787D01*
X59278116Y-31264787D01*
X59308009Y-31250649D01*
X59339143Y-31239509D01*
X59371219Y-31231475D01*
X59403929Y-31226623D01*
X59436956Y-31225000D01*
X60563044Y-31225000D01*
X60596071Y-31226623D01*
X60596071Y-31226623D01*
G37*
D15*
X60000000Y-32000000D03*
D10*
G36*
X60596071Y-29526623D02*
X60628781Y-29531475D01*
X60660857Y-29539509D01*
X60691991Y-29550649D01*
X60721884Y-29564787D01*
X60750247Y-29581787D01*
X60776807Y-29601485D01*
X60801308Y-29623692D01*
X60823515Y-29648193D01*
X60843213Y-29674753D01*
X60860213Y-29703116D01*
X60874351Y-29733009D01*
X60885491Y-29764143D01*
X60893525Y-29796219D01*
X60898377Y-29828929D01*
X60900000Y-29861956D01*
X60900000Y-30738044D01*
X60898377Y-30771071D01*
X60893525Y-30803781D01*
X60885491Y-30835857D01*
X60874351Y-30866991D01*
X60860213Y-30896884D01*
X60843213Y-30925247D01*
X60823515Y-30951807D01*
X60801308Y-30976308D01*
X60776807Y-30998515D01*
X60750247Y-31018213D01*
X60721884Y-31035213D01*
X60691991Y-31049351D01*
X60660857Y-31060491D01*
X60628781Y-31068525D01*
X60596071Y-31073377D01*
X60563044Y-31075000D01*
X59436956Y-31075000D01*
X59403929Y-31073377D01*
X59371219Y-31068525D01*
X59339143Y-31060491D01*
X59308009Y-31049351D01*
X59278116Y-31035213D01*
X59249753Y-31018213D01*
X59223193Y-30998515D01*
X59198692Y-30976308D01*
X59176485Y-30951807D01*
X59156787Y-30925247D01*
X59139787Y-30896884D01*
X59125649Y-30866991D01*
X59114509Y-30835857D01*
X59106475Y-30803781D01*
X59101623Y-30771071D01*
X59100000Y-30738044D01*
X59100000Y-29861956D01*
X59101623Y-29828929D01*
X59106475Y-29796219D01*
X59114509Y-29764143D01*
X59125649Y-29733009D01*
X59139787Y-29703116D01*
X59156787Y-29674753D01*
X59176485Y-29648193D01*
X59198692Y-29623692D01*
X59223193Y-29601485D01*
X59249753Y-29581787D01*
X59278116Y-29564787D01*
X59308009Y-29550649D01*
X59339143Y-29539509D01*
X59371219Y-29531475D01*
X59403929Y-29526623D01*
X59436956Y-29525000D01*
X60563044Y-29525000D01*
X60596071Y-29526623D01*
X60596071Y-29526623D01*
G37*
D15*
X60000000Y-30300000D03*
G04 #@! TD*
D10*
G04 #@! TO.C,C11*
G36*
X46277346Y-29676589D02*
X46309380Y-29681341D01*
X46340794Y-29689210D01*
X46371286Y-29700120D01*
X46400561Y-29713966D01*
X46428338Y-29730615D01*
X46454350Y-29749907D01*
X46478345Y-29771655D01*
X46500093Y-29795650D01*
X46519385Y-29821662D01*
X46536034Y-29849439D01*
X46549880Y-29878714D01*
X46560790Y-29909206D01*
X46568659Y-29940620D01*
X46573411Y-29972654D01*
X46575000Y-30005000D01*
X46575000Y-30995000D01*
X46573411Y-31027346D01*
X46568659Y-31059380D01*
X46560790Y-31090794D01*
X46549880Y-31121286D01*
X46536034Y-31150561D01*
X46519385Y-31178338D01*
X46500093Y-31204350D01*
X46478345Y-31228345D01*
X46454350Y-31250093D01*
X46428338Y-31269385D01*
X46400561Y-31286034D01*
X46371286Y-31299880D01*
X46340794Y-31310790D01*
X46309380Y-31318659D01*
X46277346Y-31323411D01*
X46245000Y-31325000D01*
X44755000Y-31325000D01*
X44722654Y-31323411D01*
X44690620Y-31318659D01*
X44659206Y-31310790D01*
X44628714Y-31299880D01*
X44599439Y-31286034D01*
X44571662Y-31269385D01*
X44545650Y-31250093D01*
X44521655Y-31228345D01*
X44499907Y-31204350D01*
X44480615Y-31178338D01*
X44463966Y-31150561D01*
X44450120Y-31121286D01*
X44439210Y-31090794D01*
X44431341Y-31059380D01*
X44426589Y-31027346D01*
X44425000Y-30995000D01*
X44425000Y-30005000D01*
X44426589Y-29972654D01*
X44431341Y-29940620D01*
X44439210Y-29909206D01*
X44450120Y-29878714D01*
X44463966Y-29849439D01*
X44480615Y-29821662D01*
X44499907Y-29795650D01*
X44521655Y-29771655D01*
X44545650Y-29749907D01*
X44571662Y-29730615D01*
X44599439Y-29713966D01*
X44628714Y-29700120D01*
X44659206Y-29689210D01*
X44690620Y-29681341D01*
X44722654Y-29676589D01*
X44755000Y-29675000D01*
X46245000Y-29675000D01*
X46277346Y-29676589D01*
X46277346Y-29676589D01*
G37*
D11*
X45500000Y-30500000D03*
D10*
G36*
X46277346Y-32476589D02*
X46309380Y-32481341D01*
X46340794Y-32489210D01*
X46371286Y-32500120D01*
X46400561Y-32513966D01*
X46428338Y-32530615D01*
X46454350Y-32549907D01*
X46478345Y-32571655D01*
X46500093Y-32595650D01*
X46519385Y-32621662D01*
X46536034Y-32649439D01*
X46549880Y-32678714D01*
X46560790Y-32709206D01*
X46568659Y-32740620D01*
X46573411Y-32772654D01*
X46575000Y-32805000D01*
X46575000Y-33795000D01*
X46573411Y-33827346D01*
X46568659Y-33859380D01*
X46560790Y-33890794D01*
X46549880Y-33921286D01*
X46536034Y-33950561D01*
X46519385Y-33978338D01*
X46500093Y-34004350D01*
X46478345Y-34028345D01*
X46454350Y-34050093D01*
X46428338Y-34069385D01*
X46400561Y-34086034D01*
X46371286Y-34099880D01*
X46340794Y-34110790D01*
X46309380Y-34118659D01*
X46277346Y-34123411D01*
X46245000Y-34125000D01*
X44755000Y-34125000D01*
X44722654Y-34123411D01*
X44690620Y-34118659D01*
X44659206Y-34110790D01*
X44628714Y-34099880D01*
X44599439Y-34086034D01*
X44571662Y-34069385D01*
X44545650Y-34050093D01*
X44521655Y-34028345D01*
X44499907Y-34004350D01*
X44480615Y-33978338D01*
X44463966Y-33950561D01*
X44450120Y-33921286D01*
X44439210Y-33890794D01*
X44431341Y-33859380D01*
X44426589Y-33827346D01*
X44425000Y-33795000D01*
X44425000Y-32805000D01*
X44426589Y-32772654D01*
X44431341Y-32740620D01*
X44439210Y-32709206D01*
X44450120Y-32678714D01*
X44463966Y-32649439D01*
X44480615Y-32621662D01*
X44499907Y-32595650D01*
X44521655Y-32571655D01*
X44545650Y-32549907D01*
X44571662Y-32530615D01*
X44599439Y-32513966D01*
X44628714Y-32500120D01*
X44659206Y-32489210D01*
X44690620Y-32481341D01*
X44722654Y-32476589D01*
X44755000Y-32475000D01*
X46245000Y-32475000D01*
X46277346Y-32476589D01*
X46277346Y-32476589D01*
G37*
D11*
X45500000Y-33300000D03*
G04 #@! TD*
M02*
