G04 #@! TF.GenerationSoftware,KiCad,Pcbnew,5.0.0*
G04 #@! TF.CreationDate,2018-11-01T16:31:23+02:00*
G04 #@! TF.ProjectId,filter,66696C7465722E6B696361645F706362,rev?*
G04 #@! TF.SameCoordinates,Original*
G04 #@! TF.FileFunction,Copper,L2,Bot,Signal*
G04 #@! TF.FilePolarity,Positive*
%FSLAX46Y46*%
G04 Gerber Fmt 4.6, Leading zero omitted, Abs format (unit mm)*
G04 Created by KiCad (PCBNEW 5.0.0) date Thu Nov  1 16:31:23 2018*
%MOMM*%
%LPD*%
G01*
G04 APERTURE LIST*
G04 #@! TA.AperFunction,ComponentPad*
%ADD10R,1.700000X1.950000*%
G04 #@! TD*
G04 #@! TA.AperFunction,ComponentPad*
%ADD11R,1.700000X1.700000*%
G04 #@! TD*
G04 #@! TA.AperFunction,ViaPad*
%ADD12C,0.800000*%
G04 #@! TD*
G04 #@! TA.AperFunction,Conductor*
%ADD13C,0.400000*%
G04 #@! TD*
G04 #@! TA.AperFunction,Conductor*
%ADD14C,0.600000*%
G04 #@! TD*
G04 #@! TA.AperFunction,Conductor*
%ADD15C,0.254000*%
G04 #@! TD*
G04 APERTURE END LIST*
D10*
G04 #@! TO.P,J7,1*
G04 #@! TO.N,GND*
X73000000Y-27500000D03*
G04 #@! TD*
G04 #@! TO.P,J8,1*
G04 #@! TO.N,GND*
X73000000Y-42500000D03*
G04 #@! TD*
D11*
G04 #@! TO.P,J2,1*
G04 #@! TO.N,GND*
X46000000Y-42500000D03*
G04 #@! TD*
G04 #@! TO.P,J1,1*
G04 #@! TO.N,GND*
X45880000Y-27500000D03*
G04 #@! TD*
D12*
G04 #@! TO.N,GND*
X60000000Y-42500000D03*
X45500000Y-35000000D03*
X48000000Y-35000000D03*
X55000000Y-35000000D03*
X57500000Y-35000000D03*
X79250000Y-37500000D03*
X84250000Y-37500000D03*
X73750000Y-29750000D03*
X73750000Y-40250000D03*
X60000000Y-27500000D03*
X43000000Y-42500000D03*
X43000000Y-27500000D03*
X89500000Y-36500000D03*
G04 #@! TD*
D13*
G04 #@! TO.N,GND*
X60000000Y-35000000D02*
X66000000Y-35000000D01*
X66000000Y-35000000D02*
X72000000Y-35000000D01*
D14*
X57500000Y-35000000D02*
X57899999Y-34600001D01*
D13*
X60000000Y-27500000D02*
X60000000Y-27500000D01*
X60000000Y-27500000D02*
X66000000Y-27500000D01*
X66000000Y-27500000D02*
X73000000Y-27500000D01*
G04 #@! TD*
D15*
G04 #@! TO.N,GND*
G36*
X44395000Y-27214250D02*
X44553750Y-27373000D01*
X45753000Y-27373000D01*
X45753000Y-27353000D01*
X46007000Y-27353000D01*
X46007000Y-27373000D01*
X47206250Y-27373000D01*
X47365000Y-27214250D01*
X47365000Y-26710000D01*
X60873000Y-26710000D01*
X60873000Y-43290000D01*
X47485000Y-43290000D01*
X47485000Y-42785750D01*
X47326250Y-42627000D01*
X46127000Y-42627000D01*
X46127000Y-42647000D01*
X45873000Y-42647000D01*
X45873000Y-42627000D01*
X44673750Y-42627000D01*
X44515000Y-42785750D01*
X44515000Y-43290000D01*
X42210000Y-43290000D01*
X42210000Y-41523691D01*
X44515000Y-41523691D01*
X44515000Y-42214250D01*
X44673750Y-42373000D01*
X45873000Y-42373000D01*
X45873000Y-41173750D01*
X46127000Y-41173750D01*
X46127000Y-42373000D01*
X47326250Y-42373000D01*
X47485000Y-42214250D01*
X47485000Y-41523691D01*
X47388327Y-41290302D01*
X47209699Y-41111673D01*
X46976310Y-41015000D01*
X46285750Y-41015000D01*
X46127000Y-41173750D01*
X45873000Y-41173750D01*
X45714250Y-41015000D01*
X45023690Y-41015000D01*
X44790301Y-41111673D01*
X44611673Y-41290302D01*
X44515000Y-41523691D01*
X42210000Y-41523691D01*
X42210000Y-27785750D01*
X44395000Y-27785750D01*
X44395000Y-28476309D01*
X44491673Y-28709698D01*
X44670301Y-28888327D01*
X44903690Y-28985000D01*
X45594250Y-28985000D01*
X45753000Y-28826250D01*
X45753000Y-27627000D01*
X46007000Y-27627000D01*
X46007000Y-28826250D01*
X46165750Y-28985000D01*
X46856310Y-28985000D01*
X47089699Y-28888327D01*
X47268327Y-28709698D01*
X47365000Y-28476309D01*
X47365000Y-27785750D01*
X47206250Y-27627000D01*
X46007000Y-27627000D01*
X45753000Y-27627000D01*
X44553750Y-27627000D01*
X44395000Y-27785750D01*
X42210000Y-27785750D01*
X42210000Y-26710000D01*
X44395000Y-26710000D01*
X44395000Y-27214250D01*
X44395000Y-27214250D01*
G37*
X44395000Y-27214250D02*
X44553750Y-27373000D01*
X45753000Y-27373000D01*
X45753000Y-27353000D01*
X46007000Y-27353000D01*
X46007000Y-27373000D01*
X47206250Y-27373000D01*
X47365000Y-27214250D01*
X47365000Y-26710000D01*
X60873000Y-26710000D01*
X60873000Y-43290000D01*
X47485000Y-43290000D01*
X47485000Y-42785750D01*
X47326250Y-42627000D01*
X46127000Y-42627000D01*
X46127000Y-42647000D01*
X45873000Y-42647000D01*
X45873000Y-42627000D01*
X44673750Y-42627000D01*
X44515000Y-42785750D01*
X44515000Y-43290000D01*
X42210000Y-43290000D01*
X42210000Y-41523691D01*
X44515000Y-41523691D01*
X44515000Y-42214250D01*
X44673750Y-42373000D01*
X45873000Y-42373000D01*
X45873000Y-41173750D01*
X46127000Y-41173750D01*
X46127000Y-42373000D01*
X47326250Y-42373000D01*
X47485000Y-42214250D01*
X47485000Y-41523691D01*
X47388327Y-41290302D01*
X47209699Y-41111673D01*
X46976310Y-41015000D01*
X46285750Y-41015000D01*
X46127000Y-41173750D01*
X45873000Y-41173750D01*
X45714250Y-41015000D01*
X45023690Y-41015000D01*
X44790301Y-41111673D01*
X44611673Y-41290302D01*
X44515000Y-41523691D01*
X42210000Y-41523691D01*
X42210000Y-27785750D01*
X44395000Y-27785750D01*
X44395000Y-28476309D01*
X44491673Y-28709698D01*
X44670301Y-28888327D01*
X44903690Y-28985000D01*
X45594250Y-28985000D01*
X45753000Y-28826250D01*
X45753000Y-27627000D01*
X46007000Y-27627000D01*
X46007000Y-28826250D01*
X46165750Y-28985000D01*
X46856310Y-28985000D01*
X47089699Y-28888327D01*
X47268327Y-28709698D01*
X47365000Y-28476309D01*
X47365000Y-27785750D01*
X47206250Y-27627000D01*
X46007000Y-27627000D01*
X45753000Y-27627000D01*
X44553750Y-27627000D01*
X44395000Y-27785750D01*
X42210000Y-27785750D01*
X42210000Y-26710000D01*
X44395000Y-26710000D01*
X44395000Y-27214250D01*
G36*
X68873000Y-32373000D02*
X63127000Y-32373000D01*
X63127000Y-26710000D01*
X68873000Y-26710000D01*
X68873000Y-32373000D01*
X68873000Y-32373000D01*
G37*
X68873000Y-32373000D02*
X63127000Y-32373000D01*
X63127000Y-26710000D01*
X68873000Y-26710000D01*
X68873000Y-32373000D01*
G36*
X68873000Y-40373000D02*
X63127000Y-40373000D01*
X63127000Y-34627000D01*
X68873000Y-34627000D01*
X68873000Y-40373000D01*
X68873000Y-40373000D01*
G37*
X68873000Y-40373000D02*
X63127000Y-40373000D01*
X63127000Y-34627000D01*
X68873000Y-34627000D01*
X68873000Y-40373000D01*
G36*
X71515000Y-27214250D02*
X71673750Y-27373000D01*
X72873000Y-27373000D01*
X72873000Y-27353000D01*
X73127000Y-27353000D01*
X73127000Y-27373000D01*
X74326250Y-27373000D01*
X74485000Y-27214250D01*
X74485000Y-26710000D01*
X89790000Y-26710000D01*
X89790001Y-43290000D01*
X74485000Y-43290000D01*
X74485000Y-42785750D01*
X74326250Y-42627000D01*
X73127000Y-42627000D01*
X73127000Y-42647000D01*
X72873000Y-42647000D01*
X72873000Y-42627000D01*
X71673750Y-42627000D01*
X71515000Y-42785750D01*
X71515000Y-43290000D01*
X71127000Y-43290000D01*
X71127000Y-41398690D01*
X71515000Y-41398690D01*
X71515000Y-42214250D01*
X71673750Y-42373000D01*
X72873000Y-42373000D01*
X72873000Y-41048750D01*
X73127000Y-41048750D01*
X73127000Y-42373000D01*
X74326250Y-42373000D01*
X74485000Y-42214250D01*
X74485000Y-41398690D01*
X74388327Y-41165301D01*
X74209698Y-40986673D01*
X73976309Y-40890000D01*
X73285750Y-40890000D01*
X73127000Y-41048750D01*
X72873000Y-41048750D01*
X72714250Y-40890000D01*
X72023691Y-40890000D01*
X71790302Y-40986673D01*
X71611673Y-41165301D01*
X71515000Y-41398690D01*
X71127000Y-41398690D01*
X71127000Y-27785750D01*
X71515000Y-27785750D01*
X71515000Y-28601310D01*
X71611673Y-28834699D01*
X71790302Y-29013327D01*
X72023691Y-29110000D01*
X72714250Y-29110000D01*
X72873000Y-28951250D01*
X72873000Y-27627000D01*
X73127000Y-27627000D01*
X73127000Y-28951250D01*
X73285750Y-29110000D01*
X73976309Y-29110000D01*
X74209698Y-29013327D01*
X74388327Y-28834699D01*
X74485000Y-28601310D01*
X74485000Y-27785750D01*
X74326250Y-27627000D01*
X73127000Y-27627000D01*
X72873000Y-27627000D01*
X71673750Y-27627000D01*
X71515000Y-27785750D01*
X71127000Y-27785750D01*
X71127000Y-26710000D01*
X71515000Y-26710000D01*
X71515000Y-27214250D01*
X71515000Y-27214250D01*
G37*
X71515000Y-27214250D02*
X71673750Y-27373000D01*
X72873000Y-27373000D01*
X72873000Y-27353000D01*
X73127000Y-27353000D01*
X73127000Y-27373000D01*
X74326250Y-27373000D01*
X74485000Y-27214250D01*
X74485000Y-26710000D01*
X89790000Y-26710000D01*
X89790001Y-43290000D01*
X74485000Y-43290000D01*
X74485000Y-42785750D01*
X74326250Y-42627000D01*
X73127000Y-42627000D01*
X73127000Y-42647000D01*
X72873000Y-42647000D01*
X72873000Y-42627000D01*
X71673750Y-42627000D01*
X71515000Y-42785750D01*
X71515000Y-43290000D01*
X71127000Y-43290000D01*
X71127000Y-41398690D01*
X71515000Y-41398690D01*
X71515000Y-42214250D01*
X71673750Y-42373000D01*
X72873000Y-42373000D01*
X72873000Y-41048750D01*
X73127000Y-41048750D01*
X73127000Y-42373000D01*
X74326250Y-42373000D01*
X74485000Y-42214250D01*
X74485000Y-41398690D01*
X74388327Y-41165301D01*
X74209698Y-40986673D01*
X73976309Y-40890000D01*
X73285750Y-40890000D01*
X73127000Y-41048750D01*
X72873000Y-41048750D01*
X72714250Y-40890000D01*
X72023691Y-40890000D01*
X71790302Y-40986673D01*
X71611673Y-41165301D01*
X71515000Y-41398690D01*
X71127000Y-41398690D01*
X71127000Y-27785750D01*
X71515000Y-27785750D01*
X71515000Y-28601310D01*
X71611673Y-28834699D01*
X71790302Y-29013327D01*
X72023691Y-29110000D01*
X72714250Y-29110000D01*
X72873000Y-28951250D01*
X72873000Y-27627000D01*
X73127000Y-27627000D01*
X73127000Y-28951250D01*
X73285750Y-29110000D01*
X73976309Y-29110000D01*
X74209698Y-29013327D01*
X74388327Y-28834699D01*
X74485000Y-28601310D01*
X74485000Y-27785750D01*
X74326250Y-27627000D01*
X73127000Y-27627000D01*
X72873000Y-27627000D01*
X71673750Y-27627000D01*
X71515000Y-27785750D01*
X71127000Y-27785750D01*
X71127000Y-26710000D01*
X71515000Y-26710000D01*
X71515000Y-27214250D01*
G04 #@! TD*
M02*
